<svg id="圖層_1" data-name="圖層 1" xmlns="http://www.w3.org/2000/svg" viewBox="0 0 43.9 49.95"><defs><style>.cls-1{fill:#221714;}</style></defs><title>區經理</title><path class="cls-1" d="M43.69,35.12c-.16-.49-3.27-10.12-10.8-12a21.56,21.56,0,0,0,1.44-7.66C34.33,11.2,34.33,0,22,0S9.54,11.61,9.54,15.41A21.24,21.24,0,0,0,11,23.09C3.46,25,.3,34.68.17,35.12a3.33,3.33,0,0,0-.17,1v5c0,5.54,6.51,8.24,7.25,8.54A3.86,3.86,0,0,0,8.51,50H35.35a3.3,3.3,0,0,0,1.24-.24c.75-.29,7.31-3,7.31-8.54v-5A3.63,3.63,0,0,0,43.69,35.12ZM22,27.44c-4.73,0-7.89-6.22-7.89-12C14.07,8.7,15.38,4.53,22,4.53s7.9,4.17,7.9,10.88c-.06,5.81-3.21,12-7.9,12Zm-9.58,0c1.12,2.64,4.74,5.07,9.62,5.07s8.37-2.43,9.47-5.07c4.88,1,7.44,7.9,7.8,9v4.83c0,2-2.89,3.68-4.23,4.25H8.67c-1.31-.57-4.19-2.21-4.19-4.25V36.49c.43-1.25,3-8.07,7.9-9.11Z"/></svg>