<svg id="圖層_1" data-name="圖層 1" xmlns="http://www.w3.org/2000/svg" viewBox="0 0 79.12 79.8"><defs><style>.cls-1{fill:#c12b1f;}</style></defs><title>待簽核</title><path class="cls-1" d="M76.91,57.53H57A8,8,0,0,0,51.52,52V42.49a.38.38,0,0,0,0-.15h0l-.1-.19L51,41.67c-4.58-3.91-2.85-11.34-1.17-18.55a50.17,50.17,0,0,0,1.69-10.46,12.16,12.16,0,1,0-24.29-1c0,.34,0,.67,0,1a49.53,49.53,0,0,0,1.7,10.46c1.65,7.21,3.39,14.64-1,18.53h-.11l.29.25h0l-.37-.17-.11.15-.12.19v.19a.74.74,0,0,0,0,.21.67.67,0,0,0,0,.2V51.9A8,8,0,0,0,22,57.44H2.09A2.1,2.1,0,0,0,0,59.53V72.08a2.1,2.1,0,0,0,2.09,2.1H5.17v3.53A2.08,2.08,0,0,0,7.26,79.8H71.85a2.08,2.08,0,0,0,2.09-2.09V74.49H77a2.1,2.1,0,0,0,2.09-2.09V59.85a2.08,2.08,0,0,0-1.84-2.31A1.45,1.45,0,0,0,76.91,57.53Zm-7.4,17v2.28H9.22V74.49Zm-43.07-17A3.57,3.57,0,0,1,29.39,56h20a3.57,3.57,0,0,1,2.95,1.51ZM45.6,22.11c-1.48,6.28-3.14,13.54-.56,19a2.1,2.1,0,0,0,.12,4.19h1.93v6.27H31.48V45.25H38a2.18,2.18,0,0,0,0-4.35H33.61c2.58-5.42.93-12.55-.54-18.83a46.54,46.54,0,0,1-1.59-9.52,7.81,7.81,0,0,1,15.61,0h0a47.46,47.46,0,0,1-1.49,9.56ZM74.76,61.86v8.36H4V61.86Z"/></svg>