<svg id="圖層_1" data-name="圖層 1" xmlns="http://www.w3.org/2000/svg" viewBox="0 0 79.12 99.21"><defs><style>.cls-1{fill:#e48d2c;}</style></defs><title>異常補辦</title><path class="cls-1" d="M46.24,82a5.23,5.23,0,0,1-2,4.25A7.21,7.21,0,0,1,39.55,88a7.06,7.06,0,0,1-4.72-1.73,5.35,5.35,0,0,1,0-8.42,7.3,7.3,0,0,1,4.72-1.65,7.47,7.47,0,0,1,4.69,1.65A5.26,5.26,0,0,1,46.24,82ZM44.9,41.15,42.72,67.37a2.89,2.89,0,0,1-2.65,3.11,3,3,0,0,1-.52,0A3,3,0,0,1,36.19,68a2.81,2.81,0,0,1,0-.65L34.09,41.15C33.7,36.4,35.54,34,39.6,34S45.34,36.38,44.9,41.15Z"/><path class="cls-1" d="M39.5,16.81a3.86,3.86,0,1,0-3.83-3.88v0A3.85,3.85,0,0,0,39.5,16.81Z"/><path class="cls-1" d="M79.12,49.2V22.45a9.91,9.91,0,0,0-9.86-10h-.05a4.86,4.86,0,0,0-1.26.19,9.91,9.91,0,0,0-8.63-5.25h-2.8A9.93,9.93,0,0,0,46.94,0H32.07a9.91,9.91,0,0,0-9.59,7.42H19.7a9.91,9.91,0,0,0-8.63,5.25,5.09,5.09,0,0,0-1.29-.19A9.89,9.89,0,0,0,0,22.45V89.3a9.91,9.91,0,0,0,9.89,9.91H69.21a9.93,9.93,0,0,0,9.91-9.91h0ZM19.7,12.48h7.47V9.86a5,5,0,0,1,5-5H46.94a5,5,0,0,1,4.94,5v2.62h7.47a5,5,0,0,1,0,9.89H19.7A5,5,0,1,1,19,12.48ZM74.17,89.3a5,5,0,0,1-5,5H9.78a5,5,0,0,1-4.93-5V22.45a5,5,0,0,1,4.93-5,9.92,9.92,0,0,0,7.87,9.71,11.11,11.11,0,0,0,2,.21H59.32a9.89,9.89,0,0,0,9.89-9.89v0a5,5,0,0,1,5,5V60.77h0V87.54h0Z"/></svg>