<svg id="圖層_1" data-name="圖層 1" xmlns="http://www.w3.org/2000/svg" viewBox="0 0 35.07 39.75"><defs><style>.cls-1{fill:#df6563;}</style></defs><title>總計</title><path class="cls-1" d="M29.33,39.75H5.75A5.76,5.76,0,0,1,0,34V5.75A5.77,5.77,0,0,1,5.75,0H29.33a5.76,5.76,0,0,1,5.74,5.75V34A5.74,5.74,0,0,1,29.33,39.75ZM5.78,2.07A3.67,3.67,0,0,0,2.11,5.75h0V34a3.67,3.67,0,0,0,3.67,3.66H29.33A3.66,3.66,0,0,0,33,34V5.75a3.68,3.68,0,0,0-3.66-3.68ZM28.11,34.42H25.76a2.25,2.25,0,0,1-2.25-2.25V29.81a2.25,2.25,0,0,1,2.25-2.25h2.35a2.26,2.26,0,0,1,2.26,2.25v2.36A2.25,2.25,0,0,1,28.11,34.42Zm-2.35-4.71a.15.15,0,0,0-.14.15h0v2.31a.13.13,0,0,0,.14.13h2.35a.14.14,0,0,0,.15-.13V29.81a.15.15,0,0,0-.15-.14h0ZM18.7,34.42H16.34a2.25,2.25,0,0,1-2.26-2.25V29.81a2.26,2.26,0,0,1,2.26-2.25H18.7A2.25,2.25,0,0,1,21,29.81v2.36A2.25,2.25,0,0,1,18.7,34.42Zm-2.36-4.71a.15.15,0,0,0-.14.15v2.31a.15.15,0,0,0,.14.13H18.7a.13.13,0,0,0,.14-.13V29.81a.14.14,0,0,0-.14-.14h0Zm-7,4.71H7a2.25,2.25,0,0,1-2.26-2.25V29.81A2.26,2.26,0,0,1,7,27.56H9.31a2.26,2.26,0,0,1,2.26,2.25v2.36A2.25,2.25,0,0,1,9.31,34.42ZM7,29.71a.15.15,0,0,0-.15.15h0v2.31A.14.14,0,0,0,7,32.3H9.31a.14.14,0,0,0,.15-.13V29.81a.15.15,0,0,0-.15-.14h0Zm21.14-4H25.76a2.25,2.25,0,0,1-2.25-2.25V21.06a2.25,2.25,0,0,1,2.25-2.25h2.35a2.26,2.26,0,0,1,2.26,2.25v2.36a2.26,2.26,0,0,1-2.26,2.21Zm-2.35-4.78a.14.14,0,0,0-.14.14v2.36a.14.14,0,0,0,.14.14h2.35a.15.15,0,0,0,.15-.14h0V21a.15.15,0,0,0-.15-.14ZM18.7,25.61H16.34a2.26,2.26,0,0,1-2.26-2.26V21a2.26,2.26,0,0,1,2.26-2.26H18.7A2.26,2.26,0,0,1,21,21v2.35a2.26,2.26,0,0,1-2.23,2.28h0Zm-2.36-4.72a.17.17,0,0,0-.14.14v2.36a.14.14,0,0,0,.14.14H18.7a.14.14,0,0,0,.14-.14h0V21a.14.14,0,0,0-.14-.14Zm-7,4.72H7a2.26,2.26,0,0,1-2.26-2.26V21A2.26,2.26,0,0,1,7,18.74H9.31A2.26,2.26,0,0,1,11.57,21v2.35a2.26,2.26,0,0,1-2.23,2.28h0ZM7,20.89a.15.15,0,0,0-.15.14v2.36a.15.15,0,0,0,.15.14H9.31a.15.15,0,0,0,.15-.14h0V21a.15.15,0,0,0-.15-.14Zm18.79-4.71H9.28A2.26,2.26,0,0,1,7,13.93V9.28A2.26,2.26,0,0,1,9.28,7H25.76A2.26,2.26,0,0,1,28,9.28V14a2.25,2.25,0,0,1-2.26,2.21ZM9.28,9.12a.15.15,0,0,0-.15.14V14a.14.14,0,0,0,.14.14H25.76A.14.14,0,0,0,25.9,14V9.28a.16.16,0,0,0-.14-.14Z"/></svg>