<svg id="圖層_1" data-name="圖層 1" xmlns="http://www.w3.org/2000/svg" viewBox="0 0 50.26 49.95"><defs><style>.cls-1{fill:#fff;}</style></defs><title>行事曆</title><path class="cls-1" d="M22.28,30.53A3.5,3.5,0,0,0,24.41,27c-.17-1.87-1.22-4.14-5.33-4.26Q14,22.87,13,27.11a.49.49,0,0,0,.37.57l3.09.59a.47.47,0,0,0,.54-.34,2,2,0,0,1,1.85-1.77,1.2,1.2,0,0,1,1.38,1.38c0,.4,0,1.46-2.43,1.46H16.51a.46.46,0,0,0-.45.46v2.45a.46.46,0,0,0,.45.46h1.38a3.4,3.4,0,0,1,2.39.63,1.29,1.29,0,0,1,.32,1,1.46,1.46,0,0,1-1.31,1.6H19A1.79,1.79,0,0,1,17,34a1,1,0,0,1,0-.17.51.51,0,0,0-.19-.32.48.48,0,0,0-.35-.07l-3.3.67a.48.48,0,0,0-.3.2.55.55,0,0,0,0,.36,5.08,5.08,0,0,0,5.42,4.14h.57c3.82-.1,5.85-1.64,6-4.61h0A4,4,0,0,0,22.28,30.53Z"/><path class="cls-1" d="M37,23.06h-2.5a.47.47,0,0,0-.39.19A10.5,10.5,0,0,1,29,27.13a.45.45,0,0,0-.29.42v2.76a.51.51,0,0,0,.2.38.49.49,0,0,0,.41,0,17,17,0,0,0,4-1.94v9.32a.47.47,0,0,0,.46.47H37a.47.47,0,0,0,.45-.47V23.51A.45.45,0,0,0,37,23.06Z"/><path class="cls-1" d="M13.3,2.68a2.47,2.47,0,0,0-2.46,2.47V13a2.47,2.47,0,0,0,4.93.37,2.29,2.29,0,0,0,0-.37V5.15A2.47,2.47,0,0,0,13.3,2.68Zm0,15.77A5.43,5.43,0,0,1,7.89,13V5.15a5.42,5.42,0,0,1,10.83,0V13a5.43,5.43,0,0,1-5.41,5.44h0Z"/><path class="cls-1" d="M37,2.68a2.47,2.47,0,0,0-2.47,2.47h0V13a2.47,2.47,0,1,0,4.94,0V5.15A2.49,2.49,0,0,0,37,2.68Zm0,15.77A5.42,5.42,0,0,1,31.54,13V5.15a5.42,5.42,0,0,1,10.83,0V13A5.43,5.43,0,0,1,37,18.48h0Z"/><path class="cls-1" d="M50.26,11.78a4.13,4.13,0,0,0-4.14-4.13H40.86a1.47,1.47,0,0,0-1.47,1.47h0v4a2.46,2.46,0,0,1-4.9.37,2.28,2.28,0,0,1,0-.37v-4A1.47,1.47,0,0,0,33,7.62H17.22a1.47,1.47,0,0,0-1.48,1.47h0V13a2.46,2.46,0,0,1-4.9.37,2.29,2.29,0,0,1,0-.37V9.09A1.47,1.47,0,0,0,9.37,7.62H4.14A4.14,4.14,0,0,0,0,11.76V31.22H0V45.81A4.14,4.14,0,0,0,4.14,50H46.05a4.14,4.14,0,0,0,4.14-4.14V31.24h0Zm-3,34a1.23,1.23,0,0,1-1.23,1.23H4.17A1.23,1.23,0,0,1,3,45.82v-34a1.24,1.24,0,0,1,1.22-1.21H7.85V13a5.43,5.43,0,0,0,5.41,5.44h0a5.42,5.42,0,0,0,5.42-5.41V10.61H31.48V13a5.44,5.44,0,0,0,5.41,5.44h0a5.43,5.43,0,0,0,5.41-5.41V10.6H46a1.23,1.23,0,0,1,1.23,1.21Z"/></svg>