<svg id="圖層_1" data-name="圖層 1" xmlns="http://www.w3.org/2000/svg" viewBox="0 0 75.32 32.42"><defs><style>.cls-1{fill:#f3f3f3;}.cls-2{fill:#d82b17;}.cls-3{fill:#fff;}</style></defs><title>說明</title><path class="cls-1" d="M61.59,0H13.73A13.77,13.77,0,0,0,0,13.73v5A13.76,13.76,0,0,0,13.73,32.42H61.59A13.76,13.76,0,0,0,75.32,18.7v-5A13.77,13.77,0,0,0,61.59,0Zm6.5,17.85A9.11,9.11,0,0,1,59,26.94H16.31a9.11,9.11,0,0,1-9.08-9.09V14.57a9.11,9.11,0,0,1,9.08-9.08H59a9.11,9.11,0,0,1,9.08,9.08Z"/><rect class="cls-2" x="7.23" y="5.49" width="60.86" height="21.45" rx="9.08" ry="9.08"/><path class="cls-3" d="M15.28,9.85a1,1,0,0,1,.28-.71.88.88,0,0,1,.67-.28.93.93,0,0,1,.7.29,1,1,0,0,1,.28.7.94.94,0,0,1-.28.68,1,1,0,0,1-.7.29.87.87,0,0,1-.68-.28A1,1,0,0,1,15.28,9.85Zm.2,13.3V13.37h1.46v9.78Z"/><path class="cls-3" d="M32,11.09H26.12l0-.92h2.7a11.84,11.84,0,0,0-.74-1.73l.9-.27a15,15,0,0,1,.86,2H32Zm-.46,2.62h-5v-.94h5Zm0,2.49h-5v-.93h5Zm-.17,7.44h-.95V22.7H27.61v1.37h-1V18h4.69Zm-.95-1.89V19H27.61v2.77Zm11.35-1.68a7.32,7.32,0,0,1-.48,3.14,1.4,1.4,0,0,1-1.26.63H38.52a1,1,0,0,1-.73-.34,1.07,1.07,0,0,1-.33-.78V17.21H35.8a7.75,7.75,0,0,1-3.33,7.05l-.73-.69a6.11,6.11,0,0,0,2.38-2.66,7.93,7.93,0,0,0,.79-3.7H33.12V12.39h7.3v4.82h-2v5.38c0,.06,0,.12.13.19a.33.33,0,0,0,.23.11H40c.34,0,.55-.21.62-.63a22,22,0,0,0,.21-2.44ZM36,8.79a15.05,15.05,0,0,1-3.35,3.54l-.77-.7a12.94,12.94,0,0,0,3.37-3.37Zm3.47,7.41V13.4H34.1v2.8Zm2.32-4.65-.74.71A18.66,18.66,0,0,0,37.55,9l.65-.7A29.53,29.53,0,0,1,41.76,11.55Z"/><path class="cls-3" d="M50.89,21.54H50V20.33H46.44V22h-.93V9h5.38ZM50,14.08V9.91H46.44v4.17Zm0,5.32V15H46.44V19.4ZM60,22.61a1.47,1.47,0,0,1-.28.91,1.21,1.21,0,0,1-.7.49,14.2,14.2,0,0,1-2.66.06l-.4-.92c.41,0,.85,0,1.33,0a5.9,5.9,0,0,0,1.6-.11.4.4,0,0,0,.2-.37V18.28H53.8a13.55,13.55,0,0,1-2,5.85L51,23.58Q53,20.7,53.05,15.09V8.64h7Zm-.91-5.25V13.78H54c0,1.22,0,2.42-.11,3.58Zm0-4.48V9.55H54v3.33Z"/></svg>