<svg id="圖層_1" data-name="圖層 1" xmlns="http://www.w3.org/2000/svg" viewBox="0 0 49.73 49.71"><defs><style>.cls-1{fill:#fff;}</style></defs><title>查詢</title><polygon class="cls-1" points="19.91 32.22 17.48 29.78 14.75 32.5 17.19 34.94 19.91 32.22 19.91 32.22"/><path class="cls-1" d="M44.19,5.5a18.75,18.75,0,1,0,0,26.51h0a18.61,18.61,0,0,0,.17-26.33C44.3,5.61,44.25,5.55,44.19,5.5ZM41.45,29.25a14.85,14.85,0,1,1,0-21h0A14.85,14.85,0,0,1,41.45,29.25Z"/><path class="cls-1" d="M13.4,37.28l-9.5,9.5a.71.71,0,0,1-1,0,.68.68,0,0,1,0-1h0l9.51-9.5,1,1m3.83,0-4.82-4.82L1,43.89a3.4,3.4,0,0,0,4.81,4.82h0l11.42-11.4Z"/><path class="cls-1" d="M17.51,35.26l-3.08-3.09a1.22,1.22,0,0,0-1.7,0l-.3.31,4.81,4.82.29-.29a1.23,1.23,0,0,0,0-1.72Z"/></svg>