<svg id="圖層_1" data-name="圖層 1" xmlns="http://www.w3.org/2000/svg" viewBox="0 0 68.74 64.87"><defs><style>.cls-1{fill:#070001;}</style></defs><title>請假申請</title><path class="cls-1" d="M68.62,46.69c-.18-.61-4.69-14.46-15.37-15.71a27.68,27.68,0,0,0,2.53-11.5c0-5.83,0-19.48-15.35-19.48S25,14.14,25,19.48A27.34,27.34,0,0,0,27.52,31c-10.66,1.28-15.19,15.1-15.4,15.71a4.09,4.09,0,0,0-.15,1v6.73c0,6.56,8,9.88,9,10.24a2.88,2.88,0,0,0,1.16.22H58.59a2.93,2.93,0,0,0,1.17-.22c.92-.36,9-3.66,9-10.24V47.68A2.78,2.78,0,0,0,68.62,46.69ZM40.43,3.25c10.51,0,12.12,7.32,12.12,16.23s-5,17.81-12.12,17.81-12.23-9-12.23-17.81S29.9,3.25,40.43,3.25Zm25.1,51.21c0,4.49-6.94,7.2-6.94,7.2H22.09s-6.87-2.67-6.87-7.2V47.72S19.33,34.84,28.4,34.25c.63,3.46,5.52,7,12.08,7s11.22-3.66,11.94-7c9,.66,13.11,13.47,13.11,13.47Z"/><path class="cls-1" d="M25.28,29.77a29.66,29.66,0,0,1-1.35-4.7H16.55a1.72,1.72,0,0,1-1.73-1.72h0V10.82a1.73,1.73,0,1,1,3.45,0v10.8h5.17V19.37A32.15,32.15,0,0,1,25,8.15a16.7,16.7,0,1,0-16.65,29,16.46,16.46,0,0,0,5.61,2A20.46,20.46,0,0,1,25.28,29.77Z"/></svg>