<svg xmlns="http://www.w3.org/2000/svg" id="圖層_1" viewBox="0 0 55.8 54.2">
    <style>
        .st0{fill:#fff}
    </style>
    <path d="M54.6.4l-8.5 8.5C41.3 3.6 34.4.4 27 .4 16.8.4 7.5 6.4 3.3 15.8c-.3.7-.6 1.5-.9 2.3-.6 1.8.4 3.8 2.2 4.4.4.1.7.2 1.1.2 1.5 0 2.8-.9 3.3-2.4.2-.6.4-1.1.6-1.7 3-6.8 9.8-11.3 17.3-11.3 5.5 0 10.6 2.4 14.1 6.4l-8.6 8.6c-.7.7-.4 1.2.5 1.2h20.9c1 0 1.7-.8 1.7-1.7V.9c.3-1-.2-1.2-.9-.5zM48.6 34.2c-1.7-.9-3.8-.2-4.7 1.5C40.6 42.1 34.2 46 27 46c-4.9 0-9.5-1.9-12.9-5.2l9.1-9.1c.7-.7.4-1.2-.5-1.2h-21c-1 0-1.7.8-1.7 1.7v20.9c0 1 .6 1.2 1.2.5l7.9-7.9c4.8 4.6 11.1 7.2 17.9 7.2 9.8 0 18.6-5.4 23.1-14.1.9-1.6.2-3.7-1.5-4.6z" class="st0"/>
</svg>
