<svg id="圖層_1" data-name="圖層 1" xmlns="http://www.w3.org/2000/svg" viewBox="0 0 64.41 64.82"><defs><style>.cls-1{fill:#070001;}</style></defs><title>預排特休假</title><path class="cls-1" d="M52.81,19.78c3.64-3.64,6.59-2.4,11.44-.42-7.81-7.28-10.71-4.79-14.37-2.93-.38-2.51-1.35-3.64-5.17-4,.56,1,2.36,2.11,1.91,3.64a12.82,12.82,0,0,0-7-1.18,20,20,0,0,0-11.2-4.77c.29-3.65,9.23-3.65,13.38-.51-2-7-12.86-8.15-18.74-5.05C22.45,2.77,24.76,1.31,25.49,0c-4.95.27-6.21,1.82-6.68,5.14C14.07,2.71,10.32-.55.21,8.92,6.47,6.36,10.34,4.64,15,9.45,5.49,8-.45,9,0,19.4c2.09-4.77,9.63-6.92,13.68-5.78-6.87,5.91-8.4,13.3-.72,20.93C11.85,29.36,11.5,21.64,18.59,20c4.68,3,8.08,26.61,6.57,34a23.47,23.47,0,0,0-3.51,1.93c-1.21.86-6.32,4.74-1.93,4.81s3.4.71,6,3.12c4.26,4,14.06-5,17.43-2.15,4,3.37,11.44-6.87,5.19-5.63a3.39,3.39,0,0,1-3.2-1.24C43.61,49.85,46.31,30.42,50,28c5.47,1.25,5.21,7.28,4.32,11.23,6-5.9,4.75-11.6-.55-16.19,3.12-.87,9,.79,10.58,4.48.37-8-4.22-8.81-11.58-7.68Zm-8.72,3.28a41.41,41.41,0,0,0-5.47,5.12A22.83,22.83,0,0,0,37,25.08c2.82-1.49,5.47-2.44,7.07-2Zm-8.67-.31c-.86-1.13-1.83-2.2-2.7-3.21a11.4,11.4,0,0,1,6.19-1.31c1.1.69,2.17,1.42,3.15,2.15A16.41,16.41,0,0,0,35.42,22.75Zm-.09-6.61a6.39,6.39,0,0,0-2.86,3.06,55.5,55.5,0,0,0-6.09-5.58C28.31,13.1,31.74,14.28,35.33,16.14Zm1.82,36a7.65,7.65,0,0,0-.82.79C31,44.31,23.05,23.62,24.07,18.71a32.22,32.22,0,0,1,8.18,7,35.84,35.84,0,0,0-3.32,5.06,32,32,0,0,1,4.57-3.64c1,1.24,2,2.53,2.92,3.84-1.93,2.83-3.21,5.94-2.52,8.78,1.57-2.09,3-4.15,4.52-6l1.13,1.54a8.9,8.9,0,0,0,.2-3.13,24.49,24.49,0,0,1,6.12-5.17c.75,3.64-4.66,17.9-8.72,25.1Z"/></svg>