<svg id="圖層_1" data-name="圖層 1" xmlns="http://www.w3.org/2000/svg" viewBox="0 0 52.85 50.17"><defs><style>.cls-1{fill:#88bd43;}</style></defs><title>簽核完成</title><circle class="cls-1" cx="9.85" cy="28.82" r="3.2"/><circle class="cls-1" cx="20.14" cy="28.82" r="3.2"/><circle class="cls-1" cx="30.41" cy="28.82" r="3.2"/><path class="cls-1" d="M40.22,40.79v-.11h0V11.28a5,5,0,0,0-5-5,2.84,2.84,0,0,0-.65.1,4.9,4.9,0,0,0-4.38-2.6H28.77A5,5,0,0,0,23.88,0H16.35a5,5,0,0,0-4.9,3.77H10a4.89,4.89,0,0,0-4.36,2.6A3,3,0,0,0,5,6.27a5,5,0,0,0-5,5V45.15a5,5,0,0,0,5,5H35.13a5,5,0,0,0,5-5h0V41.56h0ZM10.09,6.32h3.79V5.06a2.52,2.52,0,0,1,2.5-2.5h7.53a2.52,2.52,0,0,1,2.51,2.5V6.32H30.2a2.51,2.51,0,0,1,.4,5H10.09a2.51,2.51,0,0,1,0-5ZM37.69,45.2a2.52,2.52,0,0,1-2.5,2.52H5.08a2.5,2.5,0,0,1-2.5-2.5V11.33a2.5,2.5,0,0,1,2.5-2.5,5,5,0,0,0,5,5h20.1a5,5,0,0,0,5-5,2.52,2.52,0,0,1,2.5,2.5v32h0v.87h0Z"/><path class="cls-1" d="M48.62,25.61a.67.67,0,0,1,.36.21l3.26,3.56a.74.74,0,0,1,.18.49.75.75,0,0,1-.23.47L37.41,44.26a.68.68,0,0,1-.58.16.6.6,0,0,1-.33-.18L26.26,33.87a.7.7,0,0,1-.2-.49.63.63,0,0,1,.2-.47l3.41-3.47a.66.66,0,0,1,.61-.18.63.63,0,0,1,.34.18l6.06,6.16a.75.75,0,0,0,.34.18.7.7,0,0,0,.59-.16l10.47-9.8a.7.7,0,0,1,.59-.18"/><path class="cls-1" d="M36.92,45h-.24a1,1,0,0,1-.57-.31L25.87,34.29a1.14,1.14,0,0,1-.35-.8,1.18,1.18,0,0,1,.35-.83l3.41-3.44a1.14,1.14,0,0,1,1.63,0L37,35.36h.1a.15.15,0,0,0,.16,0l10.47-9.8a1.23,1.23,0,0,1,.95-.3h0a1.08,1.08,0,0,1,.62.35l3.27,3.56a1.15,1.15,0,0,1,.31.83,1.21,1.21,0,0,1-.36.8L37.64,44.73A1.1,1.1,0,0,1,36.92,45ZM30.1,29.8a.29.29,0,0,0-.13,0l-3.42,3.47a.15.15,0,0,0,0,.13.33.33,0,0,0,0,.14L36.81,43.93h.08a.15.15,0,0,0,.16,0L51.88,30a.2.2,0,0,0,0-.15.19.19,0,0,0,0-.15l-3.26-3.56h-.2L38,36a1.11,1.11,0,0,1-1,.29,1.22,1.22,0,0,1-.59-.32l-6.06-6.14H30.1Z"/><path class="cls-1" d="M22.45,6.25A2.32,2.32,0,1,1,20.12,4h0a2.3,2.3,0,0,1,2.3,2.3Z"/></svg>