<svg xmlns="http://www.w3.org/2000/svg" id="圖層_1" viewBox="0 0 100 77.59">
    <style>
        .st0{fill:#fff}
    </style>
    <path d="M93.56 8.72v-.01H54.03c-.79.77-1.91 1.26-3.33 1.26-1.43 0-2.54-.49-3.34-1.26H6.44C2.88 8.71 0 11.6 0 15.15v56a6.45 6.45 0 0 0 6.44 6.45h87.12c3.56 0 6.44-2.88 6.44-6.44v-56c0-3.56-2.89-6.44-6.44-6.44zM96 71.15c0 1.35-1.1 2.44-2.44 2.44H6.44c-1.35 0-2.44-1.1-2.44-2.44v-56c0-1.34 1.09-2.43 2.44-2.43h87.12c1.35 0 2.44 1.09 2.44 2.43v56z" class="st0"/>
    <path d="M10.4 18.98V55.2h33.42V18.98H10.4zm30.63 32.87v-.01H13.18c.05-.36.11-2.32.18-2.67.84-4.36 3.03-7.71 11.41-8.22v-2.8c-2.83-1.31-4.86-4.87-4.86-8.43 0-4.49 3.22-7.29 7.19-7.29 3.98 0 7.2 2.8 7.2 7.29 0 3.56-2.03 7.12-4.86 8.43v2.8c8.21.51 10.49 3.76 11.37 8.02.08.42.16 2.43.22 2.87v.01zM50.98 19.08h38.75v4H50.98zM50.98 29.96h38.75v4H50.98zM50.98 40.83h38.75v4H50.98zM50.98 51.71h38.75v4H50.98zM10.23 62.58h79.5v4h-79.5zM69.69 0H30.31c-3.56 0-6.44 2.88-6.44 6.44v4.27h52.26V6.44c0-3.56-2.89-6.44-6.44-6.44zM50 9.38a2.88 2.88 0 1 1 .001-5.761A2.88 2.88 0 0 1 50 9.38z" class="st0"/>
</svg>
