<svg xmlns="http://www.w3.org/2000/svg" id="圖層_1" viewBox="0 0 49.73 49.71">
    <style>
        .st0{fill:#fff}
    </style>
    <path d="M19.91 32.22l-2.43-2.44-2.73 2.72 2.44 2.44 2.72-2.72z" class="st0"/>
    <path d="M44.19 5.5C36.87-1.82 25-1.83 17.67 5.49s-7.33 19.19-.01 26.52 19.19 7.33 26.52.01l.01-.01c7.32-7.22 7.4-19 .18-26.32l-.01-.01c-.06-.07-.11-.13-.17-.18zm-2.74 23.75c-5.8 5.8-15.2 5.8-21 0s-5.8-15.2 0-21 15.2-5.8 21 0c5.8 5.8 5.8 15.2 0 21zM13.4 37.28l-9.5 9.5c-.28.27-.72.27-1 0a.68.68 0 0 1-.04-.96l.04-.04 9.51-9.5 1 1m3.83 0l-4.82-4.82L1 43.89a3.398 3.398 0 0 0 0 4.81 3.407 3.407 0 0 0 4.81.01l11.42-11.4.01-.03z" class="st0"/>
    <path d="M17.51 35.26l-3.08-3.09a1.22 1.22 0 0 0-1.7 0l-.3.31 4.81 4.82.29-.29c.47-.48.47-1.24 0-1.72l-.02-.03z" class="st0"/>
</svg>
