<svg id="圖層_1" data-name="圖層 1" xmlns="http://www.w3.org/2000/svg" viewBox="0 0 131.37 29.83"><defs><style>.cls-1,.cls-2{fill:#fff;}.cls-2{fill-rule:evenodd;}</style></defs><title>新光人壽logo</title><path class="cls-1" d="M41.21,4.48c-2.72-2.12-9-3.71-16-4.18C24,.2,22.68.14,21.4.14S19.06.2,17.91.26h0C10.76.7,4.34,2.33,1.59,4.48A4,4,0,0,0,0,7.75a3.49,3.49,0,0,0,1.12,2.84c2.53,2.31,9.9,4.52,16.79,5.24A32.2,32.2,0,0,0,21.4,16c1.22,0,2.53-.09,3.81-.22,6.8-.69,14-2.93,16.44-5.21A3.52,3.52,0,0,0,42.8,7.75,4,4,0,0,0,41.21,4.48ZM35,10.62c-1.59,1.84-5.18,3.43-9.79,4a30.47,30.47,0,0,1-3.81.25,31.86,31.86,0,0,1-3.49-.22c-4.78-.57-8.49-2.16-10.14-4.06A4.33,4.33,0,0,1,6.87,8,4,4,0,0,1,8.52,4.82c1.74-1.34,5.15-2.7,9.39-3.31a34.29,34.29,0,0,1,3.49-.25,33.16,33.16,0,0,1,3.81.32,20.75,20.75,0,0,1,9.07,3.24A4.06,4.06,0,0,1,35.94,8,4.2,4.2,0,0,1,35,10.62Z"/><path class="cls-2" d="M24.61,5.83a2,2,0,0,0,.6-.15,4.74,4.74,0,0,0,.87-.44,3.86,3.86,0,0,0,.59-.62,2.39,2.39,0,0,0,0-1.13A2.54,2.54,0,0,0,26,3a1.32,1.32,0,0,0-.81,0,1.11,1.11,0,0,0-.47.37,3.49,3.49,0,0,0-1.06,2.49A2.86,2.86,0,0,0,24.61,5.83Zm-6.7-.43c.25.12.53.22.72.31s.59.15.68,0a1.74,1.74,0,0,0,0-1.06,3.38,3.38,0,0,0-.62-1.28,2.09,2.09,0,0,0-.78-.66l-.1,0a1,1,0,0,0-.87.1,1.34,1.34,0,0,0-.5,1.37A2.46,2.46,0,0,0,17.91,5.4Zm7.3,6h-.07a.53.53,0,0,1-.31-.49V8.79h1.93V6.55H25.21l-2.47,0,0-4H20.25v4l-2.34,0H16.1V8.79H18c0,.45-.06.94-.06,1.35,0,.12,0,.25-.06.37a5.71,5.71,0,0,1-.41,1.13c-.34.52-.69,1-1,1.52,0,.28.25.28.38.25a9,9,0,0,0,1.06-.62l1-.72a5.76,5.76,0,0,0,1.27-1.5,5.33,5.33,0,0,0,.72-1.33L21,8.83l1,0,.25.16,0,3.47a1.18,1.18,0,0,0,.72.9l1.53.06.75,0,.43,0a2.32,2.32,0,0,0,1.19-2Z"/><path class="cls-1" d="M36.77,20.34c0-.08.09-.21.18-.21h3.31c.09,0,.19.13.19.21v1.09h1V20.17a.83.83,0,0,0-.88-.86h-1.4a5.41,5.41,0,0,1-.34-.87H37.62a8.65,8.65,0,0,0,.34.87H36.62a.83.83,0,0,0-.88.86v1.26h1Zm-.87,2.85h1.39a3.31,3.31,0,0,0,1.08-2.46H37.28A3.28,3.28,0,0,1,35.9,23.19Zm3-2.46v1.48a.91.91,0,0,0,1,1h1.33l.25-.82H40.19a.2.2,0,0,1-.23-.21V20.73Zm-3.28,1.45c-.21.1-.5.24-.73.33V21h.59v-.85h-.59V18.44H33.7v1.69h-.92V21h.93v2a9.44,9.44,0,0,1-1,.35v.95l1-.37V26.1a.23.23,0,0,1-.25.23h-.67l.27.81h.89a.88.88,0,0,0,.91-.86V23.42l.73-.31Zm3.53,4.15V24.47h2.14v-.83H35.88v.83h2v1.86H35.5v.82h6v-.82Z"/><path class="cls-1" d="M29.1,25.94A13.89,13.89,0,0,0,29.76,24H28.59a7.72,7.72,0,0,1-.77,1.91ZM24.7,24H23.49a17.46,17.46,0,0,0,.72,1.91h1.3A11.06,11.06,0,0,1,24.7,24Zm2.62-.4h3.35v-.86H27.32V21.62h1.49v-.74c.4.48.59.69.75.85h1.6A17,17,0,0,1,29,19.16a1.13,1.13,0,0,0-.94-.58H25.24a1.14,1.14,0,0,0-.94.58,17,17,0,0,1-2.21,2.57h1.6c.16-.16.36-.37.75-.84v.73h1.49v1.15H22.58v.86h3.35v2.65H22.29v.86H31v-.86H27.32Zm-2.76-2.88c.23-.28.54-.65.93-1.15a.37.37,0,0,1,.34-.17h1.61a.35.35,0,0,1,.33.17l.93,1.15Z"/><path class="cls-1" d="M1.29,26.85H2.36A19.65,19.65,0,0,0,3,24H2A23.93,23.93,0,0,1,1.29,26.85ZM6,22.76H4.4V22.1H6v-.83H5.2c.11-.38.22-.83.3-1.21h.41v-.83H4.37a7.83,7.83,0,0,1-.28-.81H2.92c.07.25.17.56.27.81H1.68v.83H2.1c.08.38.18.83.29,1.21H1.6v.83H3.25v.66H1.6v.83H3.25v3.54H4.4V23.59H6ZM4.23,21.27H3.35c-.1-.37-.21-.86-.27-1.21H4.52C4.45,20.41,4.34,20.9,4.23,21.27Zm3.39,0V20a.2.2,0,0,1,.18-.21,15.49,15.49,0,0,0,2.27-.47v-.82c-.94.2-2,.39-3,.54a.65.65,0,0,0-.41.21.81.81,0,0,0-.19.52v4a6.3,6.3,0,0,1-.75,3.3H7a9,9,0,0,0,.67-3.91v-1.1h.87v5H9.65v-5h.54v-.83Zm-2,2.7h-1A18.54,18.54,0,0,0,5,26.2H6A14.72,14.72,0,0,1,5.63,24Z"/><path class="cls-1" d="M20,18.89H18.77a8.53,8.53,0,0,1-1.18,2.61h1.35A9.68,9.68,0,0,0,20,18.89ZM14.89,21.5a12.12,12.12,0,0,1-1.21-2.61H12.45a14.3,14.3,0,0,0,1.13,2.61Zm3.72,4.74a.31.31,0,0,1-.33-.32v-3h2.26V22H16.88V18.4H15.55V22H11.84v.88h2.28a4.22,4.22,0,0,1-2.48,4.24h1.94c.66-.46,1.9-1.43,1.84-4.24H17v3.17c0,.78.44,1.07.92,1.07h2.55l.38-.89Z"/><rect class="cls-1" x="50.74" y="0.14" width="2.38" height="26.99"/></svg>