<svg xmlns="http://www.w3.org/2000/svg" id="圖層_1" viewBox="0 0 99.2 99.2">
    <style>
        .st0{fill:#fff}
    </style>
    <path d="M96.1 0H58.9c-1.7 0-2.1 1-.9 2.2l13.4 13.4-32 31.8c-1.2 1.2-1.2 3.2 0 4.4l8 8c1.2 1.2 3.2 1.2 4.4 0l32.6-31.2L97 41.2c1.2 1.2 2.2.8 2.2-.9V3.1c0-1.7-1.4-3.1-3.1-3.1z" class="st0"/>
    <path d="M74.4 99.2H18.6C8.3 99.2 0 90.9 0 80.6V24.8C0 14.5 8.3 6.2 18.6 6.2h21.2c3.4 0 6.2 2.8 6.2 6.2 0 3.4-2.8 6.2-6.2 6.2H18.6c-3.4 0-6.2 2.8-6.2 6.2v55.8c0 3.4 2.8 6.2 6.2 6.2h55.8c3.4 0 6.2-2.8 6.2-6.2V59.8c0-3.4 2.8-6.2 6.2-6.2 3.4 0 6.2 2.8 6.2 6.2v20.8c0 10.3-8.3 18.6-18.6 18.6z" class="st0"/>
</svg>
