<svg xmlns="http://www.w3.org/2000/svg" id="圖層_1" viewBox="0 0 93.16 93.16">
    <style>
        .st0{fill:#1d2975}
    </style>
    <path d="M46.58 0C20.86 0 0 20.86 0 46.58s20.86 46.58 46.58 46.58S93.16 72.3 93.16 46.58 72.31 0 46.58 0zm-5.8 15.45c1.47-1.53 3.28-2.3 5.43-2.3s3.96.77 5.43 2.3c1.47 1.41 2.21 3.16 2.21 5.25s-.74 3.9-2.21 5.43c-1.47 1.47-3.29 2.21-5.43 2.21-2.15 0-3.96-.74-5.43-2.21-1.54-1.53-2.3-3.35-2.3-5.43 0-2.09.76-3.84 2.3-5.25zm18.14 64.56H34.24V76.7h1.29c1.29 0 2.45-.43 3.5-1.29 1.04-.92 1.57-1.9 1.57-2.95V42.8c0-2.39-1.2-3.59-3.59-3.59h-.37V37c4.79 0 9.24-1.1 13.35-3.32.8-.43 1.26-.65 1.38-.65.67 0 1.01.46 1.01 1.38v38.04c0 1.05.52 2.03 1.57 2.95 1.04.86 2.21 1.29 3.5 1.29h1.47v3.32z" class="st0"/>
</svg>
