<svg xmlns="http://www.w3.org/2000/svg" id="圖層_1" data-name="圖層 1" viewBox="0 0 49.73 49.71">
    <defs>
        <style>
            .cls-1{fill:#070001}
        </style>
    </defs>
    <path d="M19.91 32.22l-2.43-2.44-2.73 2.72 2.44 2.44 2.72-2.72z" class="cls-1"/>
    <path d="M44.19 5.5a18.75 18.75 0 1 0 0 26.51 18.61 18.61 0 0 0 .17-26.33c-.06-.07-.11-.13-.17-.18zm-2.74 23.75a14.85 14.85 0 1 1 0-21 14.85 14.85 0 0 1 0 21zM13.4 37.28l-9.5 9.5a.71.71 0 0 1-1 0 .68.68 0 0 1 0-1l9.51-9.5 1 1m3.83 0l-4.82-4.82L1 43.89a3.4 3.4 0 0 0 4.81 4.82l11.42-11.4z" class="cls-1"/>
    <path d="M17.51 35.26l-3.08-3.09a1.22 1.22 0 0 0-1.7 0l-.3.31 4.81 4.82.29-.29a1.23 1.23 0 0 0 0-1.72z" class="cls-1"/>
</svg>
