<svg xmlns="http://www.w3.org/2000/svg" id="圖層_1" viewBox="0 0 94.4 97.3">
    <style>
        .st0{fill:#eb6868}.st1{fill:#fff}.st2{font-family:&apos;MicrosoftJhengHeiRegular&apos;}.st3{font-size:19.6902px}
    </style>
    <path d="M39.1 71.2l-6.3-16.5c-1 .9-2.2 1.6-3.5 2l-1.2 16.6.4.9c.1.2.1.3.1.5l.3 17.1c.1 3.1 2.7 5.6 5.8 5.4 3-.1 5.3-2.8 5.2-5.8-.1-4.8-.3-14.4-.3-17.8 0-.7-.2-1.6-.5-2.4zM47.5 12.5c-1.7 4.9-7 7.5-11.9 5.8-4.9-1.7-7.5-7-5.8-11.9 1.7-4.9 7-7.5 11.9-5.8 4.9 1.6 7.5 6.9 5.8 11.9zM43.4 52.2L33 40.4c-.2-.2-.2-.5-.1-.7l3.7-10.9c.7-2-.4-4.2-2.4-4.9-2-.7-4.2.4-4.9 2.4l-4.6 13.6c-.4 1.2-.1 2.5.7 3.5l12.1 13.9c1.2 1.4 3.4 1.6 4.8.3l.7-.6c1.5-1.2 1.6-3.3.4-4.8z" class="st0"/>
    <path d="M24.7 44.1c-1.1-1.2-1.4-2.9-.9-4.4L28.4 26c.7-1.9 2.5-3.3 4.6-3.3.5 0 1.1.1 1.6.3 2.5.9 3.9 3.6 3 6.1l-3.7 10.7 3.1 3.5 4.1-12c1.5-4.3-.8-8.9-5.1-10.4l-2.3-.8c-4.3-1.5-8.9.8-10.4 5.1l-6.6 19.3c-.9 2.6-.4 5.3 1 7.3l-1 14.6c0 .1-.1.2-.2.1l-7.7-5C6.2 60 2.7 60.5 1 63c-1.8 2.6-1.1 6.1 1.5 7.8l13.6 8.8c4.6 3 10.7-.1 11.1-5.5l1.3-18c1.7-.4 3.3-1.3 4.4-2.6l-8.2-9.4z" class="st0"/>
    <path d="M16.4 42.3l4.9-14.2-4.4 3.8c-3 2.6-3.3 7.1-.7 10.1l.2.3z" class="st0"/>
    <g>
        <path d="M35.8 65.4l-1.1-1.1c-.4-.4-.4-1.1 0-1.5L59.5 38c.4-.4 1.1-.4 1.5 0l1.1 1.1c.4.4.4 1.1 0 1.5L37.3 65.4c-.4.4-1.1.4-1.5 0z" class="st0"/>
        <path d="M47.9 15.7h41.4v31.7H47.9z" class="st0" transform="rotate(45.001 68.573 31.522)"/>
        <text class="st1 st2 st3" transform="rotate(45.001 -8.372 88.677)">
            1
        </text>
    </g>
</svg>
