<svg xmlns="http://www.w3.org/2000/svg" viewBox="0 0 72.1 72.1">
    <path d="M36 66.7C19.1 66.7 5.3 53 5.3 36 5.3 19.1 19.1 5.3 36 5.3c17 0 30.7 13.8 30.7 30.7C66.7 53 53 66.7 36 66.7zM36 0C16.2 0 0 16.2 0 36c0 19.9 16.2 36 36 36 19.9 0 36-16.2 36-36 .1-19.8-16.1-36-36-36z"/>
    <path d="M36 14.2c1 0 1.8-.8 1.8-1.8V8.9c0-1-.8-1.8-1.8-1.8s-1.8.8-1.8 1.8v3.5c.1 1 .9 1.8 1.8 1.8zM36 57.5c-1 0-1.8.8-1.8 1.8v3.5c0 1 .8 1.8 1.8 1.8s1.8-.8 1.8-1.8v-3.5c0-1-.8-1.8-1.8-1.8zM12.6 34.1H9.1c-1 0-1.8.8-1.8 1.8s.8 1.8 1.8 1.8h3.5c1 0 1.8-.8 1.8-1.8s-.8-1.8-1.8-1.8zM63 34.1h-3.5c-1 0-1.8.8-1.8 1.8s.8 1.8 1.8 1.8H63c1 0 1.8-.8 1.8-1.8s-.8-1.8-1.8-1.8zM37.8 32.1V20.8c0-1-.8-1.8-1.8-1.8s-1.8.8-1.8 1.8v11.3c-1.9 1-2.8 3.2-1.9 5.3L17.4 49c-.8.6-.9 1.7-.3 2.5.6.8 1.7.9 2.5.3l15.6-12.1c4.6 1.1 6.9-5.5 2.6-7.6z"/>
</svg>
