<svg id="圖層_1" data-name="圖層 1" xmlns="http://www.w3.org/2000/svg" viewBox="0 0 346.89 62.39"><defs><style>.cls-1,.cls-4{fill:#fff;}.cls-1,.cls-2{stroke:#eb6868;stroke-miterlimit:10;}.cls-1{stroke-width:0.81px;}.cls-2{fill:#eb6868;}.cls-3{fill:#ccc;}.cls-4,.cls-5{isolation:isolate;font-size:14px;font-family:MicrosoftJhengHeiBold, Microsoft JhengHei;letter-spacing:0.07em;}.cls-5{fill:#040000;}</style></defs><title>步驟</title><polygon class="cls-1" points="346.44 31.2 330.05 0.51 330.05 0.5 247.59 0.5 247.59 61.89 330.05 61.89 330.05 61.89 346.44 31.2"/><polygon class="cls-1" points="264.23 31.2 247.85 0.51 247.85 0.5 165.39 0.5 165.39 61.89 247.85 61.89 247.85 61.89 264.23 31.2"/><polygon class="cls-1" points="182.03 31.2 165.65 0.51 165.65 0.5 83.19 0.5 83.19 61.89 165.65 61.89 165.65 61.89 182.03 31.2"/><polygon class="cls-2" points="99.35 31.2 82.97 0.51 82.97 0.5 0.5 0.5 0.5 61.89 82.97 61.89 82.97 61.89 99.35 31.2"/><path class="cls-3" d="M52.89,22.2a10,10,0,1,1-10-10A10,10,0,0,1,52.89,22.2ZM41.73,27.49l7.42-7.42a.65.65,0,0,0,0-.91l-.91-.91a.65.65,0,0,0-.91,0l-6,6.05-2.82-2.82a.65.65,0,0,0-.91,0l-.91.91a.65.65,0,0,0,0,.91l4.19,4.19a.63.63,0,0,0,.9,0Z"/><text class="cls-4" transform="translate(12.09 49.34)">請假資訊</text><path class="cls-3" d="M143.23,22.2a10,10,0,1,1-10-10A10,10,0,0,1,143.23,22.2Zm-11.16,5.29,7.42-7.42a.65.65,0,0,0,0-.91l-.91-.91a.65.65,0,0,0-.91,0l-6,6.05-2.82-2.82a.65.65,0,0,0-.91,0l-.91.91a.65.65,0,0,0,0,.91l4.19,4.19a.63.63,0,0,0,.9,0Z"/><text class="cls-5" transform="translate(102.43 49.34)">申請類別</text><path class="cls-3" d="M226.56,22.2a10,10,0,1,1-10-10A10,10,0,0,1,226.56,22.2Zm-11.15,5.29,7.42-7.42a.65.65,0,0,0,0-.91l-.91-.91a.65.65,0,0,0-.91,0l-6,6.05-2.82-2.82a.65.65,0,0,0-.91,0l-.91.91a.65.65,0,0,0,0,.91l4.19,4.19a.63.63,0,0,0,.9,0Z"/><text class="cls-5" transform="translate(185.76 49.34)">請假區間</text><path class="cls-3" d="M309.9,22.2a10,10,0,1,1-10-10A10,10,0,0,1,309.9,22.2Zm-11.16,5.29,7.42-7.42a.65.65,0,0,0,0-.91l-.91-.91a.65.65,0,0,0-.91,0l-6,6.05-2.82-2.82a.65.65,0,0,0-.91,0l-.91.91a.65.65,0,0,0,0,.91l4.19,4.19a.63.63,0,0,0,.9,0Z"/><text class="cls-5" transform="translate(269.1 49.34)">證明文件</text></svg>