<svg id="圖層_1" data-name="圖層 1" xmlns="http://www.w3.org/2000/svg" viewBox="0 0 346.89 62.39"><defs><style>.cls-1{fill:#eb6868;stroke:#de6664;}.cls-1,.cls-2{stroke-miterlimit:10;}.cls-2,.cls-6{fill:#fff;}.cls-2{stroke:#eb6868;stroke-width:0.81px;}.cls-3{fill:#8cc63f;}.cls-4,.cls-6{isolation:isolate;font-size:14px;font-family:MicrosoftJhengHeiBold, Microsoft JhengHei;letter-spacing:0.07em;}.cls-4{fill:#040000;}.cls-5{fill:#ccc;}</style></defs><title>步驟</title><polygon class="cls-1" points="347.05 31.2 329.94 0.51 329.94 0.5 220.36 0.5 220.36 61.89 329.94 61.89 329.94 61.89 347.05 31.2"/><polygon class="cls-2" points="236.12 31.2 220.01 0.51 220.01 0.5 110.43 0.5 110.43 61.89 220.01 61.89 220.01 61.89 236.12 31.2"/><polygon class="cls-2" points="126.19 31.2 110.08 0.51 110.08 0.5 0.5 0.5 0.5 61.89 110.08 61.89 110.08 61.89 126.19 31.2"/><path class="cls-3" d="M74.16,22.2a10,10,0,1,1-10-10A10,10,0,0,1,74.16,22.2ZM63,27.49l7.42-7.42a.65.65,0,0,0,0-.91l-.91-.91a.65.65,0,0,0-.91,0l-6,6.05-2.82-2.82a.65.65,0,0,0-.91,0l-.91.91a.65.65,0,0,0,0,.91l4.19,4.19a.63.63,0,0,0,.9,0Z"/><text class="cls-4" transform="translate(33.36 49.34)">請假資訊</text><path class="cls-3" d="M184.09,22.2a10,10,0,1,1-10-10A10,10,0,0,1,184.09,22.2Zm-11.16,5.29,7.42-7.42a.65.65,0,0,0,0-.91l-.91-.91a.65.65,0,0,0-.91,0l-6.05,6.05-2.82-2.82a.65.65,0,0,0-.91,0l-.91.91a.65.65,0,0,0,0,.91L172,27.49a.63.63,0,0,0,.9,0Z"/><text class="cls-4" transform="translate(143.29 49.34)">申請類別</text><path class="cls-5" d="M294.51,22.2a10,10,0,1,1-10-10A10,10,0,0,1,294.51,22.2Zm-11.15,5.29,7.42-7.42a.65.65,0,0,0,0-.91l-.91-.91a.65.65,0,0,0-.91,0l-6,6.05-2.82-2.82a.65.65,0,0,0-.91,0l-.91.91a.65.65,0,0,0,0,.91l4.19,4.19a.63.63,0,0,0,.9,0Z"/><text class="cls-6" transform="translate(253.72 49.34)">請假區間</text></svg>