<svg xmlns="http://www.w3.org/2000/svg" id="圖層_1" viewBox="0 0 84.46 85.2">
    <style>
        .st0{fill:#ec6968}.st1{font-family:&apos;ArialRoundedMTBold&apos;}.st2{font-size:33.7131px}
    </style>
    <text class="st0 st1 st2" transform="translate(30.312 37.029)">
        2
    </text>
    <path d="M82.84 39.73l.02-.02-.18-.17V0H1.01v39.9c0 .04 0 .08.01.12-.25.44-.44.89-.56 1.33-.97 3.61-.2 7.28.56 10.82l.02.11c.1.49.21.97.3 1.45 1.98 9.85 5.09 19.49 9.23 28.65l.19.42 2.22-1-.19-.42C8.73 72.4 5.68 62.94 3.73 53.26l-.33-1.59c-.69-3.26-1.41-6.64-.59-9.68.3-1.12 1.52-2.46 2.5-2.39 1.22.06 1.58 2.66 1.66 3.45.49 4.74 1.1 9.32 3.21 13.14-.59 1.39-.73 2.87-.86 4.18-.09.93-.2 2.08.33 3.19.65 1.37 2.22 2.29 3.98 2.34.95.03 1.87-.18 2.66-.42.83 2.67 1.69 4.98 3.06 7.43 1.71 3.07 4.51 5.76 8.34 7.99 4.8 2.81 10.13 4.29 15.42 4.29 3.27 0 6.39-.57 9.28-1.69 4.02-1.56 7.74-4.38 10.47-7.93 2.41-3.13 3.88-6.62 4.28-10.13.12.03.23.06.35.08.69.12 1.25.18 2.13-.11 1.83-.61 3.5-1.76 4.7-3.22 1.34-1.63 2-3.5 1.89-5.4-.05-.87-.25-1.58-.62-2.19-.04-.07-.08-.14-.13-.2 1.12-2.06 1.47-5.51 1.49-7.29l.01-.37c.02-1.68.04-3.42.82-4.69.39-.64 1.19-1.15 1.95-1.24.46-.06.83.05 1.09.31.33.34.51.91.65 1.49.89 3.63.69 7.77-.59 12.3-1.16 4.1-3.06 8.05-4.89 11.88L71.09 77l2.19 1.05 4.9-10.21c1.88-3.91 3.82-7.96 5.04-12.27 1.4-4.94 1.6-9.49.61-13.54-.17-.74-.43-1.59-.99-2.3zm-10.22 12.9c.51-.96.73-1.95.65-2.96-.06-.77-.3-1.53-.71-2.27h1.97c-.06 1.81-.42 4.15-1.01 5.5-.29-.11-.58-.2-.9-.27zm-61.35.11c-.56-1.5-.98-3.22-1.31-5.34h1.71c-.74 1.88-.87 3.73-.4 5.34zm.51 1.22s0-.01 0 0c0-.01 0 0 0 0zm58.01-1.51c-.7.02-1.21.07-1.84.32-1.17-1.71-2.67-3.4-4.95-3.67-.86-.1-1.66.03-2.44.17-.78.13-1.52.26-2.08.06-.31-.11-.64-.34-.99-.59-.49-.34-1.03-.73-1.73-.94-1.58-.49-3.07.18-4.27.71-.81.36-1.57.7-2.27.7-.56 0-1.21-.23-1.89-.47-1.13-.4-2.54-.9-3.98-.32-.86.35-1.46.99-1.95 1.52-.34.37-.66.71-.99.88-.77.41-1.91.11-3.13-.21-1.63-.43-3.67-.95-5.27.44-.2.18-.38.37-.53.55-.14.16-.27.31-.37.37-.3.19-.86-.1-1.73-.6-.7-.4-1.41-.8-2.25-.98-2.14-.44-3.92.96-5.35 2.08-1.19.94-2.31 1.83-3.35 1.58-.31-.08-.66-.28-1.03-.49-.48-.28-.99-.56-1.61-.72-.32-.08-.64-.12-.97-.12-.3 0-.6.03-.9.1-1.14-2.02-.12-4.44.41-5.43H69.5c.45.44 1.25 1.36 1.34 2.46.06.86-.29 1.72-1.05 2.6zM11.75 60.6c.13-1.34.27-2.85.93-3.99.51-.87 1.59-1.64 2.51-1.4.31.08.65.28 1.02.49.47.27 1.01.58 1.65.73 2.17.54 3.98-.89 5.44-2.04 1.19-.94 2.31-1.82 3.35-1.61.45.09 1 .41 1.54.71 1.13.64 2.67 1.52 4.22.54.4-.25.68-.57.91-.83.1-.12.2-.23.3-.31.54-.48 1.35-.37 3.06.08 1.53.4 3.27.85 4.87 0 .69-.37 1.19-.9 1.64-1.38.37-.4.72-.77 1.08-.92.58-.24 1.36.04 2.26.36.84.3 1.72.61 2.7.61 1.21 0 2.25-.47 3.26-.92.99-.44 1.85-.83 2.56-.61.32.1.67.34 1.04.61.47.33.95.67 1.58.89 1.16.41 2.3.22 3.3.04.63-.11 1.23-.21 1.75-.15 1.58.2 2.78 1.91 3.78 3.5.35.56 1.07.73 1.64.4.85-.5.96-.5 1.98-.53l.26-.01c.94-.03 2.59.06 3.15 1 .15.26.25.62.27 1.08.16 2.88-2.42 5.33-4.93 6.17-.33.11-.43.11-.94.02-.26-.05-.53-.17-1.05-.65a1.23 1.23 0 0 0-1.32-.22c-.44.2-.73.64-.72 1.13.04 3.59-1.34 7.39-3.89 10.71-2.46 3.21-5.81 5.75-9.42 7.15-6.94 2.69-15.39 1.78-22.6-2.43-3.44-2.01-5.95-4.39-7.44-7.08-1.41-2.54-2.22-4.82-3.22-8.14-.1-.32-.32-.58-.61-.73-.17-.09-.36-.13-.55-.13-.14 0-.27.02-.4.07-.99.35-2 .71-2.99.69-.68-.02-1.55-.33-1.85-.96-.24-.48-.2-1.13-.12-1.94zM9.61 44.8c-.08-.66-.15-1.32-.22-2-.36-3.51-1.76-5.51-3.96-5.63-.6-.03-1.22.1-1.82.38V2.6h76.47v35.77c-.21 0-.41 0-.62.03-1.49.17-2.95 1.11-3.74 2.39-.8 1.3-1.03 2.78-1.12 4.01H9.61z" class="st0"/>
    <path d="M31.92 64.62c2.19 0 3.97-1.78 3.97-3.97s-1.78-3.97-3.97-3.97-3.97 1.78-3.97 3.97 1.79 3.97 3.97 3.97zM52.71 64.62c2.19 0 3.97-1.78 3.97-3.97s-1.78-3.97-3.97-3.97c-2.19 0-3.97 1.78-3.97 3.97s1.78 3.97 3.97 3.97zM43.36 76.53c3.58 0 6.48-2.91 6.48-6.48 0-.67-.55-1.22-1.22-1.22H38.1c-.67 0-1.22.55-1.22 1.22 0 3.57 2.91 6.48 6.48 6.48zm-3.86-5.26h7.73c-.52 1.67-2.07 2.83-3.87 2.83s-3.34-1.16-3.86-2.83z" class="st0"/>
</svg>
