<svg xmlns="http://www.w3.org/2000/svg" id="圖層_1" viewBox="0 0 84.46 85.2">
    <style>
        .st0{fill:#cecece}.st1{font-family:&apos;ArialRoundedMTBold&apos;}.st2{font-size:33.7131px}
    </style>
    <path d="M83.85 42.05c-.18-.75-.45-1.6-1.01-2.31l.02-.02-.18-.18V0H1.01v39.9c0 .04 0 .08.01.12-.25.44-.44.88-.56 1.33-.97 3.61-.19 7.28.56 10.82.11.52.22 1.05.33 1.56 1.99 9.85 5.09 19.49 9.23 28.65l.19.42 2.22-1-.19-.42C8.73 72.4 5.68 62.94 3.73 53.27c-.1-.49-.2-.97-.31-1.46l-.02-.13c-.69-3.26-1.41-6.64-.59-9.68.3-1.12 1.53-2.46 2.5-2.39 1.22.06 1.58 2.66 1.66 3.45.49 4.74 1.1 9.32 3.21 13.14-.59 1.39-.73 2.87-.85 4.18-.08.88-.2 2.08.33 3.19.65 1.37 2.22 2.29 3.98 2.34.96.03 1.87-.18 2.66-.42.83 2.66 1.69 4.97 3.06 7.43 1.71 3.07 4.51 5.76 8.34 7.99 4.8 2.81 10.13 4.29 15.42 4.29 3.27 0 6.39-.57 9.28-1.69 4.02-1.56 7.74-4.38 10.47-7.93 2.41-3.13 3.88-6.62 4.28-10.13.12.03.23.06.35.08.7.12 1.25.18 2.13-.11 1.83-.61 3.49-1.76 4.7-3.22 1.34-1.63 2-3.5 1.89-5.4-.05-.86-.25-1.58-.62-2.19-.04-.07-.08-.14-.13-.2 1.12-2.06 1.46-5.5 1.49-7.29v-.37c.02-1.68.04-3.42.82-4.69.39-.64 1.19-1.15 1.95-1.24.46-.06.83.05 1.09.31.33.34.51.92.65 1.49.89 3.63.69 7.77-.59 12.3-1.16 4.11-3.06 8.06-4.89 11.88l-4.9 10.21 2.19 1.05 4.91-10.22c1.88-3.91 3.82-7.96 5.04-12.26 1.4-4.93 1.61-9.49.62-13.53zM72.62 52.63c.51-.96.73-1.95.65-2.96-.06-.77-.3-1.53-.71-2.27h1.98c-.06 1.81-.42 4.15-1.01 5.5-.29-.11-.6-.2-.91-.27zm-61.35.11c-.56-1.5-.98-3.22-1.31-5.33h1.71c-.74 1.87-.87 3.72-.4 5.33zm58.52-.29c-.7.02-1.21.07-1.84.32-1.17-1.71-2.67-3.4-4.95-3.67-.87-.1-1.66.04-2.44.17s-1.52.26-2.08.06c-.31-.11-.64-.34-.99-.59-.48-.34-1.03-.73-1.72-.94-1.59-.49-3.08.18-4.27.71-.81.36-1.57.7-2.27.7-.56 0-1.21-.23-1.89-.47-1.13-.4-2.54-.9-3.98-.32-.86.35-1.46.99-1.95 1.52-.34.37-.66.71-.99.88-.77.41-1.91.11-3.13-.21-1.64-.43-3.67-.95-5.27.44-.2.17-.37.36-.53.55-.14.16-.27.31-.37.37-.3.19-.86-.1-1.73-.6-.7-.4-1.41-.8-2.25-.98-2.15-.44-3.92.96-5.35 2.08-1.19.94-2.31 1.83-3.35 1.58-.31-.08-.66-.28-1.03-.49-.46-.26-.99-.56-1.61-.73-.32-.08-.64-.12-.97-.12-.3 0-.6.03-.9.1-1.14-2.02-.12-4.44.41-5.43H69.5c.45.44 1.25 1.36 1.34 2.46.06.87-.29 1.73-1.05 2.61zm-58.04 8.16c.13-1.34.27-2.86.93-3.99.51-.87 1.59-1.64 2.51-1.4.31.08.65.27 1.01.48.47.27 1.01.58 1.65.74 2.18.53 3.99-.89 5.44-2.04 1.19-.94 2.3-1.82 3.35-1.61.45.09 1 .4 1.53.71 1.13.64 2.67 1.52 4.22.54.4-.25.68-.57.91-.83.1-.12.2-.23.3-.32.54-.48 1.35-.37 3.06.08 1.53.4 3.27.85 4.87 0 .69-.37 1.19-.9 1.64-1.38.37-.4.72-.77 1.08-.92.59-.24 1.36.04 2.26.36.84.3 1.72.61 2.7.61 1.21 0 2.25-.47 3.26-.92.99-.44 1.85-.83 2.56-.61.32.1.67.34 1.04.6.45.32.95.67 1.58.9 1.16.41 2.3.22 3.3.04.63-.11 1.23-.21 1.75-.15 1.6.2 2.8 1.91 3.8 3.5.35.56 1.07.73 1.64.4.85-.5.96-.5 1.97-.53l.26-.01c.93-.03 2.58.06 3.15 1 .16.26.25.62.27 1.08.16 2.88-2.42 5.33-4.93 6.17-.33.11-.42.11-.94.02-.26-.05-.53-.17-1.05-.65-.36-.33-.87-.42-1.32-.22-.44.2-.73.64-.72 1.13.04 3.59-1.34 7.39-3.89 10.71-2.47 3.21-5.81 5.75-9.42 7.15-6.94 2.69-15.39 1.78-22.6-2.43-3.44-2.01-5.95-4.39-7.44-7.08-1.41-2.54-2.22-4.82-3.22-8.14-.1-.32-.32-.58-.61-.73-.17-.09-.36-.13-.55-.13-.14 0-.27.02-.4.07-.99.35-1.99.72-2.99.69-.68-.02-1.55-.33-1.85-.96-.23-.48-.19-1.13-.11-1.93zM9.61 44.8c-.08-.66-.15-1.32-.22-2-.36-3.51-1.76-5.51-3.96-5.63-.59-.03-1.22.1-1.82.38V2.6h76.47v35.77c-.2 0-.41 0-.62.03-1.49.17-2.96 1.11-3.74 2.39-.8 1.3-1.03 2.78-1.12 4.01H9.61z" class="st0"/>
    <path d="M31.92 64.62c2.19 0 3.97-1.78 3.97-3.97s-1.78-3.97-3.97-3.97-3.97 1.78-3.97 3.97 1.79 3.97 3.97 3.97zM52.71 64.62c2.19 0 3.97-1.78 3.97-3.97s-1.78-3.97-3.97-3.97c-2.19 0-3.97 1.78-3.97 3.97s1.78 3.97 3.97 3.97zM43.36 76.53c3.58 0 6.49-2.91 6.49-6.48 0-.67-.55-1.22-1.22-1.22H38.09c-.67 0-1.22.55-1.22 1.22.01 3.57 2.92 6.48 6.49 6.48zm-3.86-5.26h7.73c-.52 1.67-2.07 2.83-3.87 2.83s-3.34-1.16-3.86-2.83z" class="st0"/>
    <text class="st0 st1 st2" transform="translate(30.311 37.029)">
        3
    </text>
</svg>
