<svg xmlns="http://www.w3.org/2000/svg" id="圖層_1" data-name="圖層 1" viewBox="0 0 98.71 99.25">
    <defs>
        <style>
            .cls-1{fill:#040000}
        </style>
    </defs>
    <path d="M97.31 89.51c-1.69-5.18-23.17-11.9-33.51-15.94a3.13 3.13 0 0 1-.81-.66A32.63 32.63 0 0 1 48.77 76a31.88 31.88 0 0 1-13.11-2.77 2.77 2.77 0 0 1-1.18.7C28.1 75.83 4.84 84.9 2 89.51a13.48 13.48 0 0 0-1.73 9.74h98.36a24 24 0 0 0-1.32-9.74zM74.1 32.55c-2.74 18.15-11.34 31-25.33 31s-22.34-13.39-24.56-31C22 14.71 34.76 0 48.77 0s28 14.78 25.33 32.55z" class="cls-1"/>
</svg>
