<svg xmlns="http://www.w3.org/2000/svg" id="圖層_1" data-name="圖層 1" viewBox="0 0 86.84 99.25">
    <defs>
        <style>
            .cls-1{fill:#040000}
        </style>
    </defs>
    <path d="M35.46 86.84l2.06-13.17a11.83 11.83 0 0 1-6.47-10.53 12.48 12.48 0 0 1 25-.09 12 12 0 0 1-6.51 10.66l1.87 13.13zm-3.78-69.61c2.92-3.25 6.76-4.82 11.74-4.82 5.2 0 9.17 1.62 12.14 4.95 5.76 6.47 6.9 18.29 6.81 26.06H24.55c0-7.83 1.29-19.71 7.13-26.19zm49 26.19h-5.9c.09-8.93-1.17-24.4-9.92-34.27C59.47 3.08 52.27 0 43.42 0c-8.58 0-15.63 3-21 8.92-8.88 9.86-10.3 25.54-10.31 34.5H6.2a6.22 6.22 0 0 0-6.2 6.2V93a6.23 6.23 0 0 0 6.2 6.21h74.44a6.23 6.23 0 0 0 6.2-6.21V49.62a6.22 6.22 0 0 0-6.2-6.2z" class="cls-1"/>
</svg>
