<svg xmlns="http://www.w3.org/2000/svg" id="圖層_1" viewBox="0 0 64.4 64.8">
    <style>
        .st0{fill:#fff}
    </style>
    <path d="M52.8 19.8c3.6-3.6 6.6-2.4 11.4-.4-7.8-7.3-10.7-4.8-14.4-2.9-.4-2.5-1.3-3.6-5.2-4 .6 1 2.4 2.1 1.9 3.6-2.2-1-4.6-1.5-7-1.2-3.1-2.7-7.1-4.4-11.2-4.8.3-3.7 9.2-3.7 13.4-.5-2-7-12.9-8.1-18.7-5.1-.6-1.8 1.7-3.2 2.4-4.6-4.9.3-6.2 1.8-6.7 5.1C14 2.6 10.2-.7.1 8.8c6.4-2.4 10.2-4.2 14.9.6C5.5 8-.4 9 0 19.4c2.1-4.8 9.6-6.9 13.7-5.8-6.9 5.9-8.4 13.3-.7 20.9-1.1-5.2-1.5-12.9 5.6-14.5 4.7 3 8.1 26.6 6.6 34-1.2.5-2.4 1.2-3.5 1.9-1.2.9-6.3 4.7-1.9 4.8s3.4.7 6 3.1c4.3 4 14.1-5 17.4-2.2 4 3.4 11.4-6.9 5.2-5.6-1.2.2-2.4-.3-3.2-1.2-1.5-5 1.2-24.4 4.9-26.8 5.5 1.2 5.2 7.3 4.3 11.2 6-5.9 4.8-11.6-.5-16.2 3.1-.9 9 .8 10.6 4.5.2-8-4.4-8.8-11.7-7.7zm-8.7 3.3c-2 1.5-3.8 3.3-5.5 5.1-.5-1.1-1-2.1-1.6-3.1 2.8-1.5 5.5-2.5 7.1-2zm-8.7-.4c-.9-1.1-1.8-2.2-2.7-3.2 1.9-1 4-1.5 6.2-1.3 1.1.7 2.2 1.4 3.2 2.1-2.4.4-4.7 1.2-6.7 2.4zm-.1-6.6c-1.3.7-2.3 1.7-2.9 3.1-1.9-2-3.9-3.9-6.1-5.6 2-.5 5.4.7 9 2.5zm1.8 36c-.3.2-.6.5-.8.8C31 44.3 23 23.6 24.1 18.7c3.1 1.9 5.9 4.2 8.2 7-1.2 1.6-2.4 3.3-3.3 5.1 1.4-1.4 2.9-2.6 4.6-3.6 1 1.2 2 2.5 2.9 3.8-1.9 2.8-3.2 5.9-2.5 8.8 1.6-2.1 3-4.2 4.5-6l1.1 1.5c.3-1 .3-2.1.2-3.1 1.7-2 3.8-3.8 6.1-5.2.7 3.6-4.7 17.9-8.8 25.1z" class="st0"/>
</svg>
