<svg xmlns="http://www.w3.org/2000/svg" id="圖層_1" viewBox="0 0 17.5 17.52">
    <style>
        .st0{fill:#fff}
    </style>
    <path d="M0 17.52l2.26-.35-1.91-1.91L0 17.52zM1.06 10.69l-.55 3.59 2.74 2.74 3.58-.56-5.77-5.77zM16.27 5.85l.68-.68c.72-.72.72-1.89 0-2.61L14.93.54c-.72-.72-1.89-.72-2.61 0l-.68.68 4.63 4.63zM7.7 15.66L1.84 9.8l8.39-8.39 5.86 5.86-8.39 8.39z" class="st0"/>
    <path d="M12.69 13.81h-.04a.357.357 0 0 1-.31-.39l.13-1.11c.01-.08.04-.15.1-.21l3.67-3.67-1.21-1.21a.35.35 0 0 1 0-.5.35.35 0 0 1 .5 0l1.46 1.46c.14.14.14.36 0 .5l-3.84 3.84-.12.99c-.02.17-.17.3-.34.3z" class="st0"/>
</svg>
