<svg xmlns="http://www.w3.org/2000/svg" id="圖層_1" viewBox="0 0 59 118.7">
    <style>
        .st0{fill:#e2e1e1}.st1{fill:#fff}.st2{font-family:&apos;MicrosoftJhengHeiRegular&apos;}.st3{font-size:15.6955px}
    </style>
    <circle cx="26.2" cy="44.8" r="8.8" class="st0"/>
    <path d="M50.7 40.4c-1.5-1.1-3.6-.8-4.7.7L34 57.3c1.1 1 1.9 2.4 2.1 4l.5 3.5c.3-.2.5-.4.7-.7l14.1-19c1.1-1.5.8-3.6-.7-4.7zM1.4 40.4c1.5-1.1 3.6-.8 4.7.7l12 16.2c-1.1 1-1.9 2.4-2.1 4l-.5 3.5c-.3-.2-.5-.4-.7-.7L.7 45.1c-1.1-1.5-.8-3.6.7-4.7zM34.5 87.1c.5-.9.7-1.9.7-3V62.9c0-3.7-3-6.7-6.7-6.7h-4.7c-3.7 0-6.7 3-6.7 6.7v21.2c0 1.2.3 2.2.8 3.2-1.8.5-3.1 2.2-3.1 4.2v22.9c0 2.4 1.9 4.3 4.3 4.3s4.3-1.9 4.3-4.3v-23c0-.2 0-.4-.1-.7H28.4c.4 0 .8 0 1.2-.1 0 .2-.1.5-.1.8v22.9c0 2.4 1.9 4.3 4.3 4.3s4.3-1.9 4.3-4.3V91.4c.2-2.2-1.4-4-3.6-4.3z" class="st0"/>
    <g>
        <path d="M51.2 52.7l-1 .3c-.5.2-1.1-.1-1.2-.6L40.7 26c-.2-.5.1-1.1.6-1.2l1-.3c.5-.2 1.1.1 1.2.6l8.3 26.4c.2.5-.1 1-.6 1.2z" class="st0"/>
        <path d="M23 4.3h33v25.3H23z" class="st0" transform="rotate(-17.344 39.49 16.98)"/>
        <text class="st1 st2 st3" transform="rotate(-17.344 93.535 -108.684)">
            3
        </text>
    </g>
</svg>
