<svg xmlns="http://www.w3.org/2000/svg" id="圖層_1" viewBox="0 0 98.1 97.4">
    <style>
        .st0{fill:#e2e1e1}.st1{fill:#fff}.st2{font-family:&apos;MicrosoftJhengHeiRegular&apos;}.st3{font-size:17.1653px}
    </style>
    <path d="M51.3 27.3c0 4.5-3.7 8.2-8.2 8.2s-8.2-3.7-8.2-8.2c0-4.5 3.7-8.2 8.2-8.2s8.2 3.7 8.2 8.2zM54 70.3l-11.9-7.2-.3.9c-1 2.7-3.3 4.6-6.1 5.1l-.7 1 12 7.3c.2.1.3.3.3.5v14.7c0 2.7 2.2 4.8 4.8 4.8 2.7 0 4.8-2.2 4.8-4.8V75.7c.1-2.2-1.1-4.2-2.9-5.4zM62.3 45.5c-.6-1.8-2.6-2.7-4.3-2L48.4 47c-.1 0-.3 0-.3-.1l-4.5-5.4c-1.3-1.5-3.6-1.6-5-.2-1.3 1.3-1.2 3.3-.1 4.7l6.2 7.3c.8 1 2.2 1.4 3.5.9l12.2-4.4c1.7-.6 2.6-2.6 1.9-4.3z" class="st0"/>
    <path d="M44.1 53.9l-6.2-7.3c-1.5-1.7-1.4-4.3.1-5.8.8-.8 1.9-1.2 3-1.2 1.2 0 2.4.5 3.2 1.5l3.3 3.9c.1-3-1.7-5.9-4.7-7l-2-.7c-3.7-1.3-7.8.6-9.1 4.3l-6.1 16.8c-.8 2.1-.5 4.4.7 6.2l-9.2 13.2c-.1.2-.3.3-.5.4L3.1 83.7c-2.4 1-3.7 3.7-2.8 6.1.9 2.6 3.9 3.9 6.4 2.8l14.6-6.2c1.1-.5 2-1.2 2.6-2.1l11.3-15.9c2.6-.3 4.9-2 5.8-4.6l3.4-9.5c-.1-.2-.2-.3-.3-.4z" class="st0"/>
    <path d="M16.4 60.4l.7.4c1.4.8 3.2.3 4.1-1.1l5.3-9.2c.1-.3.4-.5.7-.6l.6-.2 3-8.1-7.8 2.9c-.7.3-1.3.7-1.6 1.4l-6 10.5c-.9 1.4-.4 3.2 1 4z" class="st0"/>
    <g>
        <path d="M56.4 57.1l-.9-.5c-.5-.3-.7-.9-.4-1.5l14.5-26.5c.3-.5.9-.7 1.5-.4l.9.5c.5.3.7.9.4 1.5L57.9 56.7c-.3.5-.9.7-1.5.4z" class="st0"/>
        <path d="M57.6 7h36.1v27.6H57.6z" class="st0" transform="rotate(28.626 75.635 20.779)"/>
        <text class="st1 st2 st3" transform="rotate(28.626 -10.96 146.317)">
            2
        </text>
    </g>
</svg>
