<svg xmlns="http://www.w3.org/2000/svg" id="圖層_1" viewBox="0 0 68.7 64.9">
    <style>
        .st0{fill:#fff}
    </style>
    <path d="M68.6 46.7c-.2-.6-4.7-14.5-15.4-15.7 1.7-3.6 2.5-7.5 2.5-11.5 0-5.8 0-19.5-15.4-19.5S25 14.1 25 19.5c0 4 .9 7.9 2.5 11.5-10.7 1.3-15.2 15.1-15.4 15.7-.1.3-.1.7-.1 1v6.7c0 6.6 8 9.9 9 10.2.4.2.8.2 1.2.2h36.5c.4 0 .8-.1 1.2-.2.9-.4 9-3.7 9-10.2v-6.8l-.3-.9zM40.4 3.2c10.5 0 12.1 7.3 12.1 16.2s-5 17.8-12.1 17.8-12.2-9-12.2-17.8S29.9 3.2 40.4 3.2zm25.1 51.3c0 4.5-6.9 7.2-6.9 7.2H22.1s-6.9-2.7-6.9-7.2v-6.7s4.1-12.9 13.2-13.5c.6 3.5 5.5 7 12.1 7s11.2-3.7 11.9-7c9 .7 13.1 13.5 13.1 13.5v6.7z" class="st0"/>
    <path d="M25.3 29.8c-.6-1.5-1-3.1-1.4-4.7h-7.4c-.9 0-1.7-.8-1.7-1.7V10.8c-.1-1 .6-1.8 1.6-1.9 1-.1 1.8.6 1.9 1.6V21.6h5.2v-2.2c-.1-3.8.4-7.6 1.6-11.2C17 3.6 6.8 6.3 2.2 14.3S.3 32.6 8.4 37.1c1.7 1 3.6 1.7 5.6 2 2.4-4.4 6.5-7.7 11.3-9.3z" class="st0"/>
</svg>
