<svg id="圖層_1" data-name="圖層 1" xmlns="http://www.w3.org/2000/svg" viewBox="0 0 39.96 49.83"><defs><style>.cls-1{fill:#1d4a9e;}</style></defs><title>代理人設定</title><path class="cls-1" d="M39.81,35.05a25.93,25.93,0,0,0-2.64-5.86,13,13,0,0,0-7.1-5.33,1.11,1.11,0,0,1-.64-1.44v0a22.51,22.51,0,0,0,1.82-7C31.26,11.18,31.26,0,20,0S8.69,11.58,8.69,15.37c0,2.2,1.39,5.09,2.33,7.37a1.16,1.16,0,0,1-.55,1.5C4.18,26.69.27,34.63.16,35A3.39,3.39,0,0,0,0,36.09v5c0,5.53,5.93,8.22,6.6,8.52a2.82,2.82,0,0,0,1.15.24H32.17a3,3,0,0,0,1.12-.24c.69-.28,6.67-3,6.67-8.52v-5A3.68,3.68,0,0,0,39.81,35.05ZM10.63,15.37c0-6.16,1.06-13.23,9.43-13.23,9.32,0,9.32,8.94,9.32,13.23a20,20,0,0,1-1.94,7.75v.1a1.75,1.75,0,0,0-.14.51A15.09,15.09,0,0,1,22.59,28a.44.44,0,0,0-.29.11,4.49,4.49,0,0,1-2.94.12,10.54,10.54,0,0,1-3.5-2.53,31.9,31.9,0,0,0-2.74-2l-.45-1.16V22.4c-1.53-4.32-2-4.29-2-7Zm9.43,17.29h.5a12.19,12.19,0,0,0,2.09-.17c.55,2.14,1.15,4.26,1.57,6.43A7,7,0,0,1,23.73,44,6.45,6.45,0,0,1,23,45.24c-.55.66-.39.53-.9.07a10.32,10.32,0,0,1-3.44-4.71c-.64-2.72.43-5.47,1.38-7.86l.08,0Zm3.14-2.39c.36.29.13.62-.2.84a.48.48,0,0,0-.38.23l-.22.08a11.87,11.87,0,0,1-1.57.13,2.71,2.71,0,0,1-1.73-.19c-.35-.27-.63-1-.14-1.23a.51.51,0,0,0,.2-.68.39.39,0,0,0-.08-.1v-.1a4.89,4.89,0,0,0,1,.17,5.64,5.64,0,0,0,2.34-.36l.7.33a.63.63,0,0,0,0,.89l.05,0Zm-10.31-5.4c1.3.95,2.53,2,3.79,3a8.94,8.94,0,0,0,1.25.86c-1.21.62-3.14,1.58-3.86.63a9,9,0,0,1-.69-2.26c-.19-.71-.4-1.42-.6-2.14a.6.6,0,0,0,.08-.08Zm10.77,3.6a17.41,17.41,0,0,0,4.07-3.78,1,1,0,0,0,.34.14v2.49c0,.78,0,1-.63,1.48a4,4,0,0,1-3.82-.29ZM38,41c0,4.2-5.19,6.44-5.41,6.54a1.56,1.56,0,0,1-.42.08H7.72a1.63,1.63,0,0,1-.44-.08c-.22-.1-5.36-2.34-5.36-6.54l-.08-2.63c0-.14.09-2.64.12-2.76s3.48-9.15,9.81-10.27l.9,3.15a3.93,3.93,0,0,0,1.05,2.17c1.06.77,2.69,0,4-.65a2.07,2.07,0,0,0,.11,1.45,1.85,1.85,0,0,0,1.24,1,14.38,14.38,0,0,0-1.34,8.39,6.62,6.62,0,0,0,1.84,3.25,15.61,15.61,0,0,1,1.58,1.46c.31.43.44,1.09.89,1.37,1.57,1,3.14-3.58,3.46-4.81A11.23,11.23,0,0,0,25,37.63c-.45-1.86-.93-3.73-1.4-5.58a2.06,2.06,0,0,0,.29-.3,1.79,1.79,0,0,0,.18-1.92,4.66,4.66,0,0,0,3.78.18,2.15,2.15,0,0,0,1-1.78C29,27.14,29,26,29,24.94a10.55,10.55,0,0,1,6.52,5.4,23.75,23.75,0,0,1,2.39,5.32h0a1.34,1.34,0,0,1,0,.4Z"/></svg>