<svg id="圖層_1" data-name="圖層 1" xmlns="http://www.w3.org/2000/svg" viewBox="0 0 99.21 96.21"><defs><style>.cls-1{fill:#231815;}</style></defs><title>切換</title><path class="cls-1" d="M97,.7,82,15.75A45.9,45.9,0,0,0,6,28.08a43.33,43.33,0,0,0-1.57,4.07,6.2,6.2,0,1,0,11.76,3.92c.34-1,.72-2,1.15-3a33.51,33.51,0,0,1,55.85-8.58L58,39.72c-1.21,1.2-.8,2.19.91,2.19h37.2a3.1,3.1,0,0,0,3.1-3.1V1.6C99.21-.1,98.23-.52,97,.7Z"/><path class="cls-1" d="M86.34,60.75A6.19,6.19,0,0,0,78,63.47a33.56,33.56,0,0,1-52.94,9.19L41.21,56.5c1.21-1.21.8-2.19-.9-2.19H3.1A3.1,3.1,0,0,0,0,57.41V94.62c0,1.7,1,2.1,2.19.9L16.31,81.4A45.89,45.89,0,0,0,89.05,69.1,6.22,6.22,0,0,0,86.34,60.75Z"/></svg>