<svg id="圖層_1" data-name="圖層 1" xmlns="http://www.w3.org/2000/svg" viewBox="0 0 39.75 39.75"><defs><style>.cls-1{fill:#feffff;}.cls-2{fill:#df6764;}</style></defs><title>工作代辦</title><path class="cls-1" d="M19.87,3.15h0A16.75,16.75,0,1,0,36.62,19.88h0A16.76,16.76,0,0,0,19.87,3.15Z"/><path class="cls-2" d="M19.87,0A19.88,19.88,0,1,0,39.75,19.87h0A19.88,19.88,0,0,0,19.87,0ZM36.62,19.88A16.75,16.75,0,1,1,19.87,3.14h0A16.76,16.76,0,0,1,36.62,19.87Z"/><path class="cls-2" d="M18.72,22.6a.84.84,0,0,1-.83-.83V7.53a.83.83,0,0,1,1.66,0h0V20.7L29.6,18.14a.82.82,0,0,1,1,.59.84.84,0,0,1-.6,1L18.93,22.59Z"/></svg>