<svg id="圖層_1" data-name="圖層 1" xmlns="http://www.w3.org/2000/svg" viewBox="0 0 69.88 64.82"><defs><style>.cls-1{fill:#231815;}.cls-2{fill:none;}.cls-3{fill:#040000;}</style></defs><title>差勤證明</title><path class="cls-1" d="M65.61,41.51a.72.72,0,0,1,.41.22l3.63,4a.74.74,0,0,1,0,1.05l0,0L53.07,62.42a.79.79,0,0,1-.66.18.82.82,0,0,1-.37-.19L40.6,50.69a.76.76,0,0,1,0-1.08h0l3.9-3.91a.81.81,0,0,1,.68-.21.86.86,0,0,1,.4.21l6.77,6.89a.67.67,0,0,0,.39.22.76.76,0,0,0,.65-.2l11.71-11a.93.93,0,0,1,.67-.17"/><path class="cls-2" d="M29.92,40.2V51.37A1.66,1.66,0,0,1,28.26,53h0a1.68,1.68,0,0,1-1.68-1.66V40.2a3.71,3.71,0,0,1-1.21-.86l-8.09,3.91a1.66,1.66,0,0,1-2.22-.77h0a1.68,1.68,0,0,1,.78-2.23l8.43-4a4,4,0,1,1,5.65,4Z"/><path class="cls-3" d="M29.92,60.08V58.93a1.66,1.66,0,0,0-3.32,0h0v1.15A23.53,23.53,0,0,1,4.77,38.25H5.92a1.66,1.66,0,0,0,0-3.32H4.77A23.55,23.55,0,0,1,26.6,13.1v1.15a1.66,1.66,0,0,0,3.32,0V13.1A23.57,23.57,0,0,1,51.75,34.93H50.59a1.66,1.66,0,0,0,0,3.32h1.16a23.26,23.26,0,0,1-2.62,9.18l3.36,3.4a28,28,0,0,0-3.07-32.75l4.94-4.92L50.24,9l-5.07,5.1A28.19,28.19,0,0,0,31.85,8.69V5.6H33a2.48,2.48,0,0,0,2.46-2.46V2.46A2.48,2.48,0,0,0,33,0H23.49A2.46,2.46,0,0,0,21,2.46v.68A2.46,2.46,0,0,0,23.49,5.6h1.17V8.69a27.89,27.89,0,0,0-13.57,5.64L5.82,9,1.6,13.22l5.18,5.17A28.12,28.12,0,0,0,45.83,58.54l-3.22-3.3A23.6,23.6,0,0,1,29.92,60.08Z"/><path class="cls-3" d="M28.16,32.53a4,4,0,0,0-3.91,3.65l-8.43,4a1.67,1.67,0,0,0,1.43,3h0l8.09-3.9a3.84,3.84,0,0,0,1.21.85V51.35A1.68,1.68,0,0,0,28.24,53a1.66,1.66,0,0,0,1.66-1.66h0V40.18a4,4,0,0,0-1.66-7.67Z"/></svg>