<svg id="圖層_1" data-name="圖層 1" xmlns="http://www.w3.org/2000/svg" viewBox="0 0 131.37 29.83"><defs><style>.cls-1,.cls-2{fill:#d82b17;}.cls-2{fill-rule:evenodd;}</style></defs><title>新光人壽logo</title><path class="cls-1" d="M41.21,4.48c-2.72-2.12-9-3.71-16-4.18C24,.2,22.68.14,21.4.14S19.06.2,17.91.26h0C10.76.7,4.34,2.33,1.59,4.48A4,4,0,0,0,0,7.75a3.49,3.49,0,0,0,1.12,2.84c2.53,2.31,9.9,4.52,16.79,5.24A32.2,32.2,0,0,0,21.4,16c1.22,0,2.53-.09,3.81-.22,6.8-.69,14-2.93,16.44-5.21A3.52,3.52,0,0,0,42.8,7.75,4,4,0,0,0,41.21,4.48ZM35,10.62c-1.59,1.84-5.18,3.43-9.79,4a30.47,30.47,0,0,1-3.81.25,31.86,31.86,0,0,1-3.49-.22c-4.78-.57-8.49-2.16-10.14-4.06A4.33,4.33,0,0,1,6.87,8,4,4,0,0,1,8.52,4.82c1.74-1.34,5.15-2.7,9.39-3.31a34.29,34.29,0,0,1,3.49-.25,33.16,33.16,0,0,1,3.81.32,20.75,20.75,0,0,1,9.07,3.24A4.06,4.06,0,0,1,35.94,8,4.2,4.2,0,0,1,35,10.62Z"/><path class="cls-2" d="M24.61,5.83a2,2,0,0,0,.6-.15,4.74,4.74,0,0,0,.87-.44,3.86,3.86,0,0,0,.59-.62,2.39,2.39,0,0,0,0-1.13A2.54,2.54,0,0,0,26,3a1.32,1.32,0,0,0-.81,0,1.11,1.11,0,0,0-.47.37,3.49,3.49,0,0,0-1.06,2.49A2.86,2.86,0,0,0,24.61,5.83Zm-6.7-.43c.25.12.53.22.72.31s.59.15.68,0a1.74,1.74,0,0,0,0-1.06,3.38,3.38,0,0,0-.62-1.28,2.09,2.09,0,0,0-.78-.66l-.1,0a1,1,0,0,0-.87.1,1.34,1.34,0,0,0-.5,1.37A2.46,2.46,0,0,0,17.91,5.4Zm7.3,6h-.07a.53.53,0,0,1-.31-.49V8.79h1.93V6.55H25.21l-2.47,0,0-4H20.25v4l-2.34,0H16.1V8.79H18c0,.45-.06.94-.06,1.35,0,.12,0,.25-.06.37a5.71,5.71,0,0,1-.41,1.13c-.34.52-.69,1-1,1.52,0,.28.25.28.38.25a9,9,0,0,0,1.06-.62l1-.72a5.76,5.76,0,0,0,1.27-1.5,5.33,5.33,0,0,0,.72-1.33L21,8.83l1,0,.25.16,0,3.47a1.18,1.18,0,0,0,.72.9l1.53.06.75,0,.43,0a2.32,2.32,0,0,0,1.19-2Z"/><path class="cls-1" d="M36.77,20.34c0-.08.09-.21.18-.21h3.31c.09,0,.19.13.19.21v1.09h1V20.17a.83.83,0,0,0-.88-.86h-1.4a5.41,5.41,0,0,1-.34-.87H37.62a8.65,8.65,0,0,0,.34.87H36.62a.83.83,0,0,0-.88.86v1.26h1Zm-.87,2.85h1.39a3.31,3.31,0,0,0,1.08-2.46H37.28A3.28,3.28,0,0,1,35.9,23.19Zm3-2.46v1.48a.91.91,0,0,0,1,1h1.33l.25-.82H40.19a.2.2,0,0,1-.23-.21V20.73Zm-3.28,1.45c-.21.1-.5.24-.73.33V21h.59v-.85h-.59V18.44H33.7v1.69h-.92V21h.93v2a9.44,9.44,0,0,1-1,.35v.95l1-.37V26.1a.23.23,0,0,1-.25.23h-.67l.27.81h.89a.88.88,0,0,0,.91-.86V23.42l.73-.31Zm3.53,4.15V24.47h2.14v-.83H35.88v.83h2v1.86H35.5v.82h6v-.82Z"/><path class="cls-1" d="M29.1,25.94A13.89,13.89,0,0,0,29.76,24H28.59a7.72,7.72,0,0,1-.77,1.91ZM24.7,24H23.49a17.46,17.46,0,0,0,.72,1.91h1.3A11.06,11.06,0,0,1,24.7,24Zm2.62-.4h3.35v-.86H27.32V21.62h1.49v-.74c.4.48.59.69.75.85h1.6A17,17,0,0,1,29,19.16a1.13,1.13,0,0,0-.94-.58H25.24a1.14,1.14,0,0,0-.94.58,17,17,0,0,1-2.21,2.57h1.6c.16-.16.36-.37.75-.84v.73h1.49v1.15H22.58v.86h3.35v2.65H22.29v.86H31v-.86H27.32Zm-2.76-2.88c.23-.28.54-.65.93-1.15a.37.37,0,0,1,.34-.17h1.61a.35.35,0,0,1,.33.17l.93,1.15Z"/><path class="cls-1" d="M1.29,26.85H2.36A19.65,19.65,0,0,0,3,24H2A23.93,23.93,0,0,1,1.29,26.85ZM6,22.76H4.4V22.1H6v-.83H5.2c.11-.38.22-.83.3-1.21h.41v-.83H4.37a7.83,7.83,0,0,1-.28-.81H2.92c.07.25.17.56.27.81H1.68v.83H2.1c.08.38.18.83.29,1.21H1.6v.83H3.25v.66H1.6v.83H3.25v3.54H4.4V23.59H6ZM4.23,21.27H3.35c-.1-.37-.21-.86-.27-1.21H4.52C4.45,20.41,4.34,20.9,4.23,21.27Zm3.39,0V20a.2.2,0,0,1,.18-.21,15.49,15.49,0,0,0,2.27-.47v-.82c-.94.2-2,.39-3,.54a.65.65,0,0,0-.41.21.81.81,0,0,0-.19.52v4a6.3,6.3,0,0,1-.75,3.3H7a9,9,0,0,0,.67-3.91v-1.1h.87v5H9.65v-5h.54v-.83Zm-2,2.7h-1A18.54,18.54,0,0,0,5,26.2H6A14.72,14.72,0,0,1,5.63,24Z"/><path class="cls-1" d="M20,18.89H18.77a8.53,8.53,0,0,1-1.18,2.61h1.35A9.68,9.68,0,0,0,20,18.89ZM14.89,21.5a12.12,12.12,0,0,1-1.21-2.61H12.45a14.3,14.3,0,0,0,1.13,2.61Zm3.72,4.74a.31.31,0,0,1-.33-.32v-3h2.26V22H16.88V18.4H15.55V22H11.84v.88h2.28a4.22,4.22,0,0,1-2.48,4.24h1.94c.66-.46,1.9-1.43,1.84-4.24H17v3.17c0,.78.44,1.07.92,1.07h2.55l.38-.89Z"/><rect class="cls-1" x="50.74" y="0.14" width="2.38" height="26.99"/><path class="cls-1" d="M68.15,10H66.47a34.66,34.66,0,0,0,.5,3.9h1.75A28,28,0,0,1,68.15,10Zm3.5-7A.38.38,0,0,1,72,2.59a27,27,0,0,0,4-.82V.32c-1.66.36-3.61.7-5.33,1a1.12,1.12,0,0,0-.72.37,1.43,1.43,0,0,0-.33.91V9.69a11.1,11.1,0,0,1-1.33,5.81h2.2c1-1.83,1.18-4.54,1.18-6.89V6.66h1.54V15.5h2V6.66h1V5.2H71.65ZM68.78,7.79H66V6.63h2.8V5.16H67.4c.19-.66.39-1.46.53-2.12h.71V1.58H65.93A14.44,14.44,0,0,1,65.44.14H63.38c.12.44.3,1,.47,1.44H61.2V3h.73c.13.66.32,1.46.5,2.12H61.05V6.63H64V7.79H61.05V9.26H64V15.5h2V9.26h2.79ZM65.69,5.16H64.14C64,4.51,63.78,3.65,63.66,3H66.2C66.08,3.65,65.87,4.51,65.69,5.16ZM93.48,1H91.31a15.38,15.38,0,0,1-2.08,4.6h2.38A18.31,18.31,0,0,0,93.48,1Zm-9,4.6A21.33,21.33,0,0,1,82.33,1H80.17a26.16,26.16,0,0,0,2,4.6ZM60.51,15h1.88a31.81,31.81,0,0,0,1.07-5H61.72A43.71,43.71,0,0,1,60.51,15Zm29.93-1.63V8h4V6.48H88V.11H85.63V6.48H79.1V8h4c.27,4.74-2.76,6.56-4.36,7.46h3.42C83.33,14.68,85.51,13,85.4,8h2.73v5.58c0,1.37.77,1.88,1.62,1.88h4.5l.67-1.56H91A.55.55,0,0,1,90.44,13.37Zm16.64-6.69h-1.71A25.07,25.07,0,0,0,106,.06h-2.3c.22,8.77-3.35,12.26-6.83,15.43h3A16,16,0,0,0,105,8a26,26,0,0,0,5.13,7.5h3.32A22.65,22.65,0,0,1,107.08,6.68Zm19.49,6.19h-2.84L124.3,14h2.84Zm4.8-2.13V9.48H115.8v1.26h12.39v.52h-4.55v1.23h4.55V14a.43.43,0,0,1-.4.43h-2.1l.53,1.07h2.5a1.3,1.3,0,0,0,1.37-1.26V12.49h1.27V11.26h-1.27v-.52Zm-9-8h-5.68V4h13.77V2.78H124.7V2.21h6.21V1H124.7V0h-2.33V1h-6.21V2.21h6.21Zm7.19,3.45v.7h1.76V6a1.55,1.55,0,0,0-.4-1.12,1.74,1.74,0,0,0-1.22-.42H115.77V5.7h13.35C129.42,5.7,129.56,6,129.56,6.23ZM116.73,7.8V9.06h13.71V7.8H124.7V7.33H129V6.14H117.39V7.33h5V7.8Zm5,3.41h-4.23a1.35,1.35,0,0,0-.84.29,1.08,1.08,0,0,0-.42.86V14a1.26,1.26,0,0,0,.28.81,1.08,1.08,0,0,0,.87.44h4.39a1.16,1.16,0,0,0,.85-.32A1.18,1.18,0,0,0,123,14V12.47a1.2,1.2,0,0,0-.37-.9A1.27,1.27,0,0,0,121.74,11.21Zm-.44,2.36a.38.38,0,0,1-.4.4h-2.53a.46.46,0,0,1-.44-.44v-.61a.37.37,0,0,1,.38-.42h2.63a.36.36,0,0,1,.36.37Z"/><path class="cls-1" d="M119.44,20.52a4.09,4.09,0,0,0-.14,1.65l1,0v.54l-1,0v.94c0,.67,0,1.29,0,1.84l.06,1.68h-1.55c0-.55,0-1.11.06-1.67s0-1.18,0-1.85v-.93h-.71v-.54l.71,0c0-2,.3-2.75,1.5-2.75a2.68,2.68,0,0,1,1.16.26v.71l0,0C120.19,20,119.6,20,119.44,20.52Z"/><path class="cls-1" d="M109.91,21.39c0-.44,0-.89-.07-1.33l.39,0,.47,0,.46,0,.38,0c0,.44-.05.89-.06,1.33s0,.95,0,1.52v2.54c0,.36,0,.68,0,.94l1.18,0c.39,0,.78-.06,1.18-.11l0,.21a3.38,3.38,0,0,0,0,.52q0,.09,0,.15h-4c0-.42,0-.86.07-1.3s0-.95,0-1.52v-1.4C109.93,22.34,109.92,21.83,109.91,21.39Z"/><path class="cls-1" d="M115,19.66a.77.77,0,0,1,.57-.23.76.76,0,0,1,.58.23.82.82,0,0,1,0,1.16.8.8,0,0,1-.58.23.81.81,0,0,1-.57-.23.82.82,0,0,1,0-1.16Zm-.2,7.47c0-.34.06-.7.07-1.07s0-.77,0-1.18v-.41c0-.42,0-.82,0-1.18s0-.74-.07-1.11h1.55c0,.37-.06.74-.06,1.11s0,.76,0,1.18v.41c0,.41,0,.81,0,1.18s0,.73.06,1.07Z"/><path class="cls-1" d="M123.5,26.62a2.17,2.17,0,0,0,1.36-.46l0,0-.25.63a2.13,2.13,0,0,1-.62.32,3.09,3.09,0,0,1-1,.11,3.42,3.42,0,0,1-1-.13,2.2,2.2,0,0,1-.8-.46,2.37,2.37,0,0,1-.55-.81,3.14,3.14,0,0,1-.2-1.17,3.41,3.41,0,0,1,.18-1.16,2.23,2.23,0,0,1,.5-.82,2.06,2.06,0,0,1,.76-.5,2.67,2.67,0,0,1,1-.16,2,2,0,0,1,1.57.6,2.41,2.41,0,0,1,.54,1.68v.22a.35.35,0,0,1,0,.12h-3a3.71,3.71,0,0,0,.08.77,1.84,1.84,0,0,0,.26.62,1.13,1.13,0,0,0,.43.41,1.24,1.24,0,0,0,.62.15m0-3.64a.59.59,0,0,0-.57-.46.54.54,0,0,0-.38.15,1.08,1.08,0,0,0-.24.39,2.11,2.11,0,0,0-.14.55c0,.2,0,.4-.06.59h1.58A3.58,3.58,0,0,0,123.5,23Z"/><path class="cls-1" d="M88.57,25.32l-.89-1.19c-.27-.36-.57-.79-.82-1.11.28-.34.57-.68.7-.82s.48-.55.74-.83.5-.55.72-.79a6.69,6.69,0,0,1,.52-.53h-1.4l-.36.46c-.2.22-.42.48-.66.77s-.5.56-.77.87l-.65.7v-.5c0-.51,0-1,0-1.38a8.38,8.38,0,0,1,.06-.92H84.2c0,.45,0,.89,0,1.34s0,.95,0,1.52v1.4c0,.56,0,1.07,0,1.52s0,.88,0,1.3h1.58c0-.32-.06-.74-.07-1.27s0-1.19,0-1.93v-.16l0,0c.32.45.71,1,1.24,1.73.38.54.76,1.08,1.15,1.59H90c-.15-.17-.35-.4-.6-.73Zm-17.1.35c0-.27,0-.54,0-.81s0-.57,0-.92a2.17,2.17,0,0,0-.39-1.45A1.49,1.49,0,0,0,69.94,22a1.73,1.73,0,0,0-.9.24,1.89,1.89,0,0,0-.66.66l0,0c0-.67,0-1.29,0-1.85s0-1.13.06-1.71H66.89q0,.87.06,1.71c0,.56,0,1.18,0,1.86v.66c0,.68,0,1.3,0,1.86s0,1.13-.06,1.68h1.55c0-.16,0-.36,0-.58s0-.44,0-.66,0-.42,0-.6v-.83a2.28,2.28,0,0,1,.22-1.11.72.72,0,0,1,.69-.41.73.73,0,0,1,.64.31,1.6,1.6,0,0,1,.23.95c0,.62,0,1.18,0,1.67s-.05.9-.1,1.26h1.5c0-.24,0-.48,0-.74S71.47,25.89,71.47,25.67Zm8.56,0c0-.27,0-.54,0-.81s0-.57,0-.92a2.17,2.17,0,0,0-.39-1.45A1.48,1.48,0,0,0,78.51,22a1.68,1.68,0,0,0-.9.24,2.07,2.07,0,0,0-.68.67h0l0-.77H75.46c0,.37.06.73.07,1.1s0,.77,0,1.19v.4c0,.42,0,.82,0,1.19s0,.73-.07,1.07H77c0-.34-.06-.7-.07-1.07s0-.77,0-1.19v-.41a2.29,2.29,0,0,1,.21-1.11.75.75,0,0,1,.7-.41.73.73,0,0,1,.63.31,1.6,1.6,0,0,1,.23.95c0,.62,0,1.18,0,1.67a10.77,10.77,0,0,1-.09,1.26h1.5c0-.24,0-.48,0-.74S80,25.89,80,25.67Zm-6.52-6.26a.82.82,0,0,0-.83.82.78.78,0,0,0,.24.57.79.79,0,0,0,.59.24.81.81,0,0,0,.59-.24.81.81,0,0,0,0-1.15A.81.81,0,0,0,73.51,19.41Zm.72,3.87c0-.37,0-.73.07-1.11H72.72c0,.38.06.74.07,1.11s0,.76,0,1.19v.4c0,.42,0,.82,0,1.19s0,.73-.07,1.07H74.3c0-.34-.06-.69-.07-1.07s0-.77,0-1.19v-.4C74.21,24,74.22,23.65,74.23,23.28Zm29.38,3.06a1.11,1.11,0,0,1-.62-.15.47.47,0,0,1-.19-.4.38.38,0,0,1,.09-.26.26.26,0,0,1,.21-.12h.47a2.68,2.68,0,0,0,.83-.13,1.61,1.61,0,0,0,.63-.35,1.5,1.5,0,0,0,.39-.54,1.67,1.67,0,0,0,.14-.69,1.54,1.54,0,0,0-.14-.67,1.31,1.31,0,0,0-.4-.47l0,0,.88,0v-.5h-1.36l-.28,0-.39,0-.38,0a3.72,3.72,0,0,0-.91.11,2.39,2.39,0,0,0-.7.33,1.47,1.47,0,0,0-.43.52,1.78,1.78,0,0,0,.19,1.76,1.65,1.65,0,0,0,1,.56v0a1.37,1.37,0,0,0-.71.44,1,1,0,0,0-.25.66.64.64,0,0,0,.45.67v0a1.52,1.52,0,0,0-.63.46,1.43,1.43,0,0,0-.23.83,1.21,1.21,0,0,0,.52,1,2.64,2.64,0,0,0,1.53.38c1.11,0,2.68-.43,2.68-1.78S105.17,26.34,103.61,26.34Zm-.14-3.87a.54.54,0,0,1,.47.28,1.79,1.79,0,0,1,.19,1,2.18,2.18,0,0,1-.17,1,.54.54,0,0,1-.51.3.53.53,0,0,1-.24-.06.55.55,0,0,1-.22-.21,1.16,1.16,0,0,1-.17-.37,2.84,2.84,0,0,1-.06-.57C102.76,22.92,103,22.47,103.47,22.47Zm1.29,6.14a.92.92,0,0,1-.24.35,1,1,0,0,1-.38.25,1.36,1.36,0,0,1-.51.09,1.87,1.87,0,0,1-.49-.07,1.44,1.44,0,0,1-.41-.21,1,1,0,0,1-.27-.33,1.07,1.07,0,0,1-.11-.49,1.5,1.5,0,0,1,.13-.65.62.62,0,0,1,.3-.29,1.5,1.5,0,0,1,.66-.13,5.28,5.28,0,0,1,.59,0,1.34,1.34,0,0,1,.44.15.65.65,0,0,1,.28.31,1.38,1.38,0,0,1,.09.54A1.16,1.16,0,0,1,104.76,28.61ZM92.41,22a2.33,2.33,0,0,0-2.51,2.53,3.15,3.15,0,0,0,.19,1.13,2.41,2.41,0,0,0,.53.86,2.19,2.19,0,0,0,.81.53,2.63,2.63,0,0,0,1,.18,2.59,2.59,0,0,0,1-.18,2.15,2.15,0,0,0,.82-.53,2.55,2.55,0,0,0,.53-.86,3.39,3.39,0,0,0,.19-1.13A2.35,2.35,0,0,0,92.41,22Zm0,4.79c-.63,0-1-.8-1-2.42a3.71,3.71,0,0,1,.21-1.4.77.77,0,0,1,.74-.5.75.75,0,0,1,.74.5,3.5,3.5,0,0,1,.22,1.4C93.37,26,93.05,26.83,92.41,26.83Zm8-1.16q0-.41,0-.81c0-.26,0-.57,0-.92a2.06,2.06,0,0,0-.43-1.45A1.58,1.58,0,0,0,98.81,22a1.68,1.68,0,0,0-.9.24,2,2,0,0,0-.66.67h0l0-.77H95.81c0,.37.06.73.07,1.1s0,.77,0,1.19v.4c0,.42,0,.82,0,1.19s0,.73-.07,1.07h1.52c0-.34-.06-.7-.07-1.07s0-.77,0-1.19v-.41a2.41,2.41,0,0,1,.21-1.11.69.69,0,0,1,.67-.41.73.73,0,0,1,.64.31,1.61,1.61,0,0,1,.22.95c0,.62,0,1.18,0,1.67a10.77,10.77,0,0,1-.09,1.26h1.58c0-.24,0-.48,0-.74S100.4,25.89,100.4,25.67ZM65.71,24a3,3,0,0,0-.69-.64,5.41,5.41,0,0,0-.87-.43c-.3-.12-.59-.26-.86-.39a2.63,2.63,0,0,1-.68-.42.92.92,0,0,1-.3-.63.77.77,0,0,1,.28-.65,1.25,1.25,0,0,1,.85-.28,1.82,1.82,0,0,1,1.74.89h.1l.34-1a3,3,0,0,0-.93-.36,5,5,0,0,0-1.24-.14,3.41,3.41,0,0,0-1,.14,2.54,2.54,0,0,0-.8.42,2,2,0,0,0-.53.69,2,2,0,0,0-.15,1,1.78,1.78,0,0,0,.33,1,2.55,2.55,0,0,0,.67.64,4.93,4.93,0,0,0,.86.43c.31.13.59.25.86.38a2.24,2.24,0,0,1,.66.44.86.86,0,0,1,.3.63.88.88,0,0,1-.28.74,1.19,1.19,0,0,1-1,.34,3.84,3.84,0,0,1-.72-.13,2.46,2.46,0,0,1-.56-.3,1.91,1.91,0,0,1-.43-.42,1.63,1.63,0,0,1-.23-.48h-.11L61,26.45a4.72,4.72,0,0,0,1,.54,3.77,3.77,0,0,0,1.21.31,3.65,3.65,0,0,0,1.24-.17,3.17,3.17,0,0,0,.93-.5,2.14,2.14,0,0,0,.57-.74A2,2,0,0,0,66,25,1.79,1.79,0,0,0,65.71,24Z"/></svg>