<svg id="圖層_1" data-name="圖層 1" xmlns="http://www.w3.org/2000/svg" viewBox="0 0 49.97 50.09"><defs><style>.cls-1{fill:#df6764;}</style></defs><title>系統公告</title><path class="cls-1" d="M25,13.36V30.94c-.48,0-1-.12-1.48-.13H19.66l4.85,9.66A2.91,2.91,0,0,1,24,43.79l-3.47,3.43a2.76,2.76,0,0,1-2,.85,2.71,2.71,0,0,1-.57,0,2.84,2.84,0,0,1-2.12-1.78L10,30.87H9.14a1.44,1.44,0,0,1-1.45-1.44V28H3.32a1.43,1.43,0,0,1-1.43-1.43V17.91a1.43,1.43,0,0,1,1.39-1.46H7.64V15a1.45,1.45,0,0,1,1.45-1.44H23.43a14.74,14.74,0,0,0,1.49-.15m0-2h-.65a4.82,4.82,0,0,1-.76,0H9.14a3.47,3.47,0,0,0-3.32,2.89H3.32A3.44,3.44,0,0,0,0,17.84v8.64a3.43,3.43,0,0,0,3.32,3.43H5.69a3.45,3.45,0,0,0,2.87,2.85l5.32,14.18A4.85,4.85,0,0,0,17.48,50a4.34,4.34,0,0,0,1,.1,4.83,4.83,0,0,0,3.45-1.46l3.45-3.42a4.88,4.88,0,0,0,.89-5.68l-3.32-6.74h.54l.76.09H25a2.08,2.08,0,0,0,1.36-.52A2,2,0,0,0,27,30.87V13.3a2,2,0,0,0-.65-1.48A2.07,2.07,0,0,0,25,11.31Z"/><path class="cls-1" d="M46.57,2a2,2,0,0,1,.42.08h.1a1.36,1.36,0,0,1,.59.47.41.41,0,0,1,.1.13,1.42,1.42,0,0,1,.24.75V40.87a1.38,1.38,0,0,1-.24.73l-.1.15a1.27,1.27,0,0,1-.59.45h0a1.42,1.42,0,0,1-.5.08,1.67,1.67,0,0,1-.58-.12h-.13a1.6,1.6,0,0,1-.35-.28h0A30.24,30.24,0,0,0,27.86,31.37V13A30.17,30.17,0,0,0,45.46,2.52h0a1.61,1.61,0,0,1,.63-.4h.15a1.31,1.31,0,0,1,.28,0m0-2a2.3,2.3,0,0,0-.69.1,1.37,1.37,0,0,0-.35.08,3.33,3.33,0,0,0-1.34.8L44,1.24l-.13.14a28.33,28.33,0,0,1-16.45,9.74,2,2,0,0,0-1.65,2V31.37a2,2,0,0,0,1.65,2,28.33,28.33,0,0,1,16.45,9.74l.22.22a3.85,3.85,0,0,0,.63.5,1.76,1.76,0,0,0,.38.21h0a3.39,3.39,0,0,0,1.37.28,3.56,3.56,0,0,0,1.13-.18l.3-.13a3.56,3.56,0,0,0,1.28-1l.18-.26a3.31,3.31,0,0,0,.56-1.83V3.43a3.25,3.25,0,0,0-.54-1.79,2.71,2.71,0,0,0-.24-.35,3.4,3.4,0,0,0-1.24-1,1.69,1.69,0,0,0-.31-.13A1.47,1.47,0,0,0,47.24.1a2.86,2.86,0,0,0-.77-.1Z"/><path class="cls-1" d="M46.57,2a2,2,0,0,1,.42.08h.1a1.36,1.36,0,0,1,.59.47.41.41,0,0,1,.1.13,1.42,1.42,0,0,1,.24.75V40.87a1.38,1.38,0,0,1-.24.73l-.1.15a1.27,1.27,0,0,1-.59.45h0a1.42,1.42,0,0,1-.5.08,1.67,1.67,0,0,1-.58-.12h-.13a1.6,1.6,0,0,1-.35-.28h0A30.24,30.24,0,0,0,27.86,31.37V13A30.17,30.17,0,0,0,45.46,2.52h0a1.61,1.61,0,0,1,.63-.4h.15a1.31,1.31,0,0,1,.28,0M25,13.5V31.07c-.48,0-1-.12-1.48-.13H19.66l4.85,9.66A2.91,2.91,0,0,1,24,43.92l-3.47,3.43a2.76,2.76,0,0,1-2,.85,2.72,2.72,0,0,1-.57,0,2.84,2.84,0,0,1-2.12-1.91L10,30.87H9.14a1.44,1.44,0,0,1-1.45-1.44V28H3.32a1.43,1.43,0,0,1-1.43-1.43V17.91a1.43,1.43,0,0,1,1.39-1.46H7.64V15a1.45,1.45,0,0,1,1.45-1.44H23.43a14.74,14.74,0,0,0,1.49-.15M46.47.05a2,2,0,0,0-.69.1,1.37,1.37,0,0,0-.35.08,3.33,3.33,0,0,0-1.34.8L44,1.16l-.13.13A28.29,28.29,0,0,1,27.37,11a2,2,0,0,0-1.26.81,2,2,0,0,0-1.24-.43h-.6a4.82,4.82,0,0,1-.76,0H9.14a3.47,3.47,0,0,0-3.32,2.89H3.32A3.44,3.44,0,0,0,0,17.84v8.64a3.43,3.43,0,0,0,3.32,3.43H5.69a3.45,3.45,0,0,0,2.87,2.85l5.32,14.18A4.85,4.85,0,0,0,17.48,50a4.34,4.34,0,0,0,1,.1,4.83,4.83,0,0,0,3.45-1.46l3.45-3.42a4.88,4.88,0,0,0,.89-5.68l-3.32-6.74h.54l.76.09H25a2,2,0,0,0,1.24-.43,2,2,0,0,0,1.26.81A28.35,28.35,0,0,1,43.92,43l.22.21a3.38,3.38,0,0,0,.63.5,1.79,1.79,0,0,0,.38.22h0a3.77,3.77,0,0,0,1.37.28A3.87,3.87,0,0,0,47.65,44l.3-.14a3.53,3.53,0,0,0,1.28-1l.18-.27A3.28,3.28,0,0,0,50,40.79V3.43a3.25,3.25,0,0,0-.54-1.79,2.71,2.71,0,0,0-.24-.35A3.4,3.4,0,0,0,48,.31a1.69,1.69,0,0,0-.31-.13A1.47,1.47,0,0,0,47.29.1a2.86,2.86,0,0,0-.77-.1Z"/></svg>