<svg id="圖層_1" data-name="圖層 1" xmlns="http://www.w3.org/2000/svg" viewBox="0 0 51.85 64.82"><defs><style>.cls-1{fill:#070001;}.cls-2{fill:#231815;}</style></defs><title>表單申請</title><circle class="cls-1" cx="12.62" cy="37.18" r="4.13"/><circle class="cls-1" cx="25.89" cy="37.18" r="4.13" transform="translate(-3.54 2.73) rotate(-5.65)"/><circle class="cls-1" cx="39.18" cy="37.18" r="4.13"/><path class="cls-1" d="M51.85,52.65V52.5h0V14.59a6.48,6.48,0,0,0-6.48-6.48,2.92,2.92,0,0,0-.83.12,6.47,6.47,0,0,0-5.65-3.36h-1.8A6.51,6.51,0,0,0,30.82,0H21a6.48,6.48,0,0,0-6.26,4.87H13A6.49,6.49,0,0,0,7.31,8.23a2.92,2.92,0,0,0-.83-.12A6.48,6.48,0,0,0,0,14.59V58.35a6.48,6.48,0,0,0,6.48,6.47H45.34a6.48,6.48,0,0,0,6.48-6.47V53.64h0ZM13,8.12h4.87V6.5A3.23,3.23,0,0,1,21,3.29h9.74A3.23,3.23,0,0,1,34,6.52V8.14h4.89a3.25,3.25,0,0,1,.49,6.48,2,2,0,0,1-.49,0H13a3.25,3.25,0,1,1-.49-6.48H13ZM48.57,58.35a3.24,3.24,0,0,1-3.23,3.24H6.46a3.26,3.26,0,0,1-3.25-3.24V14.61a3.27,3.27,0,0,1,3.25-3.25A6.46,6.46,0,0,0,13,17.86h25.9a6.5,6.5,0,0,0,6.49-6.49,3.26,3.26,0,0,1,3.23,3.25V55.88h0V57h0Z"/><circle class="cls-2" cx="25.91" cy="9.28" r="2.64"/></svg>