<svg id="圖層_1" data-name="圖層 1" xmlns="http://www.w3.org/2000/svg" viewBox="0 0 34.95 28.18"><defs><style>.cls-1{fill:#231815;opacity:0.8;isolation:isolate;}</style></defs><title>轉存</title><path class="cls-1" d="M30.6,12c0-.38.11-.75.11-1.14A10.82,10.82,0,0,0,9.27,8.78C4.3,9.23,0,13.36,0,18.44,0,23.73,4.73,28,9.06,28.16h6.49V19.48H12.33c-.59,0-.8-.38-.4-.84l7.31-9.13a.81.81,0,0,1,1.11-.24.69.69,0,0,1,.24.24l7.26,9.17c.37.46.18.84-.42.84H24.21v8.66h2.17A9,9,0,0,0,35,19.53,8.5,8.5,0,0,0,30.6,12Z"/></svg>