<svg id="圖層_1" data-name="圖層 1" xmlns="http://www.w3.org/2000/svg" viewBox="0 0 99.21 99.21"><defs><style>.cls-1{fill:#55beb7;}</style></defs><title>送出</title><path class="cls-1" d="M96.11,0H58.91C57.2,0,56.79,1,58,2.19L71.41,15.6l-32,31.81a3.11,3.11,0,0,0,0,4.39l8,8a3.19,3.19,0,0,0,4.43,0L84.41,28.59,97,41.21c1.21,1.2,2.19.8,2.19-.9V3.1A3.1,3.1,0,0,0,96.11,0Z"/><path class="cls-1" d="M74.41,99.21H18.6A18.62,18.62,0,0,1,0,80.61V24.8A18.62,18.62,0,0,1,18.6,6.2H39.81a6.2,6.2,0,0,1,0,12.4H18.6a6.21,6.21,0,0,0-6.2,6.2V80.61a6.21,6.21,0,0,0,6.2,6.2H74.41a6.21,6.21,0,0,0,6.2-6.2V59.83a6.2,6.2,0,0,1,12.4,0V80.61A18.62,18.62,0,0,1,74.41,99.21Z"/></svg>