<svg id="圖層_1" data-name="圖層 1" xmlns="http://www.w3.org/2000/svg" viewBox="0 0 79.03 54.93"><defs><style>.cls-1{fill:#3799c6;}</style></defs><title>通知</title><path class="cls-1" d="M35.27,49.37a4.4,4.4,0,0,0,8.5,0Zm4.24,5.56a6.71,6.71,0,0,1-6.72-6.71v-.08A1.15,1.15,0,0,1,34,47H45.07a1.17,1.17,0,0,1,1.17,1.15,6.73,6.73,0,0,1-6.73,6.72Z"/><path class="cls-1" d="M61.68,39.79H17.34A4.51,4.51,0,0,0,16,48.7a4.56,4.56,0,0,0,1.38,0H61.66a4.51,4.51,0,0,0,0-8.91Z"/><path class="cls-1" d="M15.38,6.63a1.82,1.82,0,0,0-3-1.54,14.26,14.26,0,0,0-1.6,20.1c.24.28.49.55.74.81a1.79,1.79,0,0,0,1.2.51A1.76,1.76,0,0,0,14.1,26a1.78,1.78,0,0,0,.05-2.52l-.05-.05a10.55,10.55,0,0,1,0-14.92c.21-.21.44-.42.67-.62A1.74,1.74,0,0,0,15.38,6.63Z"/><path class="cls-1" d="M3.67,15.2A19,19,0,0,1,8.09,3.7a1.78,1.78,0,0,0-.17-2.51A1.7,1.7,0,0,0,7.29.84a1.78,1.78,0,0,0-2,.6A22.82,22.82,0,0,0,4.07,29a1.79,1.79,0,0,0,1.48.87,2.17,2.17,0,0,0,.51,0,1.77,1.77,0,0,0,1.37-2.11,1.6,1.6,0,0,0-.32-.7A19.18,19.18,0,0,1,3.67,15.2Z"/><path class="cls-1" d="M64.4,24.66a1.78,1.78,0,0,0,1.78,1.78,1.81,1.81,0,0,0,1.29-.53,14.26,14.26,0,0,0-.77-21,1.87,1.87,0,0,0-1.25-.42,1.75,1.75,0,0,0-1.32.64,1.78,1.78,0,0,0,.14,2.51l.06,0a10.54,10.54,0,0,1,1.22,14.85c-.21.24-.42.47-.65.69A1.79,1.79,0,0,0,64.4,24.66Z"/><path class="cls-1" d="M75.41,15.22A19.07,19.07,0,0,1,71.85,27a1.82,1.82,0,1,0,3,2,22.82,22.82,0,0,0-1-27.56A1.76,1.76,0,0,0,72.35.73a2.09,2.09,0,0,0-.5,0,1.78,1.78,0,0,0-1.23,2.2,1.86,1.86,0,0,0,.39.7A19.14,19.14,0,0,1,75.41,15.22Z"/><path class="cls-1" d="M38.72,6.11a1.3,1.3,0,0,0-1.06,2.16,1.22,1.22,0,0,0,.89.44A13.55,13.55,0,0,1,51,21.18a1.31,1.31,0,0,0,1.3,1.2h.11a1.27,1.27,0,0,0,.89-.45,1.29,1.29,0,0,0,.3-.94A16.16,16.16,0,0,0,38.72,6.11Z"/><path class="cls-1" d="M52.69,5.17a19.39,19.39,0,0,0-32.5,12.68l-1.44,19a1.79,1.79,0,0,0,.45,1.34,1.75,1.75,0,0,0,1.22.62h.15a1.78,1.78,0,0,0,1.78-1.67l1.44-19a15.73,15.73,0,0,1,31.38,0l1.43,19a1.78,1.78,0,0,0,1.78,1.67h.14a1.77,1.77,0,0,0,1.68-1.88v-.08l-1.36-19A19.29,19.29,0,0,0,52.69,5.17Z"/></svg>