<svg xmlns="http://www.w3.org/2000/svg" id="圖層_1" viewBox="0 0 50.03 50.03">
    <style>
        .st0{fill:#ec6968}.st1{fill:#fff}
    </style>
    <circle cx="25.01" cy="25.01" r="25.01" class="st0"/>
    <path d="M32.25 11.12a2.759 2.759 0 0 0-2.74-2.43h-9c-1.42 0-2.57 1.06-2.74 2.43H12.3v30.22h25.42V11.12h-5.47zm-7.24-.97c.57 0 1.03.42 1.1.97.01.05.01.09.01.14 0 .62-.5 1.12-1.12 1.12s-1.12-.5-1.12-1.12c0-.05.01-.1.01-.14.09-.55.56-.97 1.12-.97zM35.06 30.6v8.03H14.97V13.51h20.1V30.6z" class="st1"/>
    <path d="M18 17.13c-.36 0-.65.29-.65.65 0 .36.29.65.65.65h14.03c.36 0 .65-.29.65-.65 0-.36-.29-.65-.65-.65H18zM32.03 20.56H18c-.36 0-.65.29-.65.65 0 .36.29.65.65.65h14.03c.36 0 .65-.29.65-.65 0-.36-.29-.65-.65-.65zM32.03 23.98H18c-.36 0-.65.29-.65.65 0 .36.29.65.65.65h14.03c.36 0 .65-.29.65-.65 0-.35-.29-.65-.65-.65zM32.03 27.41H18c-.36 0-.65.29-.65.65 0 .36.29.65.65.65h14.03c.36 0 .65-.29.65-.65 0-.36-.29-.65-.65-.65zM32.03 30.84H18c-.36 0-.65.29-.65.65 0 .36.29.65.65.65h14.03c.36 0 .65-.29.65-.65 0-.36-.29-.65-.65-.65zM32.03 34.27H18c-.36 0-.65.29-.65.65 0 .36.29.65.65.65h14.03c.36 0 .65-.29.65-.65 0-.36-.29-.65-.65-.65z" class="st1"/>
</svg>
