<svg xmlns="http://www.w3.org/2000/svg" viewBox="0 0 53.13 27.01"><defs><style>.cls-1{fill:#fff;}</style></defs><title>資產 1</title><g id="圖層_2" data-name="圖層 2"><g id="圖層_1-2" data-name="圖層 1"><path class="cls-1" d="M41.22,4.34c-2.72-2.12-9-3.71-16-4.18C24,.06,22.69,0,21.41,0s-2.34.06-3.49.12h0C10.77.56,4.35,2.19,1.6,4.34A4,4,0,0,0,0,7.61a3.49,3.49,0,0,0,1.12,2.84C3.66,12.76,11,15,17.92,15.69a32.2,32.2,0,0,0,3.49.17c1.22,0,2.53-.09,3.81-.22,6.8-.69,14-2.93,16.44-5.21a3.52,3.52,0,0,0,1.15-2.82A4,4,0,0,0,41.22,4.34ZM35,10.48c-1.59,1.84-5.18,3.43-9.79,4a30.47,30.47,0,0,1-3.81.25,31.86,31.86,0,0,1-3.49-.22c-4.78-.57-8.49-2.16-10.14-4.06a4.33,4.33,0,0,1-.9-2.59A4,4,0,0,1,8.53,4.68c1.74-1.34,5.15-2.7,9.39-3.31a34.29,34.29,0,0,1,3.49-.25,33.16,33.16,0,0,1,3.81.32,20.75,20.75,0,0,1,9.07,3.24A4.06,4.06,0,0,1,36,7.86,4.2,4.2,0,0,1,35,10.48Z"/><path class="cls-1" d="M24.62,5.69a2,2,0,0,0,.6-.15,4.74,4.74,0,0,0,.87-.44,3.86,3.86,0,0,0,.59-.62,2.39,2.39,0,0,0,0-1.13A2.54,2.54,0,0,0,26,2.86a1.32,1.32,0,0,0-.81,0,1.11,1.11,0,0,0-.47.37,3.49,3.49,0,0,0-1.06,2.49A2.86,2.86,0,0,0,24.62,5.69Zm-6.7-.43c.25.12.53.22.72.31s.59.15.68,0a1.74,1.74,0,0,0,0-1.06,3.38,3.38,0,0,0-.62-1.28,2.09,2.09,0,0,0-.78-.66h-.1a1,1,0,0,0-.87.1A1.34,1.34,0,0,0,16.45,4,2.46,2.46,0,0,0,17.92,5.26Zm7.3,6h-.07a.53.53,0,0,1-.31-.49V8.65h1.93V6.41h-4v-4H20.26v4H16.11V8.65H18C18,9.1,18,9.59,18,10a.8.8,0,0,1-.06.37,5.71,5.71,0,0,1-.41,1.13c-.34.52-.69,1-1,1.52,0,.28.25.28.38.25a9,9,0,0,0,1.06-.62l1-.72a5.76,5.76,0,0,0,1.27-1.5,5.33,5.33,0,0,0,.72-1.33l.1-.41h1l.25.16v3.47a1.18,1.18,0,0,0,.72.9l1.53.06h1.18a2.32,2.32,0,0,0,1.19-2Z"/><path class="cls-1" d="M36.78,20.2c0-.08.09-.21.18-.21h3.31c.09,0,.19.13.19.21v1.09h1V20a.83.83,0,0,0-.8-.86H39.18a5.41,5.41,0,0,1-.34-.87H37.63a8.65,8.65,0,0,0,.34.87H36.63a.83.83,0,0,0-.88.78s0,.05,0,.08v1.26h1Zm-.87,2.85H37.3a3.31,3.31,0,0,0,1.08-2.46H37.29A3.28,3.28,0,0,1,35.91,23.05Zm3-2.46v1.48a.91.91,0,0,0,.81,1h1.52l.25-.82H40.2A.2.2,0,0,1,40,22V20.59ZM35.63,22c-.21.1-.5.24-.73.33V20.86h.59V20H34.9V18.3H33.71V20h-.92v.87h.93v2a9.44,9.44,0,0,1-1,.35v1l1-.37V26a.23.23,0,0,1-.23.23H32.8l.27.81H34a.88.88,0,0,0,.91-.85h0V23.28L35.6,23Zm3.53,4.15V24.33H41.3V23.5H35.89v.83h2v1.86H35.51V27h6v-.82Z"/><path class="cls-1" d="M29.11,25.8a13.89,13.89,0,0,0,.66-1.94H28.6a7.72,7.72,0,0,1-.77,1.91Zm-4.4-1.94H23.5a17.46,17.46,0,0,0,.72,1.91h1.3A11.06,11.06,0,0,1,24.71,23.86Zm2.62-.4h3.35V22.6H27.33V21.48h1.49v-.74c.4.48.59.69.75.85h1.6A17,17,0,0,1,29,19a1.13,1.13,0,0,0-.94-.58H25.25a1.14,1.14,0,0,0-.94.58,17,17,0,0,1-2.21,2.57h1.6c.16-.16.36-.37.75-.84v.73h1.49v1.15H22.59v.86h3.35v2.65H22.3V27H31v-.86H27.33Zm-2.76-2.88c.23-.28.54-.65.93-1.15a.37.37,0,0,1,.34-.17h1.61a.35.35,0,0,1,.33.17l.93,1.15Z"/><path class="cls-1" d="M1.3,26.71H2.37A19.65,19.65,0,0,0,3,23.86H2A23.93,23.93,0,0,1,1.3,26.71ZM6,22.62H4.41V22H6v-.83h-.8c.11-.38.22-.83.3-1.21h.41v-.83H4.38a7.83,7.83,0,0,1-.28-.81H2.93c.07.25.17.56.27.81H1.69v.83h.42c.08.38.18.83.29,1.21H1.61V22H3.26v.66H1.61v.83H3.26V27H4.41V23.45H6ZM4.24,21.13H3.36c-.1-.37-.21-.86-.27-1.21H4.53C4.46,20.27,4.35,20.76,4.24,21.13Zm3.39,0V19.86a.2.2,0,0,1,.18-.21,15.49,15.49,0,0,0,2.27-.47v-.82c-.94.2-2,.39-3,.54a.65.65,0,0,0-.41.21.81.81,0,0,0-.19.52v4a6.3,6.3,0,0,1-.75,3.3H7A9,9,0,0,0,7.68,23v-1.1h.87v5H9.66v-5h.54v-.83Zm-2,2.7h-1A18.54,18.54,0,0,0,5,26.06H6a14.72,14.72,0,0,1-.37-2.2Z"/><path class="cls-1" d="M20,18.75H18.78a8.53,8.53,0,0,1-1.18,2.61H19A9.68,9.68,0,0,0,20,18.75ZM14.9,21.36a12.12,12.12,0,0,1-1.21-2.61H12.46a14.3,14.3,0,0,0,1.13,2.61Zm3.72,4.74a.31.31,0,0,1-.33-.29s0,0,0,0v-3h2.26v-.92H16.89v-3.6H15.56v3.6H11.85v.88h2.28A4.22,4.22,0,0,1,11.65,27h1.94c.66-.46,1.9-1.43,1.84-4.24H17v3.17c0,.78.44,1.07.92,1.07h2.55l.38-.89Z"/><rect class="cls-1" x="50.75" width="2.38" height="26.99"/></g></g></svg>