<svg xmlns="http://www.w3.org/2000/svg" id="圖層_1" data-name="圖層 1" viewBox="0 0 75.32 32.42">
    <defs>
        <style>
            .cls-1{fill:#f3f3f3}.cls-2{fill:#d82b17}.cls-3{fill:#fff}
        </style>
    </defs>
    <path d="M61.59 0H13.73A13.77 13.77 0 0 0 0 13.73v5a13.76 13.76 0 0 0 13.73 13.69h47.86A13.76 13.76 0 0 0 75.32 18.7v-5A13.77 13.77 0 0 0 61.59 0zm6.5 17.85A9.11 9.11 0 0 1 59 26.94H16.31a9.11 9.11 0 0 1-9.08-9.09v-3.28a9.11 9.11 0 0 1 9.08-9.08H59a9.11 9.11 0 0 1 9.08 9.08z" class="cls-1"/>
    <rect width="60.86" height="21.45" x="7.23" y="5.49" class="cls-2" rx="9.08" ry="9.08"/>
    <path d="M15.28 9.85a1 1 0 0 1 .28-.71.88.88 0 0 1 .67-.28.93.93 0 0 1 .7.29 1 1 0 0 1 .28.7.94.94 0 0 1-.28.68 1 1 0 0 1-.7.29.87.87 0 0 1-.68-.28 1 1 0 0 1-.27-.69zm.2 13.3v-9.78h1.46v9.78zM32 11.09h-5.88v-.92h2.7a11.84 11.84 0 0 0-.74-1.73l.9-.27a15 15 0 0 1 .86 2H32zm-.46 2.62h-5v-.94h5zm0 2.49h-5v-.93h5zm-.17 7.44h-.95v-.94h-2.81v1.37h-1V18h4.69zm-.95-1.89V19h-2.81v2.77zm11.35-1.68a7.32 7.32 0 0 1-.48 3.14 1.4 1.4 0 0 1-1.26.63h-1.51a1 1 0 0 1-.73-.34 1.07 1.07 0 0 1-.33-.78v-5.51H35.8a7.75 7.75 0 0 1-3.33 7.05l-.73-.69a6.11 6.11 0 0 0 2.38-2.66 7.93 7.93 0 0 0 .79-3.7h-1.79v-4.82h7.3v4.82h-2v5.38c0 .06 0 .12.13.19a.33.33 0 0 0 .23.11H40c.34 0 .55-.21.62-.63a22 22 0 0 0 .21-2.44zM36 8.79a15.05 15.05 0 0 1-3.35 3.54l-.77-.7a12.94 12.94 0 0 0 3.37-3.37zm3.47 7.41v-2.8H34.1v2.8zm2.32-4.65l-.74.71A18.66 18.66 0 0 0 37.55 9l.65-.7a29.53 29.53 0 0 1 3.56 3.25zM50.89 21.54H50v-1.21h-3.56V22h-.93V9h5.38zM50 14.08V9.91h-3.56v4.17zm0 5.32V15h-3.56v4.4zm10 3.21a1.47 1.47 0 0 1-.28.91 1.21 1.21 0 0 1-.7.49 14.2 14.2 0 0 1-2.66.06l-.4-.92h1.33a5.9 5.9 0 0 0 1.6-.11.4.4 0 0 0 .2-.37v-4.39H53.8a13.55 13.55 0 0 1-2 5.85l-.8-.55q2-2.88 2.05-8.49V8.64h7zm-.91-5.25v-3.58H54c0 1.22 0 2.42-.11 3.58zm0-4.48V9.55H54v3.33z" class="cls-3"/>
</svg>
