<svg xmlns="http://www.w3.org/2000/svg" id="圖層_1" viewBox="0 0 69.9 64.8">
    <style>
        .st0{fill:#56bdb7}
    </style>
    <path d="M65.6 41.5c.2 0 .3.1.4.2l3.6 4c.3.3.3.8 0 1L53.1 62.4c-.2.2-.4.2-.7.2-.1 0-.3-.1-.4-.2L40.6 50.7c-.3-.3-.3-.8 0-1.1l3.9-3.9c.2-.2.4-.2.7-.2.1 0 .3.1.4.2l6.8 6.9c.1.1.2.2.4.2s.5 0 .7-.2l11.7-11c.2-.1.4-.2.7-.2M29.9 40.2v11.2c0 .9-.8 1.6-1.7 1.6-.9 0-1.7-.7-1.7-1.7V40.2c-.5-.2-.9-.5-1.2-.9l-8.1 3.9c-.8.4-1.8.1-2.2-.8-.4-.8 0-1.8.8-2.2l8.4-4c.2-2.2 2.1-3.8 4.3-3.6 2.2.2 3.8 2.1 3.6 4.3 0 1.5-.9 2.8-2.2 3.3z" class="st0"/>
    <path d="M29.9 60.1v-1.2c0-.9-.7-1.7-1.7-1.7-.9 0-1.7.7-1.7 1.7v1.2C14.9 59.3 5.6 50 4.8 38.2H6c.9 0 1.7-.7 1.7-1.7 0-.9-.7-1.7-1.7-1.7H4.8c.8-11.7 10.1-21 21.8-21.8v1.1c0 .9.7 1.7 1.7 1.7.9 0 1.7-.7 1.7-1.7V13c11.7.8 21 10.1 21.8 21.8h-1.2c-.9 0-1.7.7-1.7 1.7 0 .9.7 1.7 1.7 1.7h1.2c-.2 3.2-1.1 6.3-2.6 9.2l3.4 3.4c6.2-10.4 4.9-23.6-3.1-32.8l4.9-4.9L50.2 9l-5.1 5.1c-3.9-2.9-8.5-4.8-13.3-5.4V5.6H33c1.4 0 2.4-1.1 2.5-2.5v-.6C35.4 1.1 34.4 0 33 0h-9.5C22.1 0 21 1.1 21 2.4v.7c0 1.4 1.1 2.5 2.5 2.5h1.2v3.1c-4.9.6-9.6 2.6-13.6 5.6L5.8 9l-4.2 4.2 5.2 5.2C-3.3 30.2-2 47.9 9.8 58c10.3 8.8 25.4 9 36 .5l-3.2-3.3c-3.7 2.9-8.1 4.5-12.7 4.9z" class="st0"/>
    <path d="M28.2 32.5c-2 0-3.7 1.6-3.9 3.7l-8.4 4c-.8.5-1 1.5-.6 2.3.4.7 1.2 1 2 .7l8.1-3.9c.3.4.8.6 1.2.8v11.2c0 .9.8 1.7 1.7 1.7.9 0 1.7-.7 1.7-1.7V40.2c2-.9 3-3.2 2.1-5.3-.8-1.5-2.2-2.4-3.9-2.4z" class="st0"/>
</svg>
