<svg xmlns="http://www.w3.org/2000/svg" id="圖層_1" viewBox="0 0 49.7 49.7">
    <style>
        .st0{fill:#eb6868}
    </style>
    <path d="M19.9 32.2l-2.4-2.4-2.7 2.7 2.4 2.4 2.7-2.7z" class="st0"/>
    <path d="M44.2 5.5c-7.3-7.3-19.2-7.3-26.5 0s-7.3 19.2 0 26.5 19.2 7.3 26.5 0c7.3-7.2 7.4-19 .2-26.3l-.2-.2zm-2.7 23.7c-5.8 5.8-15.2 5.8-21 0s-5.8-15.2 0-21 15.2-5.8 21 0c5.7 5.8 5.7 15.3 0 21zM13.4 37.3l-9.5 9.5c-.3.3-.7.3-1 0-.3-.3-.3-.7 0-1l9.5-9.5 1 1m3.8 0l-4.8-4.8L1 43.9c-1.3 1.3-1.3 3.5 0 4.8 1.3 1.3 3.5 1.3 4.8 0l11.4-11.4zM17.5 35.3l-3.1-3.1c-.5-.5-1.2-.5-1.7 0l-.3.3 4.8 4.8.3-.3c.5-.5.5-1.2 0-1.7z" class="st0"/>
</svg>
