<svg xmlns="http://www.w3.org/2000/svg" id="圖層_1" data-name="圖層 1" viewBox="0 0 131.37 29.83">
    <defs>
        <style>
            .cls-1,.cls-2{fill:#d82b17}.cls-2{fill-rule:evenodd}
        </style>
    </defs>
    <path d="M41.21 4.48c-2.72-2.12-9-3.71-16-4.18C24 .2 22.68.14 21.4.14s-2.34.06-3.49.12C10.76.7 4.34 2.33 1.59 4.48A4 4 0 0 0 0 7.75a3.49 3.49 0 0 0 1.12 2.84c2.53 2.31 9.9 4.52 16.79 5.24a32.2 32.2 0 0 0 3.49.17c1.22 0 2.53-.09 3.81-.22 6.8-.69 14-2.93 16.44-5.21a3.52 3.52 0 0 0 1.15-2.82 4 4 0 0 0-1.59-3.27zM35 10.62c-1.59 1.84-5.18 3.43-9.79 4a30.47 30.47 0 0 1-3.81.25 31.86 31.86 0 0 1-3.49-.22c-4.78-.57-8.49-2.16-10.14-4.06A4.33 4.33 0 0 1 6.87 8a4 4 0 0 1 1.65-3.18c1.74-1.34 5.15-2.7 9.39-3.31a34.29 34.29 0 0 1 3.49-.25 33.16 33.16 0 0 1 3.81.32 20.75 20.75 0 0 1 9.07 3.24A4.06 4.06 0 0 1 35.94 8a4.2 4.2 0 0 1-.94 2.62z" class="cls-1"/>
    <path d="M24.61 5.83a2 2 0 0 0 .6-.15 4.74 4.74 0 0 0 .87-.44 3.86 3.86 0 0 0 .59-.62 2.39 2.39 0 0 0 0-1.13A2.54 2.54 0 0 0 26 3a1.32 1.32 0 0 0-.81 0 1.11 1.11 0 0 0-.47.37 3.49 3.49 0 0 0-1.06 2.49 2.86 2.86 0 0 0 .95-.03zm-6.7-.43c.25.12.53.22.72.31s.59.15.68 0a1.74 1.74 0 0 0 0-1.06 3.38 3.38 0 0 0-.62-1.28 2.09 2.09 0 0 0-.78-.66h-.1a1 1 0 0 0-.87.1 1.34 1.34 0 0 0-.5 1.37 2.46 2.46 0 0 0 1.47 1.22zm7.3 6h-.07a.53.53 0 0 1-.31-.49V8.79h1.93V6.55H22.74v-4h-2.49v4H16.1v2.24H18c0 .45-.06.94-.06 1.35 0 .12 0 .25-.06.37a5.71 5.71 0 0 1-.41 1.13c-.34.52-.69 1-1 1.52 0 .28.25.28.38.25a9 9 0 0 0 1.06-.62l1-.72a5.76 5.76 0 0 0 1.27-1.5 5.33 5.33 0 0 0 .72-1.33l.1-.41h1l.25.16v3.47a1.18 1.18 0 0 0 .72.9l1.53.06h1.18a2.32 2.32 0 0 0 1.19-2z" class="cls-2"/>
    <path d="M36.77 20.34c0-.08.09-.21.18-.21h3.31c.09 0 .19.13.19.21v1.09h1v-1.26a.83.83 0 0 0-.88-.86h-1.4a5.41 5.41 0 0 1-.34-.87h-1.21a8.65 8.65 0 0 0 .34.87h-1.34a.83.83 0 0 0-.88.86v1.26h1zm-.87 2.85h1.39a3.31 3.31 0 0 0 1.08-2.46h-1.09a3.28 3.28 0 0 1-1.38 2.46zm3-2.46v1.48a.91.91 0 0 0 1 1h1.33l.25-.82h-1.29a.2.2 0 0 1-.23-.21v-1.45zm-3.28 1.45c-.21.1-.5.24-.73.33V21h.59v-.85h-.59v-1.71H33.7v1.69h-.92V21h.93v2a9.44 9.44 0 0 1-1 .35v.95l1-.37v2.17a.23.23 0 0 1-.25.23h-.67l.27.81h.89a.88.88 0 0 0 .91-.86v-2.86l.73-.31zm3.53 4.15v-1.86h2.14v-.83h-5.41v.83h2v1.86H35.5v.82h6v-.82zM29.1 25.94a13.89 13.89 0 0 0 .66-1.94h-1.17a7.72 7.72 0 0 1-.77 1.91zM24.7 24h-1.21a17.46 17.46 0 0 0 .72 1.91h1.3A11.06 11.06 0 0 1 24.7 24zm2.62-.4h3.35v-.86h-3.35v-1.12h1.49v-.74c.4.48.59.69.75.85h1.6A17 17 0 0 1 29 19.16a1.13 1.13 0 0 0-.94-.58h-2.82a1.14 1.14 0 0 0-.94.58 17 17 0 0 1-2.21 2.57h1.6c.16-.16.36-.37.75-.84v.73h1.49v1.15h-3.35v.86h3.35v2.65h-3.64v.86H31v-.86h-3.68zm-2.76-2.88c.23-.28.54-.65.93-1.15a.37.37 0 0 1 .34-.17h1.61a.35.35 0 0 1 .33.17l.93 1.15zM1.29 26.85h1.07A19.65 19.65 0 0 0 3 24H2a23.93 23.93 0 0 1-.71 2.85zM6 22.76H4.4v-.66H6v-.83h-.8c.11-.38.22-.83.3-1.21h.41v-.83H4.37a7.83 7.83 0 0 1-.28-.81H2.92c.07.25.17.56.27.81H1.68v.83h.42c.08.38.18.83.29 1.21H1.6v.83h1.65v.66H1.6v.83h1.65v3.54H4.4v-3.54H6zm-1.77-1.49h-.88c-.1-.37-.21-.86-.27-1.21h1.44c-.07.35-.18.84-.29 1.21zm3.39 0V20a.2.2 0 0 1 .18-.21 15.49 15.49 0 0 0 2.27-.47v-.82c-.94.2-2 .39-3 .54a.65.65 0 0 0-.41.21.81.81 0 0 0-.19.52v4a6.3 6.3 0 0 1-.75 3.3H7a9 9 0 0 0 .67-3.91v-1.1h.87v5h1.11v-5h.54v-.83zm-2 2.7h-1A18.54 18.54 0 0 0 5 26.2h1a14.72 14.72 0 0 1-.37-2.2zM20 18.89h-1.23a8.53 8.53 0 0 1-1.18 2.61h1.35A9.68 9.68 0 0 0 20 18.89zm-5.11 2.61a12.12 12.12 0 0 1-1.21-2.61h-1.23a14.3 14.3 0 0 0 1.13 2.61zm3.72 4.74a.31.31 0 0 1-.33-.32v-3h2.26V22h-3.66v-3.6h-1.33V22h-3.71v.88h2.28a4.22 4.22 0 0 1-2.48 4.24h1.94c.66-.46 1.9-1.43 1.84-4.24H17v3.17c0 .78.44 1.07.92 1.07h2.55l.38-.89zM50.74.14h2.38v26.99h-2.38zM68.15 10h-1.68a34.66 34.66 0 0 0 .5 3.9h1.75a28 28 0 0 1-.57-3.9zm3.5-7a.38.38 0 0 1 .35-.41 27 27 0 0 0 4-.82V.32c-1.66.36-3.61.7-5.33 1a1.12 1.12 0 0 0-.72.37 1.43 1.43 0 0 0-.33.91v7.09a11.1 11.1 0 0 1-1.33 5.81h2.2c1-1.83 1.18-4.54 1.18-6.89V6.66h1.54v8.84h2V6.66h1V5.2h-4.56zm-2.87 4.79H66V6.63h2.8V5.16h-1.4c.19-.66.39-1.46.53-2.12h.71V1.58h-2.71a14.44 14.44 0 0 1-.49-1.44h-2.06c.12.44.3 1 .47 1.44H61.2V3h.73c.13.66.32 1.46.5 2.12h-1.38v1.51H64v1.16h-2.95v1.47H64v6.24h2V9.26h2.79zm-3.09-2.63h-1.55c-.14-.65-.36-1.51-.48-2.16h2.54c-.12.65-.33 1.51-.51 2.16zM93.48 1h-2.17a15.38 15.38 0 0 1-2.08 4.6h2.38A18.31 18.31 0 0 0 93.48 1zm-9 4.6A21.33 21.33 0 0 1 82.33 1h-2.16a26.16 26.16 0 0 0 2 4.6zM60.51 15h1.88a31.81 31.81 0 0 0 1.07-5h-1.74a43.71 43.71 0 0 1-1.21 5zm29.93-1.63V8h4V6.48H88V.11h-2.37v6.37H79.1V8h4c.27 4.74-2.76 6.56-4.36 7.46h3.42C83.33 14.68 85.51 13 85.4 8h2.73v5.58c0 1.37.77 1.88 1.62 1.88h4.5l.67-1.56H91a.55.55 0 0 1-.56-.53zm16.64-6.69h-1.71A25.07 25.07 0 0 0 106 .06h-2.3c.22 8.77-3.35 12.26-6.83 15.43h3A16 16 0 0 0 105 8a26 26 0 0 0 5.13 7.5h3.32a22.65 22.65 0 0 1-6.37-8.82zm19.49 6.19h-2.84l.57 1.13h2.84zm4.8-2.13V9.48H115.8v1.26h12.39v.52h-4.55v1.23h4.55V14a.43.43 0 0 1-.4.43h-2.1l.53 1.07h2.5a1.3 1.3 0 0 0 1.37-1.26v-1.75h1.27v-1.23h-1.27v-.52zm-9-8h-5.68V4h13.77V2.78h-5.76v-.57h6.21V1h-6.21V0h-2.33v1h-6.21v1.21h6.21zm7.19 3.45v.7h1.76V6a1.55 1.55 0 0 0-.4-1.12 1.74 1.74 0 0 0-1.22-.42h-13.93V5.7h13.35c.3 0 .44.3.44.53zM116.73 7.8v1.26h13.71V7.8h-5.74v-.47h4.3V6.14h-11.61v1.19h5v.47zm5 3.41h-4.23a1.35 1.35 0 0 0-.84.29 1.08 1.08 0 0 0-.42.86V14a1.26 1.26 0 0 0 .28.81 1.08 1.08 0 0 0 .87.44h4.39a1.16 1.16 0 0 0 .85-.32A1.18 1.18 0 0 0 123 14v-1.53a1.2 1.2 0 0 0-.37-.9 1.27 1.27 0 0 0-.89-.36zm-.44 2.36a.38.38 0 0 1-.4.4h-2.53a.46.46 0 0 1-.44-.44v-.61a.37.37 0 0 1 .38-.42h2.63a.36.36 0 0 1 .36.37zM119.44 20.52a4.09 4.09 0 0 0-.14 1.65h1v.54h-1V25.49l.06 1.68h-1.55c0-.55 0-1.11.06-1.67s0-1.18 0-1.85v-.93h-.71v-.54h.71c0-2 .3-2.75 1.5-2.75a2.68 2.68 0 0 1 1.16.26v.71c-.34-.4-.93-.4-1.09.12zM109.91 21.39c0-.44 0-.89-.07-1.33H111.54c0 .44-.05.89-.06 1.33s0 .95 0 1.52v3.48h1.18c.39 0 .78-.06 1.18-.11v.21a3.38 3.38 0 0 0 0 .52v.15h-4c0-.42 0-.86.07-1.3s0-.95 0-1.52v-1.4c.02-.6.01-1.11 0-1.55zM115 19.66a.77.77 0 0 1 .57-.23.76.76 0 0 1 .58.23.82.82 0 0 1 0 1.16.8.8 0 0 1-.58.23.81.81 0 0 1-.57-.23.82.82 0 0 1 0-1.16zm-.2 7.47c0-.34.06-.7.07-1.07s0-.77 0-1.18v-.41-1.18c0-.36 0-.74-.07-1.11h1.55c0 .37-.06.74-.06 1.11V26.06c0 .37 0 .73.06 1.07zM123.5 26.62a2.17 2.17 0 0 0 1.36-.46l-.25.63a2.13 2.13 0 0 1-.62.32 3.09 3.09 0 0 1-1 .11 3.42 3.42 0 0 1-1-.13 2.2 2.2 0 0 1-.8-.46 2.37 2.37 0 0 1-.55-.81 3.14 3.14 0 0 1-.2-1.17 3.41 3.41 0 0 1 .18-1.16 2.23 2.23 0 0 1 .5-.82 2.06 2.06 0 0 1 .76-.5 2.67 2.67 0 0 1 1-.16 2 2 0 0 1 1.57.6 2.41 2.41 0 0 1 .54 1.68v.22a.35.35 0 0 1 0 .12h-3a3.71 3.71 0 0 0 .08.77 1.84 1.84 0 0 0 .26.62 1.13 1.13 0 0 0 .43.41 1.24 1.24 0 0 0 .62.15m0-3.64a.59.59 0 0 0-.57-.46.54.54 0 0 0-.38.15 1.08 1.08 0 0 0-.24.39 2.11 2.11 0 0 0-.14.55c0 .2 0 .4-.06.59h1.58a3.58 3.58 0 0 0-.07-1.16zM88.57 25.32l-.89-1.19c-.27-.36-.57-.79-.82-1.11.28-.34.57-.68.7-.82s.48-.55.74-.83.5-.55.72-.79a6.69 6.69 0 0 1 .52-.53h-1.4l-.36.46c-.2.22-.42.48-.66.77s-.5.56-.77.87l-.65.7v-.5-1.38a8.38 8.38 0 0 1 .06-.92H84.2V27.13h1.58c0-.32-.06-.74-.07-1.27s0-1.19 0-1.93v-.16c.32.45.71 1 1.24 1.73.38.54.76 1.08 1.15 1.59H90c-.15-.17-.35-.4-.6-.73zm-17.1.35v-.81-.92a2.17 2.17 0 0 0-.39-1.45 1.49 1.49 0 0 0-1.14-.49 1.73 1.73 0 0 0-.9.24 1.89 1.89 0 0 0-.66.66v-1.85c0-.56 0-1.13.06-1.71h-1.55q0 .87.06 1.71v4.38c0 .56 0 1.13-.06 1.68h1.55v-.58-.66-1.43a2.28 2.28 0 0 1 .22-1.11.72.72 0 0 1 .69-.41.73.73 0 0 1 .64.31 1.6 1.6 0 0 1 .23.95v1.67c0 .49-.05.9-.1 1.26h1.5v-.74c0-.26-.15-.48-.15-.7zm8.56 0v-.81-.92a2.17 2.17 0 0 0-.39-1.45 1.48 1.48 0 0 0-1.13-.49 1.68 1.68 0 0 0-.9.24 2.07 2.07 0 0 0-.68.67v-.77h-1.47c0 .37.06.73.07 1.1s0 .77 0 1.19V26.02c0 .37 0 .73-.07 1.07H77c0-.34-.06-.7-.07-1.07s0-.77 0-1.19v-.41a2.29 2.29 0 0 1 .21-1.11.75.75 0 0 1 .7-.41.73.73 0 0 1 .63.31 1.6 1.6 0 0 1 .23.95v1.67a10.77 10.77 0 0 1-.09 1.26h1.5v-.74c0-.26-.11-.46-.11-.68zm-6.52-6.26a.82.82 0 0 0-.83.82.78.78 0 0 0 .24.57.79.79 0 0 0 .59.24.81.81 0 0 0 .59-.24.81.81 0 0 0 0-1.15.81.81 0 0 0-.59-.24zm.72 3.87c0-.37 0-.73.07-1.11h-1.58c0 .38.06.74.07 1.11s0 .76 0 1.19V26.06c0 .37 0 .73-.07 1.07h1.58c0-.34-.06-.69-.07-1.07s0-.77 0-1.19v-.4c-.02-.47-.01-.82 0-1.19zm29.38 3.06a1.11 1.11 0 0 1-.62-.15.47.47 0 0 1-.19-.4.38.38 0 0 1 .09-.26.26.26 0 0 1 .21-.12h.47a2.68 2.68 0 0 0 .83-.13 1.61 1.61 0 0 0 .63-.35 1.5 1.5 0 0 0 .39-.54 1.67 1.67 0 0 0 .14-.69 1.54 1.54 0 0 0-.14-.67 1.31 1.31 0 0 0-.4-.47h.88v-.5h-2.41a3.72 3.72 0 0 0-.91.11 2.39 2.39 0 0 0-.7.33 1.47 1.47 0 0 0-.43.52 1.78 1.78 0 0 0 .19 1.76 1.65 1.65 0 0 0 1 .56 1.37 1.37 0 0 0-.71.44 1 1 0 0 0-.25.66.64.64 0 0 0 .45.67 1.52 1.52 0 0 0-.63.46 1.43 1.43 0 0 0-.23.83 1.21 1.21 0 0 0 .52 1 2.64 2.64 0 0 0 1.53.38c1.11 0 2.68-.43 2.68-1.78s-.83-1.66-2.39-1.66zm-.14-3.87a.54.54 0 0 1 .47.28 1.79 1.79 0 0 1 .19 1 2.18 2.18 0 0 1-.17 1 .54.54 0 0 1-.51.3.53.53 0 0 1-.24-.06.55.55 0 0 1-.22-.21 1.16 1.16 0 0 1-.17-.37 2.84 2.84 0 0 1-.06-.57c0-.92.24-1.37.71-1.37zm1.29 6.14a.92.92 0 0 1-.24.35 1 1 0 0 1-.38.25 1.36 1.36 0 0 1-.51.09 1.87 1.87 0 0 1-.49-.07 1.44 1.44 0 0 1-.41-.21 1 1 0 0 1-.27-.33 1.07 1.07 0 0 1-.11-.49 1.5 1.5 0 0 1 .13-.65.62.62 0 0 1 .3-.29 1.5 1.5 0 0 1 .66-.13 5.28 5.28 0 0 1 .59 0 1.34 1.34 0 0 1 .44.15.65.65 0 0 1 .28.31 1.38 1.38 0 0 1 .09.54 1.16 1.16 0 0 1-.08.48zM92.41 22a2.33 2.33 0 0 0-2.51 2.53 3.15 3.15 0 0 0 .19 1.13 2.41 2.41 0 0 0 .53.86 2.19 2.19 0 0 0 .81.53 2.63 2.63 0 0 0 1 .18 2.59 2.59 0 0 0 1-.18 2.15 2.15 0 0 0 .82-.53 2.55 2.55 0 0 0 .53-.86 3.39 3.39 0 0 0 .19-1.13A2.35 2.35 0 0 0 92.41 22zm0 4.79c-.63 0-1-.8-1-2.42a3.71 3.71 0 0 1 .21-1.4.77.77 0 0 1 .74-.5.75.75 0 0 1 .74.5 3.5 3.5 0 0 1 .22 1.4c.05 1.63-.27 2.46-.91 2.46zm8-1.16v-.81-.92a2.06 2.06 0 0 0-.43-1.45 1.58 1.58 0 0 0-1.17-.45 1.68 1.68 0 0 0-.9.24 2 2 0 0 0-.66.67v-.77h-1.44c0 .37.06.73.07 1.1s0 .77 0 1.19V26.02c0 .37 0 .73-.07 1.07h1.52c0-.34-.06-.7-.07-1.07s0-.77 0-1.19v-.41a2.41 2.41 0 0 1 .21-1.11.69.69 0 0 1 .67-.41.73.73 0 0 1 .64.31 1.61 1.61 0 0 1 .22.95v1.67a10.77 10.77 0 0 1-.09 1.26h1.58v-.74c0-.26-.09-.46-.09-.68zM65.71 24a3 3 0 0 0-.69-.64 5.41 5.41 0 0 0-.87-.43c-.3-.12-.59-.26-.86-.39a2.63 2.63 0 0 1-.68-.42.92.92 0 0 1-.3-.63.77.77 0 0 1 .28-.65 1.25 1.25 0 0 1 .85-.28 1.82 1.82 0 0 1 1.74.89h.1l.34-1a3 3 0 0 0-.93-.36 5 5 0 0 0-1.24-.14 3.41 3.41 0 0 0-1 .14 2.54 2.54 0 0 0-.8.42 2 2 0 0 0-.53.69 2 2 0 0 0-.15 1 1.78 1.78 0 0 0 .33 1 2.55 2.55 0 0 0 .67.64 4.93 4.93 0 0 0 .86.43c.31.13.59.25.86.38a2.24 2.24 0 0 1 .66.44.86.86 0 0 1 .3.63.88.88 0 0 1-.28.74 1.19 1.19 0 0 1-1 .34 3.84 3.84 0 0 1-.72-.13 2.46 2.46 0 0 1-.56-.3 1.91 1.91 0 0 1-.43-.42 1.63 1.63 0 0 1-.23-.48h-.11l-.32.98a4.72 4.72 0 0 0 1 .54 3.77 3.77 0 0 0 1.21.31 3.65 3.65 0 0 0 1.24-.17 3.17 3.17 0 0 0 .93-.5 2.14 2.14 0 0 0 .57-.74A2 2 0 0 0 66 25a1.79 1.79 0 0 0-.29-1z" class="cls-1"/>
</svg>
