<svg xmlns="http://www.w3.org/2000/svg" id="圖層_1" viewBox="0 0 263.7 166.4">
    <style>
        .st0{fill:#fff}
    </style>
    <path d="M253.9 26.7c-16.7-13-55.4-22.8-98.6-25.7-7.7-.6-15.6-1-23.4-1-7.3 0-14.4.4-21.5.8-44 2.7-83.6 12.7-100.5 26C3.5 31.5-.1 39 0 46.9c0 6.3 1.1 12.3 6.9 17.5 15.6 14.2 61 27.8 103.4 32.3 7.1.8 14.3 1.2 21.5 1.2 7.5 0 15.6-.6 23.4-1.3 41.9-4.2 86.1-18.1 101.3-32.1 5.8-5.2 7.1-11.2 7.1-17.5.2-8-3.4-15.5-9.7-20.3zm-38.3 37.9c-9.8 11.3-31.9 21.1-60.4 24.8-7.8 1-15.6 1.5-23.4 1.5-7.2 0-14.4-.5-21.5-1.3-29.4-3.5-52.3-13.3-62.5-25-3.8-4.6-5.5-11.4-5.5-16.2.2-7.8 3.9-15 10.2-19.6 10.8-8.3 31.7-16.6 57.8-20.4 7.1-.9 14.3-1.4 21.5-1.5 7.8.2 15.7.8 23.4 1.9 25.2 3.6 45.4 11.9 55.9 20 6.3 4.6 10 11.8 10.2 19.6.1 4.8-1.6 11.6-5.7 16.2z" class="st0"/>
    <path d="M151.6 35.1c1.3-.1 2.5-.5 3.6-1 1.9-.7 3.7-1.6 5.4-2.7 1.4-1.1 2.6-2.4 3.7-3.8.6-2.3.6-4.6 0-6.9-1.2-1.2-2.5-2.1-4-2.9-1.6-.5-3.4-.5-5 0-1.1.5-2.1 1.3-2.9 2.3-4 4.8-6.5 8.6-6.5 15.4 1.9.1 3.9 0 5.7-.4zm-41.3-2.7c1.5.8 3.3 1.3 4.4 1.9 1.1.4 3.6 1 4.2 0 1-1.9.4-4.4 0-6.5-.7-2.9-2-5.5-3.8-7.9-1.2-1.7-2.9-3.1-4.8-4-.2 0-.4-.2-.6-.2-1.7-.6-4-.6-5.4.6-2.1 1.9-4.2 5.2-3.1 8.5 1.2 3.6 5.5 6 9.1 7.6zm45 36.9h-.4c-1.2-.5-2-1.8-1.9-3.1V53.3h11.9V39.5h-9.6l-15.2-.2.2-24.4h-15.6v24.4l-14.4.2H99.2v13.8h11.9c-.2 2.7-.4 5.8-.4 8.3-.2.8-.2 1.5-.4 2.3-.6 2.4-1.4 4.7-2.5 6.9-2.1 3.2-4.2 6.1-6.3 9.4-.2 1.8 1.5 1.8 2.3 1.5 2.3-1.1 4.5-2.4 6.5-3.8 1.9-1.3 3.8-2.7 6.2-4.4 3.1-2.6 5.8-5.7 7.9-9.2 1.9-2.5 3.3-5.3 4.4-8.3l.6-2.5 6.1-.2 1.5 1-.2 21.3c.6 3.1 2.9 5.2 4.4 5.6l9.4.4 4.6-.2 2.7-.2c5-3.1 6.3-6 7.3-12.1l-9.9.2zM226.5 124.5c.1-.6.5-1.2 1.2-1.3H248c.6.1 1.1.7 1.2 1.3v6.7h6.3v-7.8c.1-2.8-2.1-5.2-4.9-5.3h-9.2c-.9-1.7-1.6-3.5-2.1-5.4h-7.6c.6 1.8 1.3 3.6 2.1 5.4h-8.2c-2.8-.2-5.2 1.9-5.4 4.8v8.4h6.3v-6.8zm-5.4 17.5h8.6c3.7-2.8 6.4-8.8 6.6-15.2h-6.7c-.3 6.1-3.5 11.7-8.5 15.2zm18.3-15.2v9.2c0 4.1 2.8 5.9 6.3 5.9h8.2l1.5-5h-7.8c-.7.1-1.3-.4-1.4-1.1V126.9l-6.8-.1zm-20.2 9c-1.3.6-3.1 1.4-4.5 2v-9.4h3.6v-5.3h-3.6v-10.3h-7.1v10.4H202l-.1 5.3h5.7v12.4c-1.9.7-4.3 1.6-6.3 2.1v5.8c1.8-.6 4.2-1.4 6.3-2.2V160c0 .8-.6 1.4-1.4 1.4H202l1.6 5h5.5c3 .1 5.5-2.3 5.6-5.3v-17.6c1.4-.6 3.1-1.2 4.5-1.9v-5.8zm21.8 25.5v-11.5h13.2v-5.1h-33v5.1h12.1v11.5h-14.5v5h37v-5H241zM179.3 158.9c1.6-3.8 3-7.7 4.1-11.7h-7.2c-1.1 4.1-2.7 8-4.8 11.7h7.9zm-27.1-11.7h-7.5c1.2 4 2.7 7.9 4.4 11.7h8c-2-3.7-3.6-7.6-4.9-11.7zm16.1-2.5H189v-5.3h-20.7v-7.1h9.1v-4.6c1.5 1.8 3 3.6 4.6 5.2h9.9c-5-4.8-9.6-10.1-13.6-15.8-.6-.9-2.3-3.6-5.8-3.6h-17c-3.4 0-5.2 2.7-5.8 3.6-4 5.7-8.6 11-13.6 15.8h9.9c1.6-1.6 3.2-3.4 4.6-5.2v4.5h9.1v7.1H139v5.3h20.6V161h-22.4v5.3h53.4V161h-22.4v-16.3zm-17-17.7c1.5-1.8 3.3-4 5.8-7.1.5-.7 1.2-1.1 2.1-1h9.9c.8-.1 1.6.3 2.1 1 2.4 3 4.3 5.3 5.7 7.1h-25.6zM8 164.6h6.6c1.7-5.8 3-11.7 3.8-17.6h-6.1c-.9 4.4-2.9 13.7-4.3 17.6zm29-25.2h-9.9v-4.1h9.8v-5.1H32c.7-2.3 1.4-5.1 1.9-7.4h2.5v-5.1H27c-.7-1.6-1.3-3.3-1.7-5H18c.4 1.5 1 3.5 1.6 5h-9.3v5.1h2.6c.5 2.3 1.1 5.1 1.8 7.4H9.9v5.1H20v4.1H9.9v5.1H20v21.8h7.1v-21.8h9.8l.1-5.1zm-10.8-9.2h-5.5c-.6-2.3-1.3-5.3-1.7-7.4h8.9c-.5 2.1-1.2 5.1-1.7 7.4zm20.8.1v-7.8c0-.7.5-1.2 1.1-1.3 4.7-.6 9.4-1.6 14-2.9v-5.1c-5.8 1.3-12.6 2.4-18.6 3.3-1 .1-1.9.6-2.5 1.3-.7.9-1.1 2-1.1 3.2v25c0 7.2-1.3 15.2-4.7 20.3h7.6c3.4-6.4 4.1-15.9 4.1-24.1v-6.8h5.4v30.9h7.1v-30.9h3.4v-5.1H47zm-12.3 16.6h-5.9c.3 4.6.9 9.1 1.8 13.6h6.1c-1-4.4-1.7-9-2-13.6zM123.2 115.5h-7.6c-1.8 5.6-3.7 11.2-7.3 16.1h8.3c3-5 5.2-10.4 6.6-16.1zm-31.5 16.1c-3.1-5-5.6-10.4-7.5-16.1h-7.6c1.9 5.4 3.9 11 6.9 16.1h8.2zm22.9 29.2c-1.1.1-1.9-.8-2-1.8v-18.8h13.9v-5.4H104v-22.3h-8.2v22.3H73v5.4h14c1 16.6-9.7 22.9-15.2 26.1h12c4.1-2.9 11.7-8.8 11.3-26.1h9.5v19.5c0 4.8 2.7 6.6 5.7 6.6H126l2.4-5.5h-13.8z" class="st0"/>
</svg>
