<svg xmlns="http://www.w3.org/2000/svg" id="圖層_1" viewBox="0 0 50.3 50">
    <style>
        .st0{fill:#fff}
    </style>
    <path d="M22.3 30.5c1.4-.6 2.3-2 2.1-3.5-.2-1.9-1.2-4.1-5.3-4.3-3.4.1-5.4 1.5-6.1 4.4 0 .3.1.5.4.6l3.1.6c.2 0 .5-.1.5-.3.1-1 .9-1.7 1.9-1.8.7-.1 1.3.3 1.4 1v.4c0 .4 0 1.5-2.4 1.5h-1.3c-.3 0-.5.2-.5.5v2.5c0 .3.2.5.5.5H18c.8-.1 1.7.1 2.4.6.2.3.4.6.3 1 .1.8-.5 1.5-1.3 1.6H19c-1 .1-1.9-.6-2-1.6V34c0-.1-.1-.2-.2-.3-.1-.1-.2-.1-.4-.1l-3.3.7c-.1 0-.2.1-.3.2v.4c.5 2.6 2.8 4.4 5.4 4.1h.6c3.8-.1 5.9-1.6 6-4.6 0-1.8-1-3.3-2.5-3.9zM37 23.1h-2.5c-.2 0-.3.1-.4.2-1.3 1.8-3 3.2-5.1 3.9-.2.1-.3.2-.3.4v2.8c0 .1.1.3.2.4.1.1.3.1.4 0 1.4-.5 2.8-1.1 4-1.9v9.3c0 .3.2.5.5.5H37c.3 0 .5-.2.5-.5V23.5c0-.2-.3-.4-.5-.4zM13.3 2.7c-1.4 0-2.5 1.1-2.5 2.5V13c-.1 1.4.9 2.5 2.3 2.7 1.4.1 2.5-.9 2.7-2.3V5.2c0-1.4-1.1-2.5-2.5-2.5zm0 15.8c-3 0-5.4-2.5-5.4-5.4V5.2c.1-3 2.7-5.3 5.6-5.2 2.8.1 5.1 2.4 5.2 5.2V13c0 3-2.4 5.4-5.4 5.5zM37 2.7c-1.4 0-2.5 1.1-2.5 2.5V13c0 1.4 1.1 2.5 2.5 2.5s2.5-1.1 2.5-2.5V5.2c0-1.4-1.1-2.5-2.5-2.5zm0 15.8c-3 0-5.4-2.4-5.5-5.4V5.2c.1-3 2.7-5.3 5.6-5.2 2.8.1 5.1 2.4 5.2 5.2V13c.1 3-2.3 5.4-5.3 5.5z" class="st0"/>
    <path d="M50.3 11.8c0-2.3-1.8-4.1-4.1-4.1h-5.3c-.8 0-1.5.7-1.5 1.5v4c0 1.4-1 2.5-2.4 2.5-1.3 0-2.3-.9-2.5-2.2V9.1c0-.8-.6-1.5-1.4-1.5H17.2c-.8 0-1.5.6-1.5 1.5V13c0 1.4-1 2.5-2.4 2.5-1.3 0-2.3-.9-2.5-2.2V9.1c0-.8-.7-1.5-1.5-1.5H4.1C1.9 7.6 0 9.5 0 11.8v34.1C0 48.1 1.8 50 4.1 50H46c2.3 0 4.1-1.9 4.1-4.1V31.2l.2-19.4zm-3 34c0 .7-.6 1.2-1.2 1.2H4.2c-.7 0-1.2-.5-1.2-1.2v-34c0-.7.6-1.2 1.2-1.2h3.6V13c0 3 2.4 5.4 5.4 5.4 3 0 5.4-2.4 5.4-5.4v-2.4h12.8V13c0 3 2.4 5.4 5.4 5.4 3 0 5.4-2.4 5.4-5.4v-2.4H46c.7 0 1.2.5 1.2 1.2l.1 34z" class="st0"/>
</svg>
