<svg xmlns="http://www.w3.org/2000/svg" id="圖層_1" data-name="圖層 1" viewBox="0 0 49.97 50.09">
    <defs>
        <style>
            .cls-1{fill:#df6764}
        </style>
    </defs>
    <path d="M25 13.36v17.58c-.48 0-1-.12-1.48-.13h-3.86l4.85 9.66a2.91 2.91 0 0 1-.51 3.32l-3.47 3.43a2.76 2.76 0 0 1-2 .85 2.71 2.71 0 0 1-.57 0 2.84 2.84 0 0 1-2.12-1.78L10 30.87h-.86a1.44 1.44 0 0 1-1.45-1.44V28H3.32a1.43 1.43 0 0 1-1.43-1.43v-8.66a1.43 1.43 0 0 1 1.39-1.46h4.36V15a1.45 1.45 0 0 1 1.45-1.44h14.34a14.74 14.74 0 0 0 1.49-.15m0-2h-.65a4.82 4.82 0 0 1-.76 0H9.14a3.47 3.47 0 0 0-3.32 2.89h-2.5A3.44 3.44 0 0 0 0 17.84v8.64a3.43 3.43 0 0 0 3.32 3.43h2.37a3.45 3.45 0 0 0 2.87 2.85l5.32 14.18a4.85 4.85 0 0 0 3.6 3.06 4.34 4.34 0 0 0 1 .1 4.83 4.83 0 0 0 3.45-1.46l3.45-3.42a4.88 4.88 0 0 0 .89-5.68l-3.32-6.74h.54l.76.09H25a2.08 2.08 0 0 0 1.36-.52 2 2 0 0 0 .64-1.5V13.3a2 2 0 0 0-.65-1.48 2.07 2.07 0 0 0-1.35-.51z" class="cls-1"/>
    <path d="M46.57 2a2 2 0 0 1 .42.08h.1a1.36 1.36 0 0 1 .59.47.41.41 0 0 1 .1.13 1.42 1.42 0 0 1 .24.75v37.44a1.38 1.38 0 0 1-.24.73l-.1.15a1.27 1.27 0 0 1-.59.45 1.42 1.42 0 0 1-.5.08 1.67 1.67 0 0 1-.58-.12h-.13a1.6 1.6 0 0 1-.35-.28 30.24 30.24 0 0 0-17.67-10.51V13a30.17 30.17 0 0 0 17.6-10.48 1.61 1.61 0 0 1 .63-.4h.15a1.31 1.31 0 0 1 .28 0m0-2a2.3 2.3 0 0 0-.69.1 1.37 1.37 0 0 0-.35.08 3.33 3.33 0 0 0-1.34.8l-.14.14-.13.14a28.33 28.33 0 0 1-16.45 9.74 2 2 0 0 0-1.65 2v18.25a2 2 0 0 0 1.65 2 28.33 28.33 0 0 1 16.45 9.74l.22.22a3.85 3.85 0 0 0 .63.5 1.76 1.76 0 0 0 .38.21 3.39 3.39 0 0 0 1.37.28 3.56 3.56 0 0 0 1.13-.18l.3-.13a3.56 3.56 0 0 0 1.28-1l.18-.26a3.31 3.31 0 0 0 .56-1.83V3.43a3.25 3.25 0 0 0-.54-1.79 2.71 2.71 0 0 0-.24-.35 3.4 3.4 0 0 0-1.24-1 1.69 1.69 0 0 0-.31-.13 1.47 1.47 0 0 0-.35-.06 2.86 2.86 0 0 0-.77-.1z" class="cls-1"/>
    <path d="M46.57 2a2 2 0 0 1 .42.08h.1a1.36 1.36 0 0 1 .59.47.41.41 0 0 1 .1.13 1.42 1.42 0 0 1 .24.75v37.44a1.38 1.38 0 0 1-.24.73l-.1.15a1.27 1.27 0 0 1-.59.45 1.42 1.42 0 0 1-.5.08 1.67 1.67 0 0 1-.58-.12h-.13a1.6 1.6 0 0 1-.35-.28 30.24 30.24 0 0 0-17.67-10.51V13a30.17 30.17 0 0 0 17.6-10.48 1.61 1.61 0 0 1 .63-.4h.15a1.31 1.31 0 0 1 .28 0M25 13.5v17.57c-.48 0-1-.12-1.48-.13h-3.86l4.85 9.66a2.91 2.91 0 0 1-.51 3.32l-3.47 3.43a2.76 2.76 0 0 1-2 .85 2.72 2.72 0 0 1-.57 0 2.84 2.84 0 0 1-2.12-1.91L10 30.87h-.86a1.44 1.44 0 0 1-1.45-1.44V28H3.32a1.43 1.43 0 0 1-1.43-1.43v-8.66a1.43 1.43 0 0 1 1.39-1.46h4.36V15a1.45 1.45 0 0 1 1.45-1.44h14.34a14.74 14.74 0 0 0 1.49-.15M46.47.05a2 2 0 0 0-.69.1 1.37 1.37 0 0 0-.35.08 3.33 3.33 0 0 0-1.34.8l-.09.13-.13.13A28.29 28.29 0 0 1 27.37 11a2 2 0 0 0-1.26.81 2 2 0 0 0-1.24-.43h-.6a4.82 4.82 0 0 1-.76 0H9.14a3.47 3.47 0 0 0-3.32 2.89h-2.5A3.44 3.44 0 0 0 0 17.84v8.64a3.43 3.43 0 0 0 3.32 3.43h2.37a3.45 3.45 0 0 0 2.87 2.85l5.32 14.18a4.85 4.85 0 0 0 3.6 3.06 4.34 4.34 0 0 0 1 .1 4.83 4.83 0 0 0 3.45-1.46l3.45-3.42a4.88 4.88 0 0 0 .89-5.68l-3.32-6.74h.54l.76.09H25a2 2 0 0 0 1.24-.43 2 2 0 0 0 1.26.81A28.35 28.35 0 0 1 43.92 43l.22.21a3.38 3.38 0 0 0 .63.5 1.79 1.79 0 0 0 .38.22 3.77 3.77 0 0 0 1.37.28 3.87 3.87 0 0 0 1.13-.21l.3-.14a3.53 3.53 0 0 0 1.28-1l.18-.27a3.28 3.28 0 0 0 .59-1.8V3.43a3.25 3.25 0 0 0-.54-1.79 2.71 2.71 0 0 0-.24-.35A3.4 3.4 0 0 0 48 .31a1.69 1.69 0 0 0-.31-.13 1.47 1.47 0 0 0-.4-.08 2.86 2.86 0 0 0-.77-.1z" class="cls-1"/>
</svg>
