<svg xmlns="http://www.w3.org/2000/svg" id="圖層_1" viewBox="0 0 79.1 79.8">
    <style>
        .st0{fill:#ffffff}
    </style>
    <path d="M76.9 57.5H57c-.7-2.7-2.8-4.8-5.5-5.5v-9.5-.2l-.1-.2-.4-.4c-4.6-3.9-2.8-11.3-1.2-18.5.9-3.4 1.5-6.9 1.7-10.5C52 6 46.9.2 40.2-.3S27.7 4.3 27.3 11v1.7c.2 3.5.8 7 1.7 10.5 1.6 7.2 3.4 14.6-1 18.5h-.1l.3.2-.4-.2-.1.2-.1.2V51.9c-2.7.8-4.8 2.9-5.5 5.5h-20c-1.2 0-2.1.9-2.1 2.1v12.6c0 1.2.9 2.1 2.1 2.1h3.1v3.5c0 1.1.9 2.1 2.1 2.1h64.6c1.1 0 2.1-.9 2.1-2.1v-3.2h3c1.2 0 2.1-.9 2.1-2.1V59.8c.1-1.1-.7-2.2-1.8-2.3h-.4zm-7.4 17v2.3H9.2v-2.3h60.3zm-43.1-17c.7-1 1.8-1.5 2.9-1.5h20c1.2 0 2.3.6 3 1.5H26.4zm19.2-35.4c-1.5 6.3-3.1 13.5-.6 19-1.2.1-2 1.1-1.9 2.3.1 1.1 1 1.9 2 1.9H47v6.3H31.5v-6.3H38c1.2-.1 2.1-1.1 2-2.3-.1-1.1-.9-2-2-2h-4.4c2.6-5.4.9-12.5-.5-18.8-.9-3.1-1.4-6.3-1.6-9.5.2-4.3 3.8-7.7 8.1-7.5 4.1.1 7.4 3.4 7.5 7.5-.2 3.1-.7 6.3-1.5 9.4zm29.2 39.8v8.4H4v-8.4h70.8z" class="st0"/>
</svg>
