<svg xmlns="http://www.w3.org/2000/svg" id="圖層_1" viewBox="0 0 79 54.9">
    <style>
        .st0{fill:#ffffff}
    </style>
    <path d="M35.3 49.4c.6 2.3 3 3.7 5.4 3.1 1.5-.4 2.7-1.6 3.1-3.1h-8.5zm4.2 5.5c-3.7 0-6.7-3-6.7-6.7v-.1c0-.6.5-1.1 1.2-1.1h11.2c.6 0 1.2.5 1.2 1.2-.2 3.7-3.2 6.7-6.9 6.7z" class="st0"/>
    <path d="M61.7 39.8H17.3c-2.5-.3-4.7 1.5-4.9 4-.2 2.3 1.3 4.4 3.6 4.9.5.1.9.1 1.4 0h44.3c2.5-.4 4.1-2.7 3.8-5.2-.4-1.9-1.9-3.4-3.8-3.7zM15.4 6.6c.1-1-.7-1.9-1.7-2-.5 0-1 .1-1.3.4-6 5.1-6.7 14.1-1.6 20.1.2.3.5.5.7.8.3.3.8.5 1.2.5.5 0 1-.1 1.4-.5.7-.7.7-1.8.1-2.5h-.1c-4.1-4.1-4.1-10.8 0-14.9.2-.2.4-.4.7-.6.3-.3.6-.8.6-1.3z" class="st0"/>
    <path d="M3.7 15.2C3.8 11 5.4 6.9 8.1 3.7c.6-.7.6-1.9-.2-2.5-.2-.2-.4-.3-.6-.4-.7-.3-1.5 0-2 .6-6.5 7.9-7 19.1-1.2 27.6.3.5.9.9 1.5.9h.5c1-.2 1.6-1.1 1.4-2.1 0-.3-.2-.5-.3-.7-2.5-3.5-3.7-7.7-3.5-11.9zM64.4 24.7c0 1 .8 1.8 1.8 1.8.5 0 .9-.2 1.3-.5 5.6-5.5 5.7-14.6.1-20.2-.3-.3-.6-.6-.9-.8-.4-.3-.8-.4-1.2-.4-.5 0-1 .2-1.3.6-.7.7-.6 1.9.1 2.5h.1c4.4 3.8 5 10.4 1.2 14.8-.2.2-.4.5-.7.7-.4.4-.6.9-.5 1.5z" class="st0"/>
    <path d="M75.4 15.2c.1 4.2-1.1 8.4-3.6 11.8-.7.8-.6 1.9.2 2.6.8.7 1.9.6 2.6-.2.1-.1.2-.3.3-.4 5.9-8.4 5.5-19.6-1-27.6-.4-.5-.9-.7-1.5-.7h-.5c-1 .3-1.5 1.3-1.3 2.2.1.3.2.5.4.7 2.7 3.3 4.3 7.4 4.4 11.6zM38.7 6.1c-.7 0-1.3.5-1.4 1.2 0 .3.1.7.3 1 .2.3.5.4.9.4 6.7.5 11.9 5.8 12.5 12.5.1.7.6 1.2 1.3 1.2h.1c.3 0 .7-.2.9-.5.2-.3.3-.6.3-.9-.6-8-6.9-14.3-14.9-14.9z" class="st0"/>
    <path d="M52.7 5.2c-7.9-7.3-20.1-6.8-27.4 1.1-3 3.2-4.8 7.3-5.1 11.6l-1.4 19c0 .5.1 1 .5 1.3.3.4.7.6 1.2.6h.1c.9 0 1.7-.7 1.8-1.7l1.4-19C24.4 9.5 31.9 3 40.6 3.6c7.8.6 14 6.8 14.6 14.6l1.4 19c.1.9.8 1.7 1.8 1.7h.1c1 0 1.7-.9 1.7-1.9v-.1l-1.4-19c-.3-4.9-2.5-9.4-6.1-12.7z" class="st0"/>
</svg>
