<svg xmlns="http://www.w3.org/2000/svg" id="圖層_1" viewBox="0 0 79.1 99.2">
    <style>
        .st0{fill:#ffffff}
    </style>
    <path d="M46.2 82c0 1.7-.7 3.2-2 4.2-1.3 1.1-3 1.7-4.7 1.8-1.7 0-3.4-.6-4.7-1.7-2.3-1.8-2.7-5.2-.9-7.5l.9-.9c1.3-1.1 3-1.7 4.7-1.7 1.7 0 3.4.6 4.7 1.7 1.3 1 2 2.5 2 4.1zm-1.3-40.9l-2.2 26.2c.1 1.6-1.1 3-2.7 3.1h-.5c-1.6.2-3.1-.9-3.4-2.5v-.7L34 41c-.4-4.8 1.5-7.2 5.5-7.2s5.8 2.6 5.4 7.3zM39.5 16.8c2.1 0 3.9-1.7 3.9-3.8 0-2.1-1.7-3.9-3.8-3.9s-3.9 1.7-3.9 3.8c0 2.2 1.7 3.9 3.8 3.9z" class="st0"/>
    <path d="M79.1 49.2V22.4c0-5.5-4.3-9.9-9.8-10h-.1c-.4 0-.9.1-1.3.2-1.7-3.2-5-5.2-8.6-5.2h-2.8C55.4 3 51.4 0 46.9 0H32.1c-4.5 0-8.5 3.1-9.6 7.4h-2.8c-3.6 0-6.9 2.1-8.6 5.2-.4-.1-.9-.2-1.3-.2-5.5.1-9.8 4.6-9.8 10v66.9c0 5.5 4.4 9.9 9.9 9.9h59.3c5.5 0 9.9-4.4 9.9-9.9V49.2zM19.7 12.5h7.5V9.9c0-2.8 2.2-5 5-5H47c2.7 0 4.9 2.3 4.9 5v2.6h7.5c2.7.4 4.6 3 4.2 5.7-.3 2.2-2 3.9-4.2 4.2H19.7c-2.7.6-5.3-1.2-5.9-3.9s1.2-5.3 3.9-5.9c.4-.1.9-.1 1.3-.1h.7zm54.5 76.8c0 2.8-2.2 5-5 5H9.8c-2.7 0-4.9-2.3-4.9-5V22.4c0-2.7 2.2-5 4.9-5 0 4.7 3.3 8.7 7.9 9.7.7.1 1.3.2 2 .2h39.7c5.5 0 9.9-4.4 9.9-9.9 2.8 0 5 2.2 5 5v65.1l-.1 1.8z" class="st0"/>
</svg>
