<svg xmlns="http://www.w3.org/2000/svg" id="圖層_1" viewBox="0 0 51.8 64.8">
    <style>
        .st0{fill:#56bdb7}
    </style>
    <circle cx="12.6" cy="37.2" r="4.1" class="st0"/>
    <circle cx="25.9" cy="37.2" r="4.1" class="st0"/>
    <circle cx="39.2" cy="37.2" r="4.1" class="st0"/>
    <path d="M51.8 52.6v-38c0-3.6-2.9-6.5-6.5-6.5-.3 0-.6 0-.8.1-1.1-2.1-3.3-3.4-5.7-3.4H37C36.3 2 33.8 0 30.8 0H21c-3 0-5.5 2-6.3 4.9H13c-2.4 0-4.5 1.3-5.7 3.4-.3-.1-.5-.2-.8-.2C2.9 8.1 0 11 0 14.6v43.8c0 3.6 2.9 6.5 6.5 6.5h38.9c3.6 0 6.5-2.9 6.5-6.5v-4.7l-.1-1.1zM13 8.1h4.9V6.5c0-1.7 1.4-3.2 3.1-3.2h9.7c1.8 0 3.2 1.4 3.3 3.2v1.6h4.9c1.8-.1 3.3 1.3 3.4 3.1.1 1.7-1.2 3.2-2.9 3.4H13c-1.8.2-3.4-1.1-3.5-2.9s1.1-3.4 2.9-3.5h.1l.5-.1zm35.6 50.2c0 1.8-1.4 3.2-3.2 3.2H6.5c-1.8 0-3.2-1.5-3.2-3.2V14.6c0-1.8 1.5-3.2 3.2-3.2 0 3.6 2.9 6.5 6.4 6.5h26c3.6 0 6.5-2.9 6.5-6.5 1.8 0 3.2 1.5 3.2 3.2V58.3z" class="st0"/>
    <circle cx="25.9" cy="9.3" r="2.6" class="st0"/>
</svg>
