<svg xmlns="http://www.w3.org/2000/svg" id="圖層_1" data-name="圖層 1" viewBox="0 0 52.85 50.17">
    <defs>
        <style>
            .cls-1{fill:#56b5af}
        </style>
    </defs>
    <circle cx="9.85" cy="28.82" r="3.2" class="cls-1"/>
    <circle cx="20.14" cy="28.82" r="3.2" class="cls-1"/>
    <circle cx="30.41" cy="28.82" r="3.2" class="cls-1"/>
    <path d="M40.22 40.79V11.28a5 5 0 0 0-5-5 2.84 2.84 0 0 0-.65.1 4.9 4.9 0 0 0-4.38-2.6h-1.42A5 5 0 0 0 23.88 0h-7.53a5 5 0 0 0-4.9 3.77H10a4.89 4.89 0 0 0-4.36 2.6 3 3 0 0 0-.64-.1 5 5 0 0 0-5 5v33.88a5 5 0 0 0 5 5h30.13a5 5 0 0 0 5-5v-3.59zM10.09 6.32h3.79V5.06a2.52 2.52 0 0 1 2.5-2.5h7.53a2.52 2.52 0 0 1 2.51 2.5v1.26h3.78a2.51 2.51 0 0 1 .4 5H10.09a2.51 2.51 0 0 1 0-5zm27.6 38.88a2.52 2.52 0 0 1-2.5 2.52H5.08a2.5 2.5 0 0 1-2.5-2.5V11.33a2.5 2.5 0 0 1 2.5-2.5 5 5 0 0 0 5 5h20.1a5 5 0 0 0 5-5 2.52 2.52 0 0 1 2.5 2.5V44.2z" class="cls-1"/>
    <path d="M48.62 25.61a.67.67 0 0 1 .36.21l3.26 3.56a.74.74 0 0 1 .18.49.75.75 0 0 1-.23.47L37.41 44.26a.68.68 0 0 1-.58.16.6.6 0 0 1-.33-.18L26.26 33.87a.7.7 0 0 1-.2-.49.63.63 0 0 1 .2-.47l3.41-3.47a.66.66 0 0 1 .61-.18.63.63 0 0 1 .34.18l6.06 6.16a.75.75 0 0 0 .34.18.7.7 0 0 0 .59-.16l10.47-9.8a.7.7 0 0 1 .59-.18" class="cls-1"/>
    <path d="M36.92 45h-.24a1 1 0 0 1-.57-.31l-10.24-10.4a1.14 1.14 0 0 1-.35-.8 1.18 1.18 0 0 1 .35-.83l3.41-3.44a1.14 1.14 0 0 1 1.63 0L37 35.36h.1a.15.15 0 0 0 .16 0l10.47-9.8a1.23 1.23 0 0 1 .95-.3 1.08 1.08 0 0 1 .62.35l3.27 3.56a1.15 1.15 0 0 1 .31.83 1.21 1.21 0 0 1-.36.8L37.64 44.73a1.1 1.1 0 0 1-.72.27zM30.1 29.8a.29.29 0 0 0-.13 0l-3.42 3.47a.15.15 0 0 0 0 .13.33.33 0 0 0 0 .14l10.26 10.39h.08a.15.15 0 0 0 .16 0L51.88 30a.2.2 0 0 0 0-.15.19.19 0 0 0 0-.15l-3.26-3.56h-.2L38 36a1.11 1.11 0 0 1-1 .29 1.22 1.22 0 0 1-.59-.32l-6.06-6.14h-.25zM22.45 6.25A2.32 2.32 0 1 1 20.12 4a2.3 2.3 0 0 1 2.3 2.3z" class="cls-1"/>
</svg>
