<svg xmlns="http://www.w3.org/2000/svg" viewBox="0 0 45.74 51.76"><defs><style>.cls-1{fill:#54bcb6;}</style></defs><title>nav-icon-6</title><g id="圖層_2" data-name="圖層 2"><g id="圖層_1-2" data-name="圖層 1"><path class="cls-1" d="M45.59,14.92a2.67,2.67,0,0,0-1.38-1.54l-5.76-2.75a2.7,2.7,0,0,0-3.6,1.28h0l-1.18-.12a3.84,3.84,0,0,0-2.06-2.48L18.68,3.15A3.83,3.83,0,0,0,15.83,3,9.35,9.35,0,0,0,10,0H9.18a7.1,7.1,0,0,0-3.47,1.2C3.77,2.48,1.76,4,2.37,6c.17.57.81,1.9,3,1.9H5.7A2.17,2.17,0,0,0,7,7.4a3.48,3.48,0,0,1,2-.78c1,0,1.93.7,2.83,2.08L9.95,12.57a3.83,3.83,0,0,0,1.81,5.11l2.44,1.17-.23.49a3.84,3.84,0,0,0-2.58,2.08L.37,44.51a3.83,3.83,0,0,0,1.81,5.11L5.9,51.39a3.8,3.8,0,0,0,1.65.37A3.85,3.85,0,0,0,11,49.58L22,26.47a3.82,3.82,0,0,0,0-3.32l.23-.48,2.45,1.17a3.83,3.83,0,0,0,2.52.27l1.35,1.09A2.71,2.71,0,0,0,30,28.31l5.76,2.75a2.7,2.7,0,0,0,3.6-1.28L45.48,17A2.68,2.68,0,0,0,45.59,14.92Zm-30-8.2.31-.66a1.3,1.3,0,0,1,1.69-.6l12.93,6.16a1.27,1.27,0,0,1,.6,1.69l-.37.77,5.08.5.21,0,.33.07.8-1.68c0-.06.09-.08.19-.06l5.76,2.75a.14.14,0,0,1,.07.19l-6.1,12.8c0,.06-.08.08-.19.07L31.12,26a.14.14,0,0,1-.07-.08.14.14,0,0,1,0-.11l.51-1.07.13-.31L27.49,21l-.27.26a1.29,1.29,0,0,1-1.43.24L21,19.26,19,23.58l.3.2a1.26,1.26,0,0,1,.44,1.59l-11,23.11a1.3,1.3,0,0,1-1.69.6L3.28,47.31a1.27,1.27,0,0,1-.6-1.69l11-23.11a1.27,1.27,0,0,1,1.51-.66l.34.11,2.06-4.32-4.76-2.27a1.27,1.27,0,0,1-.6-1.69l2.42-5.08-.1-.19C13,5.52,11.15,4.06,9,4.06A6,6,0,0,0,5.39,5.39c-.35,0-.53-.07-.56-.05s0-.52,2.28-2A4.51,4.51,0,0,1,9.6,2.56h0c3.1,0,5.54,3.52,5.56,3.56Z"/></g></g></svg>