<svg xmlns="http://www.w3.org/2000/svg" viewBox="0 0 33.63 41.93"><defs><style>.cls-1{fill:#54bcb6;}</style></defs><title>nav-icon-4</title><g id="圖層_2" data-name="圖層 2"><g id="圖層_1-2" data-name="圖層 1"><path class="cls-1" d="M33.51,29.49a21.91,21.91,0,0,0-2.21-4.94,11,11,0,0,0-6-4.48,1,1,0,0,1-.52-1.23,18.76,18.76,0,0,0,1.54-5.91C26.31,9.4,26.31,0,16.84,0S7.31,9.74,7.31,12.94c0,1.85,1.17,4.28,2,6.21A1,1,0,0,1,8.8,20.4C3.52,22.46.23,29.14.13,29.48a3.15,3.15,0,0,0-.13.88v4.2c0,4.65,5,6.92,5.55,7.16a2.41,2.41,0,0,0,1,.2H27.07a2.42,2.42,0,0,0,1-.2c.57-.24,5.6-2.5,5.6-7.17v-4.2A3.15,3.15,0,0,0,33.51,29.49ZM8.95,12.94c0-5.19.9-11.15,7.89-11.15,7.84,0,7.84,7.53,7.84,11.15a16.77,16.77,0,0,1-1.63,6.51l0,.09a1,1,0,0,0-.12.43,12.67,12.67,0,0,1-4,3.57.4.4,0,0,0-.23.09,3.74,3.74,0,0,1-2.48.11,9,9,0,0,1-2.94-2.12,26.92,26.92,0,0,0-2.31-1.73l-.38-1,0-.07C9.37,15.21,8.95,15.23,8.95,12.94Zm8,14.58h.43a9.52,9.52,0,0,0,1.76-.14c.46,1.79,1,3.59,1.34,5.4A6,6,0,0,1,20,37a5.47,5.47,0,0,1-.63,1.07c-.46.55-.33.44-.76.06-1.13-1-2.52-2.34-2.9-3.94-.54-2.29.35-4.6,1.16-6.67Zm2.58-2c.31.24.11.51-.16.71a.45.45,0,0,0-.32.19l-.19.07a8.37,8.37,0,0,1-1.34.1A2.23,2.23,0,0,1,16,26.43c-.29-.22-.52-.82-.11-1a.43.43,0,0,0,.1-.66l0-.08a3.88,3.88,0,0,0,.82.14,4.86,4.86,0,0,0,2-.3l.57.28A.53.53,0,0,0,19.49,25.51ZM10.83,21c1.09.81,2.12,1.68,3.19,2.56a7.14,7.14,0,0,0,1.06.73c-1,.51-2.7,1.38-3.26.53a7.56,7.56,0,0,1-.57-1.9l-.51-1.8Zm9.05,3a14.66,14.66,0,0,0,3.43-3.17.78.78,0,0,0,.29.11l-.06,1c0,.37,0,.74-.06,1.12,0,.65,0,.85-.53,1.24C22.13,24.84,20.89,24.46,19.88,24ZM32,34.57c0,3.53-4.37,5.41-4.56,5.49a.93.93,0,0,1-.36.07H6.52a.92.92,0,0,1-.37-.08c-.18-.08-4.51-2-4.51-5.49l-.06-2.22c0-.12.08-2.21.11-2.32s2.92-7.7,8.26-8.65c.25.88.5,1.77.75,2.65a3.27,3.27,0,0,0,.89,1.83c.88.65,2.26,0,3.34-.54a1.76,1.76,0,0,0,.1,1.21,1.57,1.57,0,0,0,1,.88c-.86,2.23-1.7,4.62-1.12,7.06a5.41,5.41,0,0,0,1.55,2.73,11,11,0,0,1,1.3,1.24c.27.35.38.91.76,1.14,1.36.84,2.72-3,2.91-4A9.14,9.14,0,0,0,21,31.7q-.58-2.35-1.18-4.7a1.56,1.56,0,0,0,.39-1.87,4,4,0,0,0,3.18.15,1.78,1.78,0,0,0,.82-1.5c.11-.91.14-1.84.17-2.76,2.07.44,3.91,2,5.49,4.54a20.24,20.24,0,0,1,2,4.48h0a1.2,1.2,0,0,1,0,.33Z"/></g></g></svg>