<svg xmlns="http://www.w3.org/2000/svg" viewBox="0 0 40.43 40.44"><defs><style>.cls-1{fill:#eb6868;}</style></defs><title>nav-icon-5</title><g id="圖層_2" data-name="圖層 2"><g id="圖層_1-2" data-name="圖層 1"><polygon class="cls-1" points="16.2 26.23 14.21 24.25 12 26.46 13.98 28.45 16.2 26.23 16.2 26.23"/><path class="cls-1" d="M36,4.47a15.25,15.25,0,1,0,0,21.58A15.16,15.16,0,0,0,36,4.47ZM33.73,23.81a12.09,12.09,0,1,1,0-17.1A12.11,12.11,0,0,1,33.73,23.81Z"/><path class="cls-1" d="M10.9,30.34,3.16,38.08a.57.57,0,0,1-.8-.8l7.74-7.74.8.8m3.11,0-3.9-3.9L.81,35.73a2.76,2.76,0,0,0,3.9,3.9L14,30.34Z"/><path class="cls-1" d="M14.25,28.71l-2.51-2.51a1,1,0,0,0-1.39,0l-.24.24,3.9,3.9.24-.24a1,1,0,0,0,0-1.39Z"/></g></g></svg>