<svg xmlns="http://www.w3.org/2000/svg" id="圖層_1" viewBox="0 0 93.16 93.16">
    <style>
        .st0{fill:#e3342f}
    </style>
    <path d="M46.58 0C20.86 0 0 20.86 0 46.58s20.86 46.58 46.58 46.58S93.16 72.3 93.16 46.58 72.31 0 46.58 0zm-6.77 19.06c.77-.62 1.62-1.28 2.54-1.96.92-.68 1.81-1.28 2.67-1.78.86-.5 1.38-.79 1.56-.85.3.06.79.39 1.47.98.68.59 1.38 1.28 2.09 2.05.71.77 1.33 1.51 1.87 2.23.53.71.8 1.19.8 1.42 0 .3-.36.74-1.07 1.33-.71.59-1.53 1.2-2.45 1.82-.92.62-1.81 1.17-2.67 1.65-.86.48-1.47.71-1.82.71-.18 0-.61-.28-1.29-.85-.68-.56-1.38-1.2-2.09-1.91s-1.35-1.41-1.91-2.09c-.56-.68-.85-1.14-.85-1.38-.01-.29.38-.75 1.15-1.37zm23.63 49.66c-.03.27-.1.53-.22.8s-.27.46-.45.58c-.59.3-1.63.83-3.12 1.6-1.48.77-3.23 1.57-5.25 2.4-1.9.83-3.75 1.53-5.56 2.09-1.81.56-3.31.85-4.5.85-1.37 0-2.43-.42-3.2-1.25-.77-.83-1.16-1.87-1.16-3.12 0-.41.01-.77.04-1.07.03-.3.07-.68.13-1.16.06-.59.16-1.68.31-3.25s.3-3.34.44-5.3c.15-1.96.28-3.93.4-5.92.12-1.99.18-3.69.18-5.12v-3.12c0-1.54-.09-2.91-.27-4.09-.18-1.19-.48-2.11-.89-2.76-.3-.41-.67-.76-1.11-1.02-.45-.27-.99-.4-1.65-.4-.36 0-.71.07-1.07.22-.36.15-.62.22-.8.22-.12 0-.31-.18-.58-.53s-.25-.62.04-.8c.41-.3 1.28-.77 2.58-1.42 1.3-.65 2.73-1.36 4.27-2.14 1.66-.83 3.26-1.56 4.81-2.18 1.54-.62 2.64-.93 3.29-.93.65 0 1.1.19 1.33.58.24.39.36.82.36 1.29v.36c0 .59-.09 1.54-.27 2.85a176.062 176.062 0 0 0-1.16 11.4c-.18 2.49-.27 5.19-.27 8.1v4.27c0 1.25.03 2.45.09 3.6.06 1.16.27 2.15.62 2.98.36.83.89 1.5 1.6 2 .71.5 1.72.76 3.03.76.65 0 1.39-.07 2.23-.22.83-.15 1.62-.34 2.36-.58.74-.24 1.39-.47 1.96-.71.56-.24.9-.41 1.02-.53.18-.18.3-.18.36 0 .09.18.11.41.08.67z" class="st0"/>
</svg>
