<svg xmlns="http://www.w3.org/2000/svg" id="圖層_1" viewBox="0 0 50.4 50">
    <style>
        .st0{fill:#56bdb7}
    </style>
    <path d="M4.3 0h5.6c2.4 0 4.3 1.9 4.3 4.3v5.6c0 2.4-1.9 4.3-4.3 4.3H4.3c-2.4-.1-4.3-2-4.3-4.3V4.3C0 1.9 1.9 0 4.3 0zM22.4 0H28c2.4 0 4.3 1.9 4.3 4.3v5.6c0 2.4-1.9 4.3-4.3 4.3h-5.6c-2.4 0-4.3-1.9-4.3-4.3V4.3c0-2.4 2-4.3 4.3-4.3zM40.6 0h5.6c2.4 0 4.3 1.9 4.3 4.3v5.6c0 2.4-1.9 4.3-4.3 4.3h-5.6c-2.4 0-4.3-1.9-4.3-4.3V4.3c0-2.4 1.9-4.3 4.3-4.3zM4.3 17.9h5.6c2.4 0 4.3 1.9 4.3 4.3v5.6c0 2.4-1.9 4.3-4.3 4.3H4.3C1.9 32 0 30.1 0 27.8v-5.6c0-2.4 1.9-4.3 4.3-4.3zM22.4 17.9H28c2.4 0 4.3 1.9 4.3 4.3v5.6c0 2.4-1.9 4.3-4.3 4.3h-5.6c-2.4 0-4.3-1.9-4.3-4.3v-5.6c0-2.4 2-4.3 4.3-4.3zM40.6 17.9h5.6c2.4 0 4.3 1.9 4.3 4.3v5.6c0 2.4-1.9 4.3-4.3 4.3h-5.6c-2.4 0-4.3-1.9-4.3-4.3v-5.6c0-2.4 1.9-4.3 4.3-4.3zM4.3 35.8h5.6c2.4 0 4.3 1.9 4.3 4.3v5.6c0 2.4-1.9 4.3-4.3 4.3H4.3C1.9 49.9 0 48 0 45.7v-5.6c0-2.4 1.9-4.3 4.3-4.3zM22.4 35.8H28c2.4 0 4.3 1.9 4.3 4.3v5.6c0 2.4-1.9 4.3-4.3 4.3h-5.6c-2.4 0-4.3-1.9-4.3-4.3v-5.6c0-2.4 2-4.3 4.3-4.3zM40.6 35.8h5.6c2.4 0 4.3 1.9 4.3 4.3v5.6c0 2.4-1.9 4.3-4.3 4.3h-5.6c-2.4 0-4.3-1.9-4.3-4.3v-5.6c0-2.4 1.9-4.3 4.3-4.3z" class="st0"/>
</svg>
