<svg xmlns="http://www.w3.org/2000/svg" id="圖層_1" data-name="圖層 1" viewBox="0 0 84.83 63.32">
    <defs>
        <style>
            .cls-1{fill:#595957}
        </style>
    </defs>
    <path d="M29.78 53.33H18.07a7.84 7.84 0 0 1-7.84-7.82V16.83A7.82 7.82 0 0 1 18.05 9h11.73V0H15.12A15.17 15.17 0 0 0 0 15.12v33.1a15.15 15.15 0 0 0 15.12 15.1h14.66z" class="cls-1"/>
    <path d="M84.16 30.41L52.23 1.71a2 2 0 0 0-2.85.13 2 2 0 0 0-.52 1.37v16.1a2 2 0 0 1-2 2H23.69a2 2 0 0 0-2 2v17a2 2 0 0 0 2 2h23.13a2 2 0 0 1 2 2v16.3a2 2 0 0 0 3.37 1.52l31.93-28.7a2 2 0 0 0 .14-2.88.93.93 0 0 0-.1-.14z" class="cls-1"/>
</svg>
