<svg xmlns="http://www.w3.org/2000/svg" id="圖層_1" data-name="圖層 1" viewBox="0 0 39.8 45">
    <defs>
        <style>
            .cls-1{fill:#56b5af}
        </style>
    </defs>
    <path d="M39.68 13a2.34 2.34 0 0 0-1.2-1.38l-5-2.39a2.51 2.51 0 0 0-1-.22 2.37 2.37 0 0 0-2.13 1.38l-1-.1a3.33 3.33 0 0 0-1.8-2.16L16.27 2.74a3.31 3.31 0 0 0-2.49-.16A8.16 8.16 0 0 0 8.72 0H8a6.18 6.18 0 0 0-3 1C3.28 2.14 1.53 3.47 2.06 5.18A2.48 2.48 0 0 0 4.7 6.84H5a1.85 1.85 0 0 0 1.12-.47 3.05 3.05 0 0 1 1.68-.68c.85 0 1.68.62 2.46 1.83l-1.61 3.35a3.38 3.38 0 0 0 1.58 4.45l2.13 1-.2.43a3.36 3.36 0 0 0-2.25 1.81L.32 38.68a3.34 3.34 0 0 0 1.58 4.45l3.23 1.55a3.52 3.52 0 0 0 1.38.32 3.34 3.34 0 0 0 3-1.9l9.6-20.1a3.33 3.33 0 0 0 0-2.89l.2-.42 2.12 1a3.28 3.28 0 0 0 2.2.24l1.19.95a2.35 2.35 0 0 0 1.26 2.76l5 2.39A2.32 2.32 0 0 0 34.21 26l5.32-11.15a2.34 2.34 0 0 0 .15-1.85zM13.56 5.91l.28-.58a1.13 1.13 0 0 1 1.46-.52l11.26 5.37a1.1 1.1 0 0 1 .52 1.47l-.31.67 4.42.43h.18l.29.07.69-1.46a.12.12 0 0 1 .16 0l5 2.39a.12.12 0 0 1 0 .16l-5.3 11.15h-.15l-5-2.39-.06-.07a.14.14 0 0 1 0-.09l.46-.94.11-.27-3.61-2.95-.23.22a1.14 1.14 0 0 1-1.24.22l-4.15-2-1.79 3.76.26.18a1.09 1.09 0 0 1 .38 1.38l-9.7 20.14a1.1 1.1 0 0 1-1.49.52l-3.22-1.54a1.09 1.09 0 0 1-.56-.63 1 1 0 0 1 0-.84l9.58-20.13a1.08 1.08 0 0 1 1-.62.86.86 0 0 1 .32 0l.3.08 1.8-3.75-4.15-2a1.07 1.07 0 0 1-.56-.62 1.16 1.16 0 0 1 0-.86l2.11-4.42-.1-.15c-1.38-2.52-3-3.79-4.89-3.79a5.35 5.35 0 0 0-3.11 1.17H4S4 4.21 6 3a3.73 3.73 0 0 1 2.16-.69C11 2.27 13 5.32 13 5.36z" class="cls-1"/>
</svg>
