<svg xmlns="http://www.w3.org/2000/svg" id="圖層_1" data-name="圖層 1" viewBox="0 0 39.75 39.75">
    <defs>
        <style>
            .cls-1{fill:#feffff}.cls-2{fill:#df6764}
        </style>
    </defs>
    <path d="M19.87 3.15a16.75 16.75 0 1 0 16.75 16.73A16.76 16.76 0 0 0 19.87 3.15z" class="cls-1"/>
    <path d="M19.87 0a19.88 19.88 0 1 0 19.88 19.87A19.88 19.88 0 0 0 19.87 0zm16.75 19.88A16.75 16.75 0 1 1 19.87 3.14a16.76 16.76 0 0 1 16.75 16.73z" class="cls-2"/>
    <path d="M18.72 22.6a.84.84 0 0 1-.83-.83V7.53a.83.83 0 0 1 1.66 0V20.7l10.05-2.56a.82.82 0 0 1 1 .59.84.84 0 0 1-.6 1l-11.07 2.86z" class="cls-2"/>
</svg>
